<svg width="43" height="43" viewBox="0 0 43 43" fill="none" xmlns="http://www.w3.org/2000/svg">
<path d="M33.3194 26.8704C32.9092 26.1256 33.4309 25.3676 34.3234 24.4292C35.7376 22.9395 37.2765 19.4843 35.8459 15.9767C35.8558 15.957 35.5637 15.3664 35.5736 15.3467L34.9862 15.3171C34.7992 15.2909 28.3384 15.2778 21.8711 15.2778C15.4037 15.2778 8.94294 15.2909 8.75591 15.3171C8.75591 15.3171 7.88638 15.957 7.89294 15.9767C6.4656 19.4843 8.00122 22.9362 9.41544 24.4292C10.3047 25.3676 10.8264 26.1256 10.4195 26.8704C10.0225 27.5956 9.49747 27.7006 9.49747 27.7006C9.49747 27.7006 9.11357 28.4421 9.76982 28.8425C10.3768 29.2132 11.125 29.2986 11.6401 29.3117C11.6401 29.3117 13.6581 32.104 18.9343 32.104H24.8078C30.084 32.104 32.102 29.3117 32.102 29.3117C32.6172 29.2986 33.3653 29.2132 33.9723 28.8425C34.6286 28.4421 34.9009 27.7006 34.9009 27.7006C34.9009 27.7006 33.7164 27.5956 33.3194 26.8704Z" fill="#AB872F"/>
<path d="M21.8645 32.1007V29.0032L31.239 28.2617L32.0922 29.3117C32.0922 29.3117 30.0742 32.104 24.7979 32.104L21.8645 32.1007Z" fill="url(#paint0_radial_154_468)"/>
<path d="M32.0725 27.9565C30.6681 25.8237 33.782 25.0264 33.782 25.0264L33.7853 25.0296C33.2439 25.7023 32.9978 26.2896 33.3161 26.8704C33.7131 27.5956 34.8943 27.7006 34.8943 27.7006C34.8943 27.7006 33.2832 29.1312 32.0725 27.9565Z" fill="url(#paint1_radial_154_468)"/>
<path d="M35.8525 15.9766C37.247 19.3727 35.7803 22.8706 34.4055 24.3471C34.2184 24.5506 33.4178 25.3348 33.2341 25.9615C33.2341 25.9615 30.1038 21.5941 29.1686 19.0282C28.9816 18.5098 28.8077 17.9782 28.7847 17.427C28.7683 17.0135 28.8306 16.5213 29.0702 16.1702C29.3622 15.7404 35.6852 15.6124 35.6852 15.6124C35.6852 15.6157 35.8525 15.9766 35.8525 15.9766Z" fill="url(#paint2_radial_154_468)"/>
<path d="M7.88971 15.9766C6.49846 19.3727 7.96518 22.8705 9.33675 24.3438C9.52706 24.5473 10.3244 25.3315 10.5082 25.9582C10.5082 25.9582 13.6385 21.5908 14.5736 19.0249C14.7639 18.5065 14.9346 17.9749 14.9575 17.4237C14.9739 17.0102 14.9116 16.518 14.6721 16.1669C14.38 15.7371 14.0388 15.8519 13.5433 15.8519C12.5983 15.8519 8.46065 15.6091 8.13909 15.6091C8.14237 15.6157 7.88971 15.9766 7.88971 15.9766Z" fill="url(#paint3_radial_154_468)"/>
<path d="M21.8777 32.1007V29.0032L12.5031 28.2617L11.65 29.3117C11.65 29.3117 13.668 32.104 18.9442 32.104L21.8777 32.1007Z" fill="url(#paint4_radial_154_468)"/>
<path d="M11.6697 27.9565C13.074 25.8237 9.96012 25.0264 9.96012 25.0264L9.95684 25.0296C10.4982 25.7023 10.7443 26.2896 10.4261 26.8704C10.029 27.5956 9.50403 27.7006 9.50403 27.7006C9.50403 27.7006 10.4589 29.1312 11.6697 27.9565Z" fill="url(#paint5_radial_154_468)"/>
<path d="M37.6768 41.3374V39.9232C37.6768 35.5132 29.8806 33.3935 22.1926 33.4034C14.5538 33.4099 6.70837 35.254 6.70837 39.9232V41.3374H37.6768Z" fill="black"/>
<path d="M21.8677 30.2271H18.8884V33.5018C18.8884 34.9817 20.1024 36.1826 21.5987 36.1826H22.1401C23.6363 36.1826 24.8504 34.9817 24.8504 33.5018V30.2271H21.8677ZM30.8354 17.217H12.9001C10.9674 17.217 9.38586 18.9035 9.38586 20.9609C9.38586 23.0182 10.9674 24.7048 12.9001 24.7048H30.8321C32.7648 24.7048 34.3463 23.0182 34.3463 20.9609C34.3463 18.9035 32.7681 17.217 30.8354 17.217Z" fill="#C48E6A"/>
<path d="M21.8678 4.30194C16.1584 4.30194 10.869 10.4083 10.869 19.1988C10.869 27.9401 16.3192 32.2615 21.8678 32.2615C27.4164 32.2615 32.8665 27.9368 32.8665 19.1955C32.8665 10.4083 27.5771 4.30194 21.8678 4.30194Z" fill="#E0BB95"/>
<path d="M14.905 14.3065L25.0145 9.82104L19.9909 16.4164L23.3017 15.7207L13.3792 27.6678L13.9961 22.6639L11.499 23.6876L14.905 14.3065Z" fill="url(#paint6_linear_154_468)"/>
<path d="M16.4734 21.6401C17.3668 21.6401 18.091 20.8909 18.091 19.9667C18.091 19.0424 17.3668 18.2932 16.4734 18.2932C15.58 18.2932 14.8557 19.0424 14.8557 19.9667C14.8557 20.8909 15.58 21.6401 16.4734 21.6401Z" fill="#5D4037"/>
<path d="M27.2621 21.6401C28.1555 21.6401 28.8797 20.8909 28.8797 19.9667C28.8797 19.0424 28.1555 18.2932 27.2621 18.2932C26.3687 18.2932 25.6444 19.0424 25.6444 19.9667C25.6444 20.8909 26.3687 21.6401 27.2621 21.6401Z" fill="#5D4037"/>
<path d="M18.9114 17.1809C18.6063 16.7773 17.9041 16.1932 16.5391 16.1932C15.1741 16.1932 14.4686 16.7806 14.1667 17.1809C14.0322 17.3581 14.065 17.5648 14.1602 17.6895C14.2455 17.8043 14.5014 17.9126 14.7836 17.8175C15.0658 17.7223 15.617 17.4368 16.5391 17.4303C17.4611 17.4368 18.0123 17.7223 18.2945 17.8175C18.5767 17.9126 18.8327 17.8076 18.918 17.6895C19.0098 17.5648 19.0427 17.3581 18.9114 17.1809ZM29.5722 17.1809C29.267 16.7773 28.5648 16.1932 27.1998 16.1932C25.8348 16.1932 25.1294 16.7806 24.8275 17.1809C24.693 17.3581 24.7258 17.5648 24.8209 17.6895C24.9063 17.8043 25.1622 17.9126 25.4444 17.8175C25.7266 17.7223 26.2778 17.4368 27.1998 17.4303C28.1219 17.4368 28.6731 17.7223 28.9553 17.8175C29.2375 17.9126 29.4934 17.8076 29.5788 17.6895C29.6739 17.5648 29.7067 17.3581 29.5722 17.1809Z" fill="#AB872F"/>
<path d="M23.1343 23.0018C23.0982 22.9887 23.0654 22.9789 23.0293 22.9756H20.7062C20.6701 22.9789 20.634 22.9887 20.6012 23.0018C20.3912 23.0871 20.2764 23.3037 20.3748 23.5367C20.4732 23.7696 20.9359 24.4193 21.8678 24.4193C22.7996 24.4193 23.2623 23.7664 23.3607 23.5367C23.4592 23.3037 23.3443 23.0871 23.1343 23.0018Z" fill="#C48E6A"/>
<path d="M24.6306 25.6531C23.5872 26.2732 20.1583 26.2732 19.1149 25.6531C18.5144 25.2954 17.9008 25.8434 18.1502 26.3881C18.3963 26.9229 20.2633 28.1665 21.881 28.1665C23.4986 28.1665 25.3427 26.9229 25.5888 26.3881C25.8349 25.8434 25.2311 25.2954 24.6306 25.6531Z" fill="#6D4C41"/>
<path d="M38.2216 29.1509L38.2511 29.1476C38.8155 29.2067 39.3241 28.8621 39.3897 28.3732L39.662 26.3979C39.7277 25.909 39.3208 25.4627 38.7597 25.4037C38.1953 25.3446 37.6867 25.6892 37.6211 26.1781L37.3488 28.1534C37.2831 28.6423 37.6572 29.0918 38.2216 29.1509Z" fill="url(#paint7_linear_154_468)"/>
<path d="M37.6769 33.5018C36.0461 33.551 34.2545 33.2032 33.7131 31.5527C33.4244 30.6701 33.4966 29.7644 33.6803 28.9179C33.8838 27.9794 33.9002 27.5037 33.8345 26.7621C33.7886 26.2174 33.4441 21.9649 33.4441 21.9649C33.4441 21.9649 33.2341 21.1905 33.9297 20.9674C34.6942 20.6754 34.9764 21.5187 34.9764 21.5187L35.8033 27.3724L39.4061 27.7826C39.4061 27.7826 39.5472 27.5496 39.6259 26.9655C39.662 26.7162 39.6161 26.2535 39.6555 25.9582C39.8425 24.5932 40.0722 22.9427 40.0952 22.8049C40.1345 22.5687 40.3905 22.2209 40.8794 22.2898C41.3716 22.3554 41.4995 22.7196 41.4766 22.9559C41.4536 23.1954 41.2764 25.1084 41.2764 25.1084C41.2239 26.0271 41.1714 27.041 41.2567 27.9565L41.3256 28.6915C41.4372 29.876 41.2633 31.1196 40.7481 32.0449C40.2199 33.0129 39.3077 33.4526 37.6769 33.5018Z" fill="url(#paint8_linear_154_468)"/>
<path d="M36.5022 29.2231C37.0699 29.2362 37.5489 28.849 37.5752 28.3568L37.6868 26.0895C37.7097 25.5973 37.2733 25.1871 36.7057 25.1707C36.138 25.1576 35.6589 25.5448 35.6327 26.037L35.5211 28.3043C35.4949 28.7998 35.9346 29.21 36.5022 29.2231Z" fill="url(#paint9_linear_154_468)"/>
<path d="M38.2215 27.8351C37.5883 27.7236 36.8041 27.5825 36.0526 27.5431C35.9476 27.5365 35.8426 27.5332 35.7376 27.53C34.75 27.5136 34.0314 28.0648 33.6737 29.3018C33.6606 29.3412 33.6508 29.3806 33.6376 29.4232C33.618 29.4954 33.5983 29.5742 33.5819 29.6595V29.6693C33.5589 29.7809 33.5359 29.8957 33.5195 30.0204C33.4572 30.4306 33.4966 30.8243 33.5917 31.1426C33.8509 32.2779 34.6483 32.8161 34.6483 32.8161C34.6483 32.8161 36.7122 33.8496 37.1847 32.8161C37.6572 31.7825 36.9714 30.3387 36.9714 30.3387L36.0133 29.7711C36.2134 29.525 36.5055 29.42 37.0797 29.4528C37.2601 29.4626 37.48 29.4856 37.7491 29.5118C37.7753 29.5151 38.1034 29.5512 38.1264 29.5512C38.4906 29.5709 38.7761 29.4593 38.9992 29.21C39.288 28.8851 39.2519 28.3339 39.2748 28.0714C39.0123 28.0451 38.5694 27.8975 38.2215 27.8351Z" fill="url(#paint10_linear_154_468)"/>
<path d="M18.7112 41.3374L18.4258 34.2532C17.3068 34.7158 16.1781 34.9423 14.9936 34.9423C13.0576 34.9423 11.3579 34.3188 9.99622 33.8168C9.06435 33.4755 8.25716 33.1769 7.65013 33.1769C6.90856 33.1769 6.60669 33.8233 6.60669 35.4115V41.3374H18.7112Z" fill="url(#paint11_linear_154_468)"/>
<path d="M37.5522 41.3374V35.4115C37.5522 33.8266 37.2503 33.1769 36.5088 33.1769C35.9083 33.1769 35.0683 33.4657 34.1003 33.8037C32.6533 34.3057 30.8519 34.9291 28.8372 34.9291C27.6166 34.9291 26.4681 34.706 25.3459 34.2499L25.3853 41.3374H37.5522Z" fill="url(#paint12_linear_154_468)"/>
<path d="M19.8827 41.3374L19.3118 37.4196L8.4541 39.4606L9.80269 41.3374H19.8827Z" fill="url(#paint13_linear_154_468)"/>
<path d="M13.8648 41.3374H19.8597L18.8884 32.4682L9.1759 34.8307L13.3825 40.6451L13.8648 41.3374Z" fill="url(#paint14_linear_154_468)"/>
<path d="M33.9592 41.3374L35.2783 39.4999L24.273 37.4196L23.7349 41.3374H33.9592Z" fill="url(#paint15_linear_154_468)"/>
<path d="M29.4377 41.3374L30.2711 40.1398L34.4777 34.3254L24.8472 32.4682L23.7578 41.3374H29.4377Z" fill="url(#paint16_linear_154_468)"/>
<path d="M40.8105 41.3374L40.7613 32.8062L33.3096 32.8324L33.3128 41.3374H40.8105Z" fill="url(#paint17_linear_154_468)"/>
<path d="M33.5786 37.4393C34.3234 37.4393 34.9272 36.8355 34.9272 36.0907C34.9272 35.3459 34.3234 34.7421 33.5786 34.7421C32.8338 34.7421 32.23 35.3459 32.23 36.0907C32.23 36.8355 32.8338 37.4393 33.5786 37.4393Z" fill="#E6E7E8"/>
<path d="M37.06 37.4295C37.8048 37.4295 38.4086 36.8257 38.4086 36.0809C38.4086 35.3361 37.8048 34.7323 37.06 34.7323C36.3152 34.7323 35.7114 35.3361 35.7114 36.0809C35.7114 36.8257 36.3152 37.4295 37.06 37.4295Z" fill="#FF3D00"/>
<path d="M40.538 37.4163C41.2829 37.4163 41.8866 36.8125 41.8866 36.0677C41.8866 35.3229 41.2829 34.7191 40.538 34.7191C39.7932 34.7191 39.1895 35.3229 39.1895 36.0677C39.1895 36.8125 39.7932 37.4163 40.538 37.4163Z" fill="#808285"/>
<path d="M12.093 29.5118L4.63798 32.5929L4.52642 32.3764C4.50345 32.3961 4.48048 32.4157 4.45095 32.4321L4.0408 32.6717V41.3375H3.01376V33.2623C2.87655 33.3242 2.72084 33.3312 2.57865 33.2818C2.43645 33.2324 2.31858 33.1304 2.24925 32.9968C2.17993 32.8632 2.16442 32.7081 2.20592 32.5634C2.24741 32.4187 2.34276 32.2954 2.47236 32.2189L3.85705 31.4117C3.90626 31.3821 3.95876 31.3657 4.01126 31.3526L3.80455 30.9392L10.7575 26.7621C10.7444 26.8836 10.7411 27.005 10.7444 27.1296C10.7597 27.6062 10.8904 28.0719 11.1253 28.4869C11.3602 28.9018 11.6922 29.2535 12.093 29.5118Z" fill="#5D5F61"/>
<path d="M14.8721 29.1673C14.8 29.2034 14.7278 29.2362 14.6523 29.2625C14.5112 29.3182 14.3668 29.3609 14.2225 29.3871C13.7303 29.479 13.2282 29.42 12.782 29.2264L12.4801 29.351C12.0683 29.1378 11.7209 28.8187 11.4734 28.4265C11.226 28.0343 11.0876 27.5833 11.0725 27.1198C11.0659 26.9262 11.0823 26.7326 11.1184 26.5489L11.3612 26.4012C11.4728 25.9287 11.7221 25.489 12.0864 25.1576C12.1946 25.0493 12.3095 24.9607 12.4375 24.882C12.5064 24.836 12.5786 24.7934 12.654 24.7573C13.8746 24.1437 15.3578 24.6359 15.9681 25.8532C16.5817 27.0706 16.0928 28.5537 14.8721 29.1673Z" fill="#5D5F61"/>
<path opacity="0.3" d="M6.60999 37.5902H40.8105V41.3374H6.60999V37.5902Z" fill="url(#paint18_linear_154_468)"/>
<path d="M35.0158 8.90885C34.2152 7.69807 32.4203 6.07385 30.8092 5.96557C30.55 4.41682 28.893 3.10432 27.2885 2.59573C22.9474 1.22088 20.1222 2.76307 18.6063 3.58994C18.2913 3.76057 16.2536 4.8926 14.8295 4.08213C13.937 3.57354 13.9535 2.19869 13.9535 2.19869C13.9535 2.19869 11.1578 3.2651 12.1127 6.23463C11.1513 6.27401 9.89126 6.68088 9.22517 8.02948C8.43111 9.63729 8.7133 10.9793 8.94298 11.6224C8.11611 12.3246 7.07595 13.8176 7.78798 15.7568C8.32611 17.217 10.4688 17.8896 10.4688 17.8896C10.3178 20.5179 10.8067 22.1356 11.066 22.7885C11.1119 22.9034 11.2727 22.8935 11.3022 22.7754C11.627 21.4728 12.7361 16.9348 12.6245 16.144C12.6245 16.144 16.3488 15.4057 19.8991 12.7906C20.621 12.259 21.4052 11.8062 22.2386 11.4748C26.6978 9.69963 27.6297 12.7282 27.6297 12.7282C27.6297 12.7282 30.7206 12.1343 31.6525 16.4262C32.0036 18.034 32.2399 20.6098 32.44 22.4112C32.4531 22.5392 32.627 22.5654 32.6763 22.4473C32.988 21.732 33.6114 20.3145 33.7591 18.8674C33.8116 18.3589 35.1831 17.6862 35.7738 15.5009C36.5645 12.5871 35.5966 9.78495 35.0158 8.90885Z" fill="#AB872F"/>
<path d="M33.7525 18.8806C33.805 18.372 35.1766 17.6993 35.7672 15.514C35.8295 15.281 35.882 15.0448 35.9313 14.8085C36.4103 12.154 35.5506 9.71604 35.0158 8.90885C34.2742 7.78995 32.6861 6.31995 31.18 6.01807C31.0488 6.00167 30.9208 5.98526 30.7994 5.9787C30.7994 5.9787 30.9077 6.68417 30.6222 7.24526C30.2547 7.9737 29.5033 8.14761 29.5033 8.14761C33.431 12.0785 33.152 15.3664 33.7525 18.8806Z" fill="url(#paint19_radial_154_468)"/>
<path d="M19.5545 3.09448C19.1936 3.26839 18.8786 3.44229 18.6029 3.58995C18.2879 3.76057 16.2503 4.8926 14.8262 4.08214C13.9501 3.58339 13.9501 2.2512 13.9501 2.20526C13.5465 2.72042 12.3259 6.3987 15.8959 6.64479C17.4348 6.74979 18.3831 5.40776 18.9475 4.27245C19.1509 3.85901 19.4692 3.25526 19.5545 3.09448Z" fill="url(#paint20_radial_154_468)"/>
<path d="M26.8422 2.46448C29.244 3.11416 30.4154 4.33807 30.8059 5.96885C30.9208 6.44791 31.0586 10.917 22.5273 5.8376C19.3544 3.9476 20.2206 2.76635 20.5914 2.63182C22.0417 2.10682 24.1515 1.73604 26.8422 2.46448Z" fill="url(#paint21_radial_154_468)"/>
<path d="M13.9403 2.20523C13.937 2.20851 13.9304 2.20851 13.9206 2.21508H13.9173C13.6121 2.34304 11.2135 3.45539 12.1093 6.23461L14.6621 6.64476C12.4014 4.35445 13.9501 2.19867 13.9501 2.19867C13.9501 2.19867 13.9435 2.20195 13.9403 2.20523Z" fill="url(#paint22_radial_154_468)"/>
<path d="M13.6876 6.48728L12.1094 6.23462C12.047 6.23462 11.837 6.25431 11.7222 6.27071C10.8329 6.3954 9.78623 6.85478 9.21857 8.02946C8.60826 9.29603 8.62466 10.3821 8.79201 11.1073C8.84123 11.3501 8.93966 11.6257 8.93966 11.6257C8.93966 11.6257 9.7206 10.8842 11.5811 10.8349L13.6876 6.48728Z" fill="url(#paint23_radial_154_468)"/>
<path d="M8.86417 11.688C8.08652 12.3771 7.0398 13.916 7.81089 15.8257C8.39167 17.2661 10.4654 17.8896 10.4654 17.8896C10.4654 17.8962 10.8789 18.0208 11.0921 18.0208L11.5778 10.8349C10.5835 10.8349 9.6287 11.1335 9.01183 11.5633C9.02167 11.5732 8.86089 11.6782 8.86417 11.688Z" fill="url(#paint24_radial_154_468)"/>
<path d="M13.6877 29.6496C15.132 29.6496 16.3028 28.4788 16.3028 27.0345C16.3028 25.5902 15.132 24.4193 13.6877 24.4193C12.2434 24.4193 11.0725 25.5902 11.0725 27.0345C11.0725 28.4788 12.2434 29.6496 13.6877 29.6496Z" fill="#434444"/>
<path d="M12.4801 29.351L12.0929 29.5118C11.3087 29.0065 10.7804 28.137 10.7443 27.1296C10.7411 27.0049 10.7443 26.8835 10.7575 26.7621L11.1184 26.5488C11.0815 26.7368 11.0661 26.9283 11.0725 27.1198C11.1053 28.0976 11.6697 28.931 12.4801 29.351Z" fill="#727475"/>
<path d="M14.8853 29.3608C14.7475 29.433 14.6031 29.4888 14.4555 29.5347L14.4522 29.5315C14.3242 29.4626 14.193 29.374 14.0617 29.2657C13.6023 28.8949 13.1594 28.3371 12.8017 27.6841C12.7722 27.6283 12.7394 27.5726 12.7131 27.5168C12.2242 26.5652 12.0208 25.6268 12.0962 24.9508C12.2144 24.859 12.3423 24.7802 12.4769 24.708C12.7755 24.5505 13.1134 24.4554 13.4678 24.4258L13.6023 24.416C13.7565 24.4094 13.9108 24.4193 14.0617 24.4422C15.2955 24.6162 16.2634 25.6563 16.3028 26.9458C16.3202 27.4042 16.2137 27.8588 15.9944 28.2616C15.9025 28.4421 15.7844 28.6094 15.6498 28.7571C15.4366 29.006 15.1769 29.2111 14.8853 29.3608Z" fill="#434444"/>
<path d="M14.2717 29.0163C13.809 28.6455 13.3595 28.0615 13.0117 27.3724C12.4408 26.2535 12.3062 25.2527 12.4834 24.7146C12.3489 24.7835 12.2209 24.8655 12.1028 24.9574C12.0273 25.6301 12.234 26.5685 12.7197 27.5233C12.7459 27.5791 12.7787 27.6382 12.8083 27.6907C13.1659 28.3437 13.6089 28.9015 14.0683 29.2723C14.2028 29.3773 14.334 29.4691 14.4587 29.538L14.462 29.5413C14.6097 29.4954 14.754 29.4396 14.8919 29.3674C14.6983 29.3083 14.4915 29.1902 14.2717 29.0163Z" fill="#5D5F61"/>
<path d="M39.6456 26.1255C39.5866 26.5685 39.2026 27.8351 39.2026 27.8351C38.7105 27.6349 38.2609 27.4938 37.8508 27.3954C37.8114 27.1033 37.7162 26.3946 37.6801 25.9713C37.5981 26.3191 37.3848 27.0148 37.2995 27.2871C36.7155 27.1952 36.2233 27.2018 35.8131 27.2674C35.7869 27.041 35.6884 26.2601 35.6359 26.0369C35.5966 26.2338 35.5637 26.6637 35.5244 26.8638C35.4883 27.0476 35.4423 27.2477 35.4194 27.3494C34.9895 27.4676 34.6745 27.648 34.4481 27.8187C34.2742 27.9368 34.1233 28.0779 34.015 28.2583L33.9822 28.3076C34.2972 28.0221 34.7336 27.8646 35.1405 27.7662C36.2594 27.4971 37.7195 27.5988 38.7728 28.0648C39.2059 28.2583 39.2912 28.5898 39.0058 28.9605C38.5891 29.5085 37.8737 29.2591 37.2995 29.2099C36.8008 29.1673 35.9739 29.2296 35.8262 29.8432C36.9419 30.0171 37.3389 31.241 37.3094 32.2352C37.7228 31.3165 37.4537 30.3223 36.4661 29.6758C37.0994 29.328 39.1928 30.3419 39.5078 28.7276C39.6456 28.0024 39.6653 26.4668 39.6456 26.1255Z" fill="#BA8F63"/>
<defs>
<radialGradient id="paint0_radial_154_468" cx="0" cy="0" r="1" gradientUnits="userSpaceOnUse" gradientTransform="translate(26.6528 27.6253) scale(7.68436 3.77456)">
<stop offset="0.728" stop-color="#BFA055" stop-opacity="0"/>
<stop offset="1" stop-color="#BFA055"/>
</radialGradient>
<radialGradient id="paint1_radial_154_468" cx="0" cy="0" r="1" gradientUnits="userSpaceOnUse" gradientTransform="translate(34.222 26.4818) rotate(154.924) scale(2.27084 1.68464)">
<stop offset="0.663" stop-color="#BFA055"/>
<stop offset="1" stop-color="#BFA055" stop-opacity="0"/>
</radialGradient>
<radialGradient id="paint2_radial_154_468" cx="0" cy="0" r="1" gradientUnits="userSpaceOnUse" gradientTransform="translate(28.3367 20.059) rotate(-94.2783) scale(9.97454 8.31313)">
<stop offset="0.725" stop-color="#BFA055" stop-opacity="0"/>
<stop offset="1" stop-color="#BFA055"/>
</radialGradient>
<radialGradient id="paint3_radial_154_468" cx="0" cy="0" r="1" gradientUnits="userSpaceOnUse" gradientTransform="translate(15.4065 20.0588) rotate(-85.7217) scale(9.97454 8.31313)">
<stop offset="0.725" stop-color="#BFA055" stop-opacity="0"/>
<stop offset="1" stop-color="#BFA055"/>
</radialGradient>
<radialGradient id="paint4_radial_154_468" cx="0" cy="0" r="1" gradientUnits="userSpaceOnUse" gradientTransform="translate(17.09 27.6253) rotate(180) scale(7.68436 3.77456)">
<stop offset="0.728" stop-color="#BFA055" stop-opacity="0"/>
<stop offset="1" stop-color="#BFA055"/>
</radialGradient>
<radialGradient id="paint5_radial_154_468" cx="0" cy="0" r="1" gradientUnits="userSpaceOnUse" gradientTransform="translate(10.0389 26.4818) rotate(25.0761) scale(1.99031 1.47652)">
<stop offset="0.663" stop-color="#BFA055"/>
<stop offset="1" stop-color="#BFA055" stop-opacity="0"/>
</radialGradient>
<linearGradient id="paint6_linear_154_468" x1="18.2568" y1="12.7834" x2="18.2568" y2="24.6185" gradientUnits="userSpaceOnUse">
<stop stop-color="#FF6D00"/>
<stop offset="0.263" stop-color="#FD6900"/>
<stop offset="0.502" stop-color="#F75E00"/>
<stop offset="0.733" stop-color="#EE4C00"/>
<stop offset="0.957" stop-color="#E03200"/>
<stop offset="1" stop-color="#DD2C00"/>
</linearGradient>
<linearGradient id="paint7_linear_154_468" x1="37.3415" y1="27.2763" x2="39.6709" y2="27.2763" gradientUnits="userSpaceOnUse">
<stop offset="0.5" stop-color="#E0BB95"/>
<stop offset="1" stop-color="#CCA47A"/>
</linearGradient>
<linearGradient id="paint8_linear_154_468" x1="33.4159" y1="27.2067" x2="41.4844" y2="27.2067" gradientUnits="userSpaceOnUse">
<stop offset="0.5" stop-color="#E0BB95"/>
<stop offset="1" stop-color="#CCA47A"/>
</linearGradient>
<linearGradient id="paint9_linear_154_468" x1="35.496" y1="27.2147" x2="37.7162" y2="27.1648" gradientUnits="userSpaceOnUse">
<stop offset="0.5" stop-color="#E0BB95"/>
<stop offset="1" stop-color="#CCA47A"/>
</linearGradient>
<linearGradient id="paint10_linear_154_468" x1="36.516" y1="28.2039" x2="35.8597" y2="33.2554" gradientUnits="userSpaceOnUse">
<stop offset="0.5" stop-color="#E0BB95"/>
<stop offset="1" stop-color="#CCA47A"/>
</linearGradient>
<linearGradient id="paint11_linear_154_468" x1="12.6606" y1="34.3392" x2="12.6606" y2="42.772" gradientUnits="userSpaceOnUse">
<stop offset="0.004" stop-color="#666666"/>
<stop offset="0.012" stop-color="#656565"/>
<stop offset="0.274" stop-color="#484747"/>
<stop offset="0.53" stop-color="#343131"/>
<stop offset="0.776" stop-color="#272324"/>
<stop offset="1" stop-color="#231F20"/>
</linearGradient>
<linearGradient id="paint12_linear_154_468" x1="31.4501" y1="34.3392" x2="31.4501" y2="42.772" gradientUnits="userSpaceOnUse">
<stop offset="0.004" stop-color="#666666"/>
<stop offset="0.012" stop-color="#656565"/>
<stop offset="0.274" stop-color="#484747"/>
<stop offset="0.53" stop-color="#343131"/>
<stop offset="0.776" stop-color="#272324"/>
<stop offset="1" stop-color="#231F20"/>
</linearGradient>
<linearGradient id="paint13_linear_154_468" x1="14.1674" y1="38.1851" x2="14.1674" y2="42.6726" gradientUnits="userSpaceOnUse">
<stop offset="0.004" stop-color="#666666"/>
<stop offset="0.266" stop-color="#717273"/>
<stop offset="0.649" stop-color="#7C7E81"/>
<stop offset="1" stop-color="#808285"/>
</linearGradient>
<linearGradient id="paint14_linear_154_468" x1="14.5175" y1="33.2088" x2="14.5175" y2="42.2329" gradientUnits="userSpaceOnUse">
<stop stop-color="#FF6D00"/>
<stop offset="0.263" stop-color="#FD6900"/>
<stop offset="0.502" stop-color="#F75E00"/>
<stop offset="0.733" stop-color="#EE4C00"/>
<stop offset="0.957" stop-color="#E03200"/>
<stop offset="1" stop-color="#DD2C00"/>
</linearGradient>
<linearGradient id="paint15_linear_154_468" x1="29.5072" y1="38.1851" x2="29.5072" y2="42.6726" gradientUnits="userSpaceOnUse">
<stop offset="0.004" stop-color="#666666"/>
<stop offset="0.266" stop-color="#717273"/>
<stop offset="0.649" stop-color="#7C7E81"/>
<stop offset="1" stop-color="#808285"/>
</linearGradient>
<linearGradient id="paint16_linear_154_468" x1="29.119" y1="33.2088" x2="29.119" y2="42.2329" gradientUnits="userSpaceOnUse">
<stop stop-color="#FF6D00"/>
<stop offset="0.263" stop-color="#FD6900"/>
<stop offset="0.502" stop-color="#F75E00"/>
<stop offset="0.733" stop-color="#EE4C00"/>
<stop offset="0.957" stop-color="#E03200"/>
<stop offset="1" stop-color="#DD2C00"/>
</linearGradient>
<linearGradient id="paint17_linear_154_468" x1="37.0591" y1="32.8317" x2="37.0591" y2="45.4334" gradientUnits="userSpaceOnUse">
<stop offset="0.004" stop-color="#666666"/>
<stop offset="0.631" stop-color="#393637"/>
<stop offset="1" stop-color="#231F20"/>
</linearGradient>
<linearGradient id="paint18_linear_154_468" x1="23.7099" y1="36.0533" x2="23.7099" y2="41.4329" gradientUnits="userSpaceOnUse">
<stop offset="0.207" stop-color="#212121" stop-opacity="0"/>
<stop offset="1" stop-color="#BFBEBE"/>
</linearGradient>
<radialGradient id="paint19_radial_154_468" cx="0" cy="0" r="1" gradientUnits="userSpaceOnUse" gradientTransform="translate(27.7796 14.7959) rotate(72.0851) scale(11.6919 8.67511)">
<stop offset="0.699" stop-color="#BFA055" stop-opacity="0"/>
<stop offset="1" stop-color="#BFA055"/>
</radialGradient>
<radialGradient id="paint20_radial_154_468" cx="0" cy="0" r="1" gradientUnits="userSpaceOnUse" gradientTransform="translate(16.3819 2.04826) rotate(28.2026) scale(3.06573 3.63507)">
<stop offset="0.58" stop-color="#BFA055"/>
<stop offset="1" stop-color="#BFA055" stop-opacity="0"/>
</radialGradient>
<radialGradient id="paint21_radial_154_468" cx="0" cy="0" r="1" gradientUnits="userSpaceOnUse" gradientTransform="translate(23.2334 7.6158) rotate(-157.19) scale(9.58767 5.38831)">
<stop offset="0.699" stop-color="#BFA055" stop-opacity="0"/>
<stop offset="1" stop-color="#BFA055"/>
</radialGradient>
<radialGradient id="paint22_radial_154_468" cx="0" cy="0" r="1" gradientUnits="userSpaceOnUse" gradientTransform="translate(15.1507 4.84495) scale(2.81367 3.44196)">
<stop offset="0.702" stop-color="#BFA055" stop-opacity="0"/>
<stop offset="1" stop-color="#BFA055"/>
</radialGradient>
<radialGradient id="paint23_radial_154_468" cx="0" cy="0" r="1" gradientUnits="userSpaceOnUse" gradientTransform="translate(14.7632 9.81162) rotate(-164.942) scale(5.27743 4.93871)">
<stop offset="0.66" stop-color="#BFA055" stop-opacity="0"/>
<stop offset="1" stop-color="#BFA055"/>
</radialGradient>
<radialGradient id="paint24_radial_154_468" cx="0" cy="0" r="1" gradientUnits="userSpaceOnUse" gradientTransform="translate(13.5125 14.9072) rotate(7.83355) scale(5.5409 7.78587)">
<stop offset="0.598" stop-color="#BFA055" stop-opacity="0"/>
<stop offset="1" stop-color="#BFA055"/>
</radialGradient>
</defs>
</svg>
