<svg width="25" height="25" viewBox="0 0 25 25" fill="none" xmlns="http://www.w3.org/2000/svg">
<path fill-rule="evenodd" clip-rule="evenodd" d="M22.8715 16.6696C22.8715 18.2609 22.2393 19.787 21.1141 20.9123C19.9889 22.0375 18.4628 22.6696 16.8715 22.6696C15.2802 22.6696 13.754 22.0375 12.6288 20.9123C11.5036 19.787 10.8715 18.2609 10.8715 16.6696C10.8715 15.0783 11.5036 13.5522 12.6288 12.427C13.754 11.3018 15.2802 10.6696 16.8715 10.6696C18.4628 10.6696 19.9889 11.3018 21.1141 12.427C22.2393 13.5522 22.8715 15.0783 22.8715 16.6696ZM16.8715 20.6696C17.9323 20.6696 18.9497 20.2482 19.6999 19.498C20.45 18.7479 20.8715 17.7305 20.8715 16.6696C20.8715 15.6088 20.45 14.5913 19.6999 13.8412C18.9497 13.091 17.9323 12.6696 16.8715 12.6696C15.8106 12.6696 14.7932 13.091 14.043 13.8412C13.2929 14.5913 12.8715 15.6088 12.8715 16.6696C12.8715 17.7305 13.2929 18.7479 14.043 19.498C14.7932 20.2482 15.8106 20.6696 16.8715 20.6696Z" fill="#939598"/>
<path fill-rule="evenodd" clip-rule="evenodd" d="M16.5715 14.2696C16.8102 14.2696 17.0391 14.3644 17.2079 14.5332C17.3767 14.702 17.4715 14.9309 17.4715 15.1696V17.1696C17.4715 17.4083 17.3767 17.6372 17.2079 17.806C17.0391 17.9748 16.8102 18.0696 16.5715 18.0696C16.3328 18.0696 16.1039 17.9748 15.9351 17.806C15.7663 17.6372 15.6715 17.4083 15.6715 17.1696V15.1696C15.6715 14.9309 15.7663 14.702 15.9351 14.5332C16.1039 14.3644 16.3328 14.2696 16.5715 14.2696Z" fill="#939598"/>
<path fill-rule="evenodd" clip-rule="evenodd" d="M15.8225 16.6696C15.955 16.4711 16.1609 16.3334 16.3949 16.2867C16.6289 16.24 16.8719 16.2882 17.0705 16.4206L18.5705 17.4206C18.6688 17.4861 18.7533 17.5704 18.8191 17.6686C18.8849 17.7668 18.9307 17.8769 18.9539 17.9928C18.9771 18.1087 18.9773 18.228 18.9544 18.344C18.9315 18.4599 18.886 18.5702 18.8205 18.6686C18.7549 18.767 18.6707 18.8515 18.5725 18.9172C18.4743 18.983 18.3641 19.0289 18.2482 19.0521C18.1323 19.0753 18.013 19.0754 17.8971 19.0525C17.7811 19.0296 17.6708 18.9841 17.5725 18.9186L16.0725 17.9186C15.9739 17.8531 15.8892 17.7689 15.8232 17.6707C15.7572 17.5724 15.7113 17.4622 15.6879 17.3462C15.6646 17.2301 15.6644 17.1107 15.6873 16.9946C15.7102 16.8785 15.7558 16.7681 15.8215 16.6696H15.8225ZM9.37146 18.6696C9.37146 19.0556 9.48319 19.4334 9.69316 19.7574C9.90313 20.0813 10.2024 20.3376 10.5548 20.4952C10.9072 20.6529 11.2976 20.7052 11.6791 20.6458C12.0605 20.5864 12.4167 20.4179 12.7045 20.1606L14.0385 21.6506C13.463 22.1655 12.7507 22.5027 11.9877 22.6217C11.2248 22.7407 10.4437 22.6363 9.73873 22.3211C9.03379 22.0059 8.43515 21.4934 8.01509 20.8454C7.59502 20.1975 7.37148 19.4418 7.37146 18.6696H9.37146Z" fill="#939598"/>
<path fill-rule="evenodd" clip-rule="evenodd" d="M9.88147 5.88962C9.26047 6.05762 8.68047 6.32062 8.27647 6.68462C7.17347 7.67962 6.72447 9.02762 6.72447 11.4576C6.72447 13.1896 5.73847 14.8296 5.02847 15.8916C4.87447 16.1236 4.82647 16.3446 4.83547 16.4776C4.83947 16.5376 4.85347 16.5656 4.85947 16.5756C4.86347 16.5826 4.87547 16.6016 4.92347 16.6276C5.61547 16.9976 6.65947 17.2676 7.86647 17.4386C9.02826 17.5945 10.1993 17.6717 11.3715 17.6696C11.6367 17.6696 11.891 17.775 12.0786 17.9625C12.2661 18.15 12.3715 18.4044 12.3715 18.6696C12.3715 18.9348 12.2661 19.1892 12.0786 19.3767C11.891 19.5643 11.6367 19.6696 11.3715 19.6696C10.2435 19.6696 8.88747 19.6046 7.58547 19.4196C6.30347 19.2366 4.98247 18.9266 3.98047 18.3916C3.24347 17.9976 2.88747 17.3116 2.84047 16.6126C2.79447 15.9536 3.01747 15.3026 3.36547 14.7816C4.08247 13.7076 4.72447 12.5226 4.72447 11.4576C4.72447 8.79662 5.21647 6.75062 6.93747 5.19962C7.66247 4.54562 8.57347 4.17262 9.35647 3.95962C10.013 3.77754 10.6902 3.68008 11.3715 3.66962C11.6367 3.66962 11.891 3.77497 12.0786 3.96251C12.2661 4.15005 12.3715 4.4044 12.3715 4.66962C12.3715 4.93483 12.2661 5.18919 12.0786 5.37672C11.891 5.56426 11.6367 5.66962 11.3715 5.66962C11.0655 5.66962 10.4955 5.72162 9.88147 5.88962Z" fill="#939598"/>
<path fill-rule="evenodd" clip-rule="evenodd" d="M12.8615 5.88962C13.4825 6.05762 14.0625 6.32062 14.4665 6.68462C15.5695 7.67962 16.0185 9.02762 16.0185 11.4576C16.0185 11.5889 16.0443 11.719 16.0946 11.8403C16.1448 11.9616 16.2185 12.0719 16.3114 12.1647C16.4042 12.2576 16.5145 12.3312 16.6358 12.3815C16.7571 12.4318 16.8871 12.4576 17.0185 12.4576C17.1498 12.4576 17.2798 12.4318 17.4011 12.3815C17.5225 12.3312 17.6327 12.2576 17.7256 12.1647C17.8184 12.0719 17.8921 11.9616 17.9423 11.8403C17.9926 11.719 18.0185 11.5889 18.0185 11.4576C18.0185 8.79662 17.5265 6.75062 15.8055 5.19962C15.0805 4.54562 14.1695 4.17262 13.3865 3.95962C12.7299 3.77754 12.0527 3.68008 11.3715 3.66962C11.1062 3.66962 10.8519 3.77497 10.6644 3.96251C10.4768 4.15005 10.3715 4.4044 10.3715 4.66962C10.3715 4.93483 10.4768 5.18919 10.6644 5.37672C10.8519 5.56426 11.1062 5.66962 11.3715 5.66962C11.6775 5.66962 12.2475 5.72162 12.8615 5.88962Z" fill="#939598"/>
<path d="M14.0184 4.34962C14.0184 5.04462 12.6234 4.39162 11.5184 4.39162C10.4134 4.39162 9.01843 5.04462 9.01843 4.34862C9.01843 3.65362 10.0184 2.66962 11.5184 2.66962C13.0184 2.66962 14.0184 3.65362 14.0184 4.34962Z" fill="#939598"/>
</svg>
