<svg width="24" height="25" viewBox="0 0 24 25" fill="none" xmlns="http://www.w3.org/2000/svg">
<path d="M21 4.70978H3C2.60218 4.70978 2.22064 4.86781 1.93934 5.14912C1.65804 5.43042 1.5 5.81195 1.5 6.20978V18.2098C1.5 18.6076 1.65804 18.9891 1.93934 19.2704C2.22064 19.5517 2.60218 19.7098 3 19.7098H21C21.3978 19.7098 21.7794 19.5517 22.0607 19.2704C22.342 18.9891 22.5 18.6076 22.5 18.2098V6.20978C22.5 5.81195 22.342 5.43042 22.0607 5.14912C21.7794 4.86781 21.3978 4.70978 21 4.70978ZM19.35 6.20978L12 11.2948L4.65 6.20978H19.35ZM3 18.2098V6.89228L11.5725 12.8248C11.698 12.9119 11.8472 12.9585 12 12.9585C12.1528 12.9585 12.302 12.9119 12.4275 12.8248L21 6.89228V18.2098H3Z" fill="#280A82"/>
</svg>
