<svg width="58" height="59" viewBox="0 0 58 59" fill="none" xmlns="http://www.w3.org/2000/svg">
<path d="M43.6903 14.7452L42.5557 14.6491L37.8169 16.6601C37.8169 16.6601 39.9837 16.9718 40.0716 17.0153C40.1614 17.0606 42.4216 15.6578 42.6762 15.5989C42.9254 15.539 43.6903 14.7452 43.6903 14.7452Z" fill="#BE1E2D"/>
<path d="M54.52 15.6188L43.6903 14.7452L39.3221 17.0181L44.6418 18.6076L49.8365 19.8338L53.7587 16.4816L54.52 15.6188Z" fill="#C1BFC0"/>
<path d="M48.4481 18.6765L38.7893 16.5713L39.3584 20.479L46.0121 23.1978L48.0947 23.6138L48.9919 21.2738L48.4481 18.6765Z" fill="#E0D9DB"/>
<path d="M49.9888 18.9384L56.6905 15.8925C56.6905 15.8925 54.066 18.6385 54.2962 22.4846L49.9888 23.9418V18.9384Z" fill="#CC293D"/>
<path d="M48.0947 18.6077V23.5114L49.9888 23.9419L50.7156 22.9341L50.5479 19.4024L50.7156 18.9511L49.5565 18.6077H48.0947Z" fill="#BE1E2D"/>
<path d="M50.7862 23.6147C50.6539 23.4742 43.7012 21.7396 43.7012 21.7396L41.2434 23.9545L43.413 26.8418L44.8358 29.2035L47.6352 28.6344L49.8655 26.3153L50.7862 23.6147Z" fill="#737475"/>
<path d="M48.4481 31.4275L36.3678 37.2329L36.4131 34.6909L37.9102 33.5363L41.2434 32.7452L44.3229 31.2154L47.4603 29.624L50.469 28.8084L48.4481 31.4275Z" fill="#243438"/>
<path d="M42.4659 19.329L44.0392 20.18V22.4374L41.3965 24.259L38.0489 24.5309L36.2273 23.1987L38.0924 19.9588L42.224 18.9964L42.4659 19.329Z" fill="#BE1E2D"/>
<path d="M31.2375 17.5219C31.2375 17.5219 39.7427 14.7225 43.2309 18.4472L39.8904 19.2338L35.718 19.9597L31.2375 17.5219Z" fill="#CC293D"/>
<path d="M36.124 18.1355C36.124 18.1355 38.6389 16.0384 43.2308 18.4472V19.6407L36.124 23.1987V18.1355Z" fill="#D3314C"/>
<path d="M31.2375 17.522L36.6488 17.8881V23.1471L31.2375 21.8665V17.522Z" fill="#BE1E2D"/>
<path d="M36.3678 35.125L39.6702 33.7076V34.4688L48.4481 29.9766V27.3086L45.385 28.4894L41.286 30.6028L38.3434 31.1393L36.6487 31.5815L36.3678 35.125ZM25.375 22.0405L31.6453 20.7056L40.4378 23.7289L38.5419 25.5595L32.9059 26.0534C32.9059 26.0534 27.908 26.0833 27.6062 25.3674C27.3071 24.6523 24.9699 24.6442 24.9101 24.2518C24.8457 23.8576 25.375 22.0405 25.375 22.0405Z" fill="#243438"/>
<path d="M37.149 27.1046L30.4546 27.3085L19.2125 33.0659V36.2215L27.8011 38.0431L35.7371 31.6631L37.149 27.1046Z" fill="#939598"/>
<path d="M5.94678 39.7287C5.94678 39.7287 8.95462 42.6124 14.1665 41.8865L14.0169 41.6536V39.8927L13.3699 39.9453L7.93781 38.4581H6.19328L5.94678 39.7287Z" fill="#BF3413"/>
<path d="M2.27383 33.0659C2.27383 33.0659 1.26336 28.2891 5.69402 26.0534C5.69402 26.0534 6.49243 25.5268 8.4753 25.8649C8.4753 25.8649 13.4733 26.6968 13.4733 27.9701C13.4733 29.2398 12.8217 29.5778 12.8217 29.5778L9.10877 32.2349L6.80418 33.5372H5.00618L2.2693 33.0659" fill="#2E4044"/>
<path d="M6.91554 33.066C6.91554 33.066 7.5037 28.184 10.2895 27.2977C10.2895 27.2977 12.6122 26.3697 13.9145 28.5637C15.224 30.7577 10.9166 31.4764 10.9166 31.4764L6.91101 33.066" fill="#243438"/>
<path d="M0.221069 34.835L4.11069 33.066L11.9697 33.626L12.1636 37.1278L7.46473 40.4809L0.542788 38.1718L0.221069 34.835Z" fill="#CC293D"/>
<path d="M6.43891 38.6684L0.542847 37.0462L0.655222 38.0431L6.38907 39.8465L6.43891 38.6684Z" fill="#D0C9CC"/>
<path d="M21.0822 22.3649C21.0822 22.3649 24.1489 21.0862 28.7372 22.1964C28.7372 22.1964 25.714 22.5643 25.3334 23.2023L24.6501 23.7343C24.6501 23.7343 22.9681 23.0645 22.8783 23.0419C22.7932 23.0183 21.0822 22.3649 21.0822 22.3649Z" fill="#CC293D"/>
<path d="M21.0822 22.3649L21.2317 24.8671L25.8454 23.2349L21.0822 22.3649Z" fill="#BE1E2D"/>
<path d="M40.1741 30.04L46.0611 27.5043V29.8913L40.1741 32.4515V30.04Z" fill="#E0D9DB"/>
<path d="M35.0719 24.5309C35.0719 24.5309 43.5191 22.0006 46.9846 25.4262L43.6695 26.4367L39.5261 27.1037L35.0719 24.5309Z" fill="#CC293D"/>
<path d="M0 33.6224L0.221125 35.4303L5.00613 36.7127L4.78047 34.4688L0 33.6224Z" fill="#D0C9CC"/>
<path d="M5.00617 36.7127L7.10958 35.8128L6.80327 33.5363L4.78052 34.4688L5.00617 36.7127Z" fill="#A5A2A3"/>
<path d="M25.4837 23.0374L35.07 24.5309V28.9516C35.07 28.9516 19.6964 35.3588 18.2664 36.4816L14.3441 40.0912C14.3441 40.0912 10.2343 41.0881 6.18786 38.5977L5.69214 33.8073C5.69214 33.8073 12.3522 25.7752 25.4837 23.0374Z" fill="#BE1E2D"/>
<path d="M6.19336 35.4304C6.19336 35.4304 7.91523 36.4073 11.5874 36.6175C11.5874 36.6175 12.2652 36.8486 12.4057 37.5238L12.8208 40.48L7.91433 39.8501L6.7498 39.4097L6.35286 38.6983L6.19336 35.4304Z" fill="#243438"/>
<path d="M6.19327 38.6684C6.19327 38.6684 8.23868 40.296 13.4705 40.2851L13.5556 41.6454C13.5556 41.6454 9.38508 42.1774 6.33465 39.8148L6.19055 38.6684" fill="#D0C9CC"/>
<path d="M7.76384 32.5421L4.81491 31.6631L0 33.6224L4.78047 34.4688L7.76384 33.066V32.5421Z" fill="#D8D4D5"/>
<path d="M5.69397 33.8182C5.69397 33.8182 6.87481 36.5106 13.0989 35.2654C13.0989 35.2654 26.9192 25.8858 35.0755 24.3089L25.4892 22.8163C25.4892 22.8163 12.6476 25.7462 5.69759 33.8173" fill="#DB3A0E"/>
<path d="M40.1923 25.4272C40.1923 25.4272 42.824 23.4969 47.6371 25.7154V26.811L40.1923 30.0844V25.4272Z" fill="#BE1E2D"/>
<path d="M35.0719 24.5309L40.1922 25.4272V30.0844L35.0719 28.9534V24.5309Z" fill="#BE1E2D"/>
<path d="M36.1666 28.0517C36.1666 28.0517 33.0029 28.4432 34.5417 32.0301L35.9573 33.5662L38.5791 32.2096L40.1768 32.4515V30.04L38.3978 29.6793C38.3969 29.6793 38.1268 27.9593 36.1666 28.0517Z" fill="#C1BFC0"/>
<path d="M30.0875 29.9711C30.0875 29.9711 27.3841 29.8343 26.7081 30.6934C26.7081 30.6934 24.0836 32.5449 24.4887 37.696L24.7587 41.2639L24.94 41.7152C24.94 41.7152 30.005 43.5223 31.9897 43.3854C31.9897 43.3854 33.7895 43.0682 34.8281 41.9862C34.8281 41.9862 37.7625 39.3662 36.7711 33.3143C36.7711 33.3143 36.2445 30.8076 32.9929 30.3155L30.0875 29.9711Z" fill="#2E4044"/>
<path d="M35.6156 37.5746C35.2567 39.4614 34.1638 40.8362 33.1751 40.644C32.1863 40.4573 31.6779 38.7762 32.0368 36.8912C32.3957 35.0044 33.4913 33.6297 34.4801 33.82C35.4697 34.0085 35.9772 35.6887 35.6156 37.5746Z" fill="#D0C9CC"/>
<path d="M52.2444 21.6581C52.2444 21.6581 50.092 21.5411 49.551 22.2761C49.551 22.2761 47.463 23.863 47.7874 28.2746L48.0004 31.3323L48.1427 31.7201C48.1427 31.7201 52.1764 33.2671 53.7551 33.1511C53.7551 33.1511 55.1888 32.8792 56.0171 31.9512C56.0171 31.9512 58.3507 29.7056 57.5613 24.5209C57.5613 24.5209 57.1408 22.3731 54.5535 21.9517L52.2444 21.6581Z" fill="#2E4044"/>
<path d="M56.6497 28.1731C56.3579 29.788 55.4897 30.9662 54.704 30.8048C53.9183 30.6417 53.5132 29.2008 53.7978 27.5858C54.086 25.9709 54.9541 24.7928 55.7435 24.955C56.5292 25.1163 56.9343 26.5582 56.6497 28.1731Z" fill="#D0C9CC"/>
<path d="M13.7714 39.1369L17.661 37.3679L25.3505 38.3213L26.844 41.1733L21.034 43.8105L13.6753 41.9418L13.7714 39.1369Z" fill="#CC293D"/>
<path d="M15.5331 36.748L20.019 35.0071L26.0728 35.9406L25.3505 38.3213L21.034 40.1601L15.6355 38.904L15.5331 36.748Z" fill="#D8D4D5"/>
<path d="M13.4669 40.2888L13.5585 41.65L20.9344 43.39V42.0079L13.4669 40.2888ZM15.5332 36.748L20.9344 38.0159L21.0341 40.1601L15.6356 38.904L15.5332 36.748Z" fill="#D0C9CC"/>
<path d="M20.9343 38.0159L26.0728 35.9406L25.3505 38.3213L21.034 40.1601L20.9343 38.0159Z" fill="#A5A2A3"/>
<path d="M29.1722 22.4556C29.1722 22.4556 29.2284 18.5578 32.8996 18.4454C32.8996 18.4454 36.2609 18.1917 35.6673 22.316C35.0774 26.4395 35.1055 22.6821 34.9342 22.7121C34.7638 22.7392 30.1891 23.1924 30.1891 23.1924L29.1722 22.4556Z" fill="#2E3192"/>
<path d="M29.2538 21.3481C29.2538 21.3481 29.5356 20.6784 30.837 20.7065C30.837 20.7065 34.3043 20.7065 34.5182 21.5257C34.5182 21.5257 34.9731 22.8824 29.4024 22.6277C29.4033 22.6277 28.8097 22.287 29.2538 21.3481Z" fill="#939598"/>
<path d="M56.686 15.8925L54.52 15.6188L48.0947 18.6076L50.4483 19.0707L56.686 15.8925Z" fill="#BE1E2D"/>
<path d="M28.0892 23.2259L25.4856 22.8208C25.4856 22.8208 12.644 25.7516 5.69397 33.8227C5.69397 33.8227 5.86163 34.2015 6.39813 34.612C14.0913 26.3099 24.8385 23.8141 28.0892 23.2259Z" fill="#CC293D"/>
<path d="M8.62476 35.4811C9.70229 35.6587 11.155 35.6533 13.0998 35.2654C13.0998 35.2654 26.9201 25.8857 35.0764 24.3089L31.9988 23.8286C19.5387 25.874 11.0191 33.1974 8.62838 35.4802" fill="#CC293D"/>
<path d="M28.0892 23.2259C24.8385 23.814 14.0913 26.3099 6.39722 34.612C6.844 34.95 7.54997 35.3098 8.62387 35.4856C11.0182 33.2028 19.5351 25.8794 31.9942 23.834L28.0892 23.2259Z" fill="white"/>
<path d="M42.3037 17.2899L46.1942 14.9473L49.3996 15.2055L44.5965 17.8246L42.3037 17.2899Z" fill="#CC293D"/>
<path d="M26.844 31.7745C26.844 31.7745 25.5852 33.1294 25.5245 34.718L30.2379 35.7049C30.2379 35.7049 30.7101 33.7338 31.9942 32.5621L26.844 31.7745ZM49.5882 23.1697C49.5882 23.1697 48.5034 24.3415 48.4499 25.7117L52.5181 26.5654C52.5181 26.5654 52.9277 24.8626 54.0342 23.8512L49.5882 23.1697ZM4.60012 27.3085C4.47868 27.3194 3.21265 28.8627 3.21265 29.4826L6.91558 30.3146C6.91558 30.3146 7.65871 28.3362 8.40093 27.8441L4.60012 27.3085Z" fill="#939598"/>
</svg>
