<svg width="22" height="23" viewBox="0 0 22 23" fill="none" xmlns="http://www.w3.org/2000/svg">
<path d="M21.2532 10.9313C21.2231 10.8635 20.4952 9.24868 18.877 7.63048C16.7209 5.47431 13.9975 4.33478 11 4.33478C8.00249 4.33478 5.27913 5.47431 3.12296 7.63048C1.50476 9.24868 0.773429 10.866 0.746789 10.9313C0.707698 11.0193 0.6875 11.1144 0.6875 11.2106C0.6875 11.3069 0.707698 11.402 0.746789 11.4899C0.776867 11.5578 1.50476 13.1717 3.12296 14.7899C5.27913 16.9452 8.00249 18.0848 11 18.0848C13.9975 18.0848 16.7209 16.9452 18.877 14.7899C20.4952 13.1717 21.2231 11.5578 21.2532 11.4899C21.2923 11.402 21.3125 11.3069 21.3125 11.2106C21.3125 11.1144 21.2923 11.0193 21.2532 10.9313ZM11 16.7098C8.35484 16.7098 6.04398 15.7481 4.13101 13.8524C3.34609 13.0718 2.67831 12.1817 2.14843 11.2098C2.67817 10.2378 3.34597 9.34766 4.13101 8.5672C6.04398 6.67142 8.35484 5.70978 11 5.70978C13.6451 5.70978 15.956 6.67142 17.869 8.5672C18.6554 9.34748 19.3247 10.2376 19.8559 11.2098C19.2362 12.3665 16.5369 16.7098 11 16.7098ZM11 7.08478C10.1841 7.08478 9.38662 7.32671 8.70826 7.77997C8.02991 8.23323 7.5012 8.87746 7.18899 9.63121C6.87678 10.385 6.79509 11.2144 6.95425 12.0145C7.11342 12.8147 7.50628 13.5497 8.08318 14.1266C8.66007 14.7035 9.39507 15.0964 10.1952 15.2555C10.9954 15.4147 11.8248 15.333 12.5786 15.0208C13.3323 14.7086 13.9765 14.1799 14.4298 13.5015C14.8831 12.8232 15.125 12.0256 15.125 11.2098C15.1239 10.1161 14.6889 9.06756 13.9156 8.29422C13.1422 7.52088 12.0937 7.08592 11 7.08478ZM11 13.9598C10.4561 13.9598 9.92441 13.7985 9.47217 13.4963C9.01994 13.1941 8.66746 12.7647 8.45932 12.2622C8.25118 11.7597 8.19672 11.2067 8.30283 10.6733C8.40894 10.1398 8.67085 9.64983 9.05545 9.26523C9.44004 8.88064 9.93005 8.61873 10.4635 8.51262C10.9969 8.40651 11.5499 8.46097 12.0524 8.66911C12.5549 8.87725 12.9844 9.22972 13.2865 9.68196C13.5887 10.1342 13.75 10.6659 13.75 11.2098C13.75 11.9391 13.4603 12.6386 12.9445 13.1543C12.4288 13.67 11.7293 13.9598 11 13.9598Z" fill="#280A82"/>
</svg>
