<svg width="42" height="43" viewBox="0 0 42 43" fill="none" xmlns="http://www.w3.org/2000/svg">
<path d="M11.8125 4.48901C11.8125 4.14092 11.9508 3.80708 12.1969 3.56094C12.4431 3.31479 12.7769 3.17651 13.125 3.17651H28.875C29.2231 3.17651 29.5569 3.31479 29.8031 3.56094C30.0492 3.80708 30.1875 4.14092 30.1875 4.48901V10.0698C27.5118 8.14334 24.297 7.10911 21 7.11401C17.5718 7.11401 14.3981 8.20995 11.8125 10.0698V4.48901ZM21 35.989C24.4283 35.989 27.6019 34.8931 30.1875 33.0333V38.614C30.1875 38.9621 30.0492 39.296 29.8031 39.5421C29.5569 39.7882 29.2231 39.9265 28.875 39.9265H13.125C12.7769 39.9265 12.4431 39.7882 12.1969 39.5421C11.9508 39.296 11.8125 38.9621 11.8125 38.614V33.0333C14.4882 34.9597 17.703 35.9939 21 35.989ZM35.4375 18.9265C35.0894 18.9265 34.7556 19.0648 34.5094 19.3109C34.2633 19.5571 34.125 19.8909 34.125 20.239V22.864C34.125 23.2121 34.2633 23.5459 34.5094 23.7921C34.7556 24.0382 35.0894 24.1765 35.4375 24.1765H37.4062C37.7543 24.1765 38.0882 24.0382 38.3343 23.7921C38.5805 23.5459 38.7188 23.2121 38.7188 22.864V20.239C38.7188 19.8909 38.5805 19.5571 38.3343 19.3109C38.0882 19.0648 37.7543 18.9265 37.4062 18.9265H35.4375Z" fill="#3F5FFF"/>
<path d="M36.75 21.5515C36.75 30.2495 29.6979 37.3015 21 37.3015C12.3021 37.3015 5.25 30.2495 5.25 21.5515C5.25 12.8536 12.3021 5.80151 21 5.80151C29.6979 5.80151 36.75 12.8536 36.75 21.5515Z" fill="#A4AEEB"/>
<path d="M32.8125 21.5515C32.8125 24.6844 31.568 27.6889 29.3527 29.9042C27.1374 32.1195 24.1329 33.364 21 33.364C17.8671 33.364 14.8626 32.1195 12.6473 29.9042C10.432 27.6889 9.1875 24.6844 9.1875 21.5515C9.1875 18.4186 10.432 15.4141 12.6473 13.1988C14.8626 10.9835 17.8671 9.73901 21 9.73901C24.1329 9.73901 27.1374 10.9835 29.3527 13.1988C31.568 15.4141 32.8125 18.4186 32.8125 21.5515Z" fill="#5235A6"/>
<path d="M21 11.0515C20.6519 11.0515 20.3181 11.1898 20.0719 11.4359C19.8258 11.6821 19.6875 12.0159 19.6875 12.364V20.239C19.6875 20.5146 19.7728 20.7719 19.9198 20.9845L15.6319 25.7633C15.5168 25.8917 15.428 26.0416 15.3708 26.2043C15.3136 26.367 15.2889 26.5393 15.2983 26.7115C15.3077 26.8838 15.3509 27.0524 15.4255 27.2079C15.5001 27.3635 15.6045 27.5028 15.733 27.6179C15.8614 27.733 16.0112 27.8217 16.1739 27.879C16.3366 27.9362 16.509 27.9608 16.6812 27.9515C16.8534 27.9421 17.0221 27.8989 17.1776 27.8243C17.3331 27.7497 17.4724 27.6452 17.5875 27.5168L21.9686 22.6317C22.1662 22.4113 22.2834 22.1305 22.3012 21.8351C22.3191 21.5396 22.2366 21.2468 22.0671 21.0042C22.2269 20.7811 22.3127 20.5135 22.3125 20.239V12.364C22.3125 12.0159 22.1742 11.6821 21.9281 11.4359C21.682 11.1898 21.3481 11.0515 21 11.0515Z" fill="white"/>
<path d="M23.625 21.5515C23.625 22.2477 23.3484 22.9154 22.8562 23.4077C22.3639 23.9 21.6962 24.1765 21 24.1765C20.3038 24.1765 19.6361 23.9 19.1438 23.4077C18.6516 22.9154 18.375 22.2477 18.375 21.5515C18.375 20.8553 18.6516 20.1876 19.1438 19.6954C19.6361 19.2031 20.3038 18.9265 21 18.9265C21.6962 18.9265 22.3639 19.2031 22.8562 19.6954C23.3484 20.1876 23.625 20.8553 23.625 21.5515Z" fill="#FCD53F"/>
</svg>
