<svg width="23" height="23" viewBox="0 0 23 23" fill="none" xmlns="http://www.w3.org/2000/svg">
<rect x="0.867798" y="22.6696" width="22" height="22" rx="6" transform="rotate(-90 0.867798 22.6696)" fill="#35CDE2"/>
<path d="M17.8678 12.6696H5.8678C5.60258 12.6696 5.34823 12.5643 5.16069 12.3767C4.97315 12.1892 4.8678 11.9348 4.8678 11.6696C4.8678 11.4044 4.97315 11.15 5.16069 10.9625C5.34823 10.775 5.60258 10.6696 5.8678 10.6696H17.8678C18.133 10.6696 18.3874 10.775 18.5749 10.9625C18.7624 11.15 18.8678 11.4044 18.8678 11.6696C18.8678 11.9348 18.7624 12.1892 18.5749 12.3767C18.3874 12.5643 18.133 12.6696 17.8678 12.6696Z" fill="white"/>
</svg>
