<svg width="127" height="133" viewBox="0 0 127 133" fill="none" xmlns="http://www.w3.org/2000/svg">
<g filter="url(#filter0_d_154_372)">
<path d="M57.4916 18.2901C61.2044 16.1465 65.7788 16.1465 69.4916 18.2901L88.6519 29.3523C92.3648 31.4959 94.6519 35.4574 94.6519 39.7446V61.8691C94.6519 66.1563 92.3648 70.1178 88.6519 72.2614L69.4916 83.3236C65.7788 85.4672 61.2044 85.4672 57.4916 83.3236L38.3313 72.2614C34.6185 70.1178 32.3313 66.1563 32.3313 61.8691V39.7446C32.3313 35.4574 34.6185 31.4959 38.3313 29.3523L57.4916 18.2901Z" fill="#10CCCC"/>
<path d="M57.7416 18.7231C61.2997 16.6688 65.6835 16.6688 69.2416 18.7231L88.4019 29.7853C91.9601 31.8396 94.1519 35.6361 94.1519 39.7446V61.8691C94.1519 65.9776 91.9601 69.7741 88.4019 71.8284L69.2416 82.8906C65.6835 84.9449 61.2997 84.9449 57.7416 82.8906L38.5813 71.8284C35.0232 69.7741 32.8313 65.9776 32.8313 61.8691V39.7446C32.8313 35.6361 35.0232 31.8396 38.5813 29.7853L57.7416 18.7231Z" stroke="white"/>
</g>
<g clip-path="url(#clip0_154_372)">
<path d="M78.1819 36.0005L77.0473 35.9044L72.3085 37.9154C72.3085 37.9154 74.4753 38.2271 74.5632 38.2706C74.6529 38.316 76.9131 36.9131 77.1678 36.8542C77.417 36.7944 78.1819 36.0005 78.1819 36.0005Z" fill="#BE1E2D"/>
<path d="M89.0115 36.8741L78.1818 36.0005L73.8137 38.2734L79.1334 39.8629L84.328 41.0891L88.2503 37.7369L89.0115 36.8741Z" fill="#C1BFC0"/>
<path d="M82.9397 39.9318L73.2809 37.8266L73.85 41.7343L80.5037 44.4531L82.5863 44.8691L83.4834 42.5291L82.9397 39.9318Z" fill="#E0D9DB"/>
<path d="M84.4803 40.1937L91.1821 37.1478C91.1821 37.1478 88.5576 39.8938 88.7878 43.7399L84.4803 45.1971V40.1937Z" fill="#CC293D"/>
<path d="M82.5863 39.863V44.7667L84.4804 45.1972L85.2072 44.1894L85.0395 40.6578L85.2072 40.2064L84.0481 39.863H82.5863Z" fill="#BE1E2D"/>
<path d="M85.2778 44.87C85.1455 44.7295 78.1927 42.9949 78.1927 42.9949L75.735 45.2098L77.9045 48.0971L79.3274 50.4588L82.1268 49.8897L84.357 47.5706L85.2778 44.87Z" fill="#737475"/>
<path d="M82.9397 52.6828L70.8594 58.4882L70.9047 55.9462L72.4018 54.7916L75.735 54.0005L78.8144 52.4707L81.9519 50.8793L84.9606 50.0637L82.9397 52.6828Z" fill="#243438"/>
<path d="M76.9575 40.5843L78.5307 41.4353V43.6927L75.8881 45.5143L72.5404 45.7862L70.7189 44.454L72.5839 41.2141L76.7155 40.2517L76.9575 40.5843Z" fill="#BE1E2D"/>
<path d="M65.7291 38.7772C65.7291 38.7772 74.2343 35.9778 77.7224 39.7025L74.382 40.4892L70.2096 41.2151L65.7291 38.7772Z" fill="#CC293D"/>
<path d="M70.6156 39.3908C70.6156 39.3908 73.1304 37.2937 77.7224 39.7025V40.8961L70.6156 44.454V39.3908Z" fill="#D3314C"/>
<path d="M65.7291 38.7773L71.1403 39.1434V44.4024L65.7291 43.1218V38.7773Z" fill="#BE1E2D"/>
<path d="M70.8594 56.3803L74.1618 54.9629V55.7242L82.9397 51.2319V48.5639L79.8766 49.7447L75.7776 51.8581L72.835 52.3946L71.1403 52.8368L70.8594 56.3803ZM59.8666 43.2958L66.1369 41.9609L74.9294 44.9842L73.0335 46.8148L67.3975 47.3087C67.3975 47.3087 62.3995 47.3386 62.0978 46.6227C61.7987 45.9077 59.4615 45.8995 59.4017 45.5071C59.3373 45.1129 59.8666 43.2958 59.8666 43.2958Z" fill="#243438"/>
<path d="M71.6406 48.3599L64.9461 48.5638L53.7041 54.3212V57.4768L62.2926 59.2984L70.2287 52.9184L71.6406 48.3599Z" fill="#939598"/>
<path d="M40.4384 60.984C40.4384 60.984 43.4462 63.8677 48.658 63.1418L48.5085 62.9089V61.148L47.8614 61.2006L42.4294 59.7134H40.6849L40.4384 60.984Z" fill="#BF3413"/>
<path d="M36.7654 54.3213C36.7654 54.3213 35.7549 49.5444 40.1856 47.3087C40.1856 47.3087 40.984 46.7822 42.9669 47.1202C42.9669 47.1202 47.9648 47.9521 47.9648 49.2254C47.9648 50.4951 47.3133 50.8331 47.3133 50.8331L43.6003 53.4902L41.2958 54.7925H39.4978L36.7609 54.3213" fill="#2E4044"/>
<path d="M41.4071 54.3213C41.4071 54.3213 41.9953 49.4393 44.7811 48.553C44.7811 48.553 47.1038 47.625 48.4061 49.819C49.7156 52.013 45.4082 52.7317 45.4082 52.7317L41.4026 54.3213" fill="#243438"/>
<path d="M34.7126 56.0903L38.6023 54.3213L46.4613 54.8814L46.6552 58.3831L41.9563 61.7362L35.0344 59.4271L34.7126 56.0903Z" fill="#CC293D"/>
<path d="M40.9305 59.9237L35.0344 58.3015L35.1468 59.2984L40.8806 61.1018L40.9305 59.9237Z" fill="#D0C9CC"/>
<path d="M55.5737 43.6202C55.5737 43.6202 58.6405 42.3415 63.2288 43.4517C63.2288 43.4517 60.2056 43.8196 59.8249 44.4576L59.1416 44.9896C59.1416 44.9896 57.4596 44.3199 57.3699 44.2972C57.2847 44.2736 55.5737 43.6202 55.5737 43.6202Z" fill="#CC293D"/>
<path d="M55.5737 43.6202L55.7233 46.1224L60.337 44.4902L55.5737 43.6202Z" fill="#BE1E2D"/>
<path d="M74.6656 51.2953L80.5526 48.7596V51.1466L74.6656 53.7068V51.2953Z" fill="#E0D9DB"/>
<path d="M69.5635 45.7862C69.5635 45.7862 78.0106 43.2559 81.4761 46.6816L78.1611 47.692L74.0177 48.359L69.5635 45.7862Z" fill="#CC293D"/>
<path d="M34.4916 54.8777L34.7127 56.6857L39.4977 57.968L39.272 55.7241L34.4916 54.8777Z" fill="#D0C9CC"/>
<path d="M39.4978 57.968L41.6012 57.0681L41.2948 54.7916L39.2721 55.7242L39.4978 57.968Z" fill="#A5A2A3"/>
<path d="M59.9753 44.2927L69.5616 45.7862V50.2069C69.5616 50.2069 54.188 56.6141 52.7579 57.7369L48.8357 61.3465C48.8357 61.3465 44.7258 62.3434 40.6794 59.853L40.1837 55.0626C40.1837 55.0626 46.8437 47.0305 59.9753 44.2927Z" fill="#BE1E2D"/>
<path d="M40.6849 56.6857C40.6849 56.6857 42.4068 57.6626 46.0789 57.8729C46.0789 57.8729 46.7568 58.104 46.8973 58.7791L47.3123 61.7353L42.4059 61.1054L41.2414 60.665L40.8444 59.9536L40.6849 56.6857Z" fill="#243438"/>
<path d="M40.6848 59.9237C40.6848 59.9237 42.7303 61.5513 47.962 61.5405L48.0472 62.9007C48.0472 62.9007 43.8767 63.4327 40.8262 61.0701L40.6821 59.9237" fill="#D0C9CC"/>
<path d="M42.2554 53.7975L39.3065 52.9184L34.4916 54.8777L39.272 55.7241L42.2554 54.3213V53.7975Z" fill="#D8D4D5"/>
<path d="M40.1855 55.0735C40.1855 55.0735 41.3664 57.7659 47.5905 56.5208C47.5905 56.5208 61.4108 47.1411 69.5671 45.5642L59.9808 44.0716C59.9808 44.0716 47.1392 47.0015 40.1892 55.0726" fill="#DB3A0E"/>
<path d="M74.6838 46.6825C74.6838 46.6825 77.3156 44.7522 82.1287 46.9707V48.0663L74.6838 51.3397V46.6825Z" fill="#BE1E2D"/>
<path d="M69.5635 45.7862L74.6838 46.6825V51.3397L69.5635 50.2087V45.7862Z" fill="#BE1E2D"/>
<path d="M70.6582 49.307C70.6582 49.307 67.4945 49.6985 69.0333 53.2854L70.4489 54.8215L73.0706 53.4649L74.6684 53.7068V51.2953L72.8894 50.9346C72.8885 50.9346 72.6184 49.2146 70.6582 49.307Z" fill="#C1BFC0"/>
<path d="M64.5791 51.2264C64.5791 51.2264 61.8757 51.0896 61.1996 51.9487C61.1996 51.9487 58.5751 53.8002 58.9802 58.9513L59.2503 62.5192L59.4316 62.9705C59.4316 62.9705 64.4966 64.7776 66.4813 64.6407C66.4813 64.6407 68.2811 64.3236 69.3196 63.2415C69.3196 63.2415 72.2541 60.6215 71.2626 54.5696C71.2626 54.5696 70.7361 52.0629 67.4845 51.5708L64.5791 51.2264Z" fill="#2E4044"/>
<path d="M70.1072 58.8299C69.7483 60.7167 68.6554 62.0915 67.6666 61.8993C66.6779 61.7127 66.1695 60.0316 66.5284 58.1466C66.8873 56.2597 67.9829 54.885 68.9716 55.0753C69.9613 55.2638 70.4688 56.944 70.1072 58.8299Z" fill="#D0C9CC"/>
<path d="M86.7359 42.9134C86.7359 42.9134 84.5836 42.7965 84.0426 43.5314C84.0426 43.5314 81.9546 45.1183 82.279 49.5299L82.492 52.5876L82.6342 52.9755C82.6342 52.9755 86.668 54.5224 88.2466 54.4064C88.2466 54.4064 89.6803 54.1346 90.5086 53.2066C90.5086 53.2066 92.8422 50.9609 92.0529 45.7762C92.0529 45.7762 91.6324 43.6284 89.0451 43.207L86.7359 42.9134Z" fill="#2E4044"/>
<path d="M91.1413 49.4284C90.8495 51.0433 89.9813 52.2215 89.1956 52.0601C88.4099 51.897 88.0048 50.4561 88.2893 48.8411C88.5775 47.2262 89.4457 46.0481 90.2351 46.2103C91.0208 46.3716 91.4259 47.8135 91.1413 49.4284Z" fill="#D0C9CC"/>
<path d="M48.2629 60.3922L52.1526 58.6232L59.8421 59.5766L61.3356 62.4286L55.5256 65.0658L48.1669 63.1971L48.2629 60.3922Z" fill="#CC293D"/>
<path d="M50.0247 58.0034L54.5106 56.2625L60.5643 57.1959L59.8421 59.5766L55.5256 61.4154L50.1271 60.1593L50.0247 58.0034Z" fill="#D8D4D5"/>
<path d="M47.9585 61.5441L48.05 62.9053L55.426 64.6453V63.2632L47.9585 61.5441ZM50.0247 58.0034L55.426 59.2712L55.5257 61.4154L50.1272 60.1593L50.0247 58.0034Z" fill="#D0C9CC"/>
<path d="M55.4259 59.2712L60.5643 57.1959L59.8421 59.5766L55.5256 61.4154L55.4259 59.2712Z" fill="#A5A2A3"/>
<path d="M63.6638 43.7109C63.6638 43.7109 63.72 39.8131 67.3912 39.7007C67.3912 39.7007 70.7525 39.447 70.1589 43.5713C69.5689 47.6948 69.597 43.9375 69.4258 43.9674C69.2554 43.9945 64.6806 44.4477 64.6806 44.4477L63.6638 43.7109Z" fill="#2E3192"/>
<path d="M63.7453 42.6034C63.7453 42.6034 64.0272 41.9337 65.3286 41.9618C65.3286 41.9618 68.7959 41.9618 69.0097 42.781C69.0097 42.781 69.4647 44.1377 63.894 43.883C63.8949 43.883 63.3013 43.5423 63.7453 42.6034Z" fill="#939598"/>
<path d="M91.1776 37.1478L89.0116 36.8741L82.5863 39.863L84.9398 40.3261L91.1776 37.1478Z" fill="#BE1E2D"/>
<path d="M62.5808 44.4812L59.9771 44.0761C59.9771 44.0761 47.1356 47.0069 40.1855 55.078C40.1855 55.078 40.3532 55.4568 40.8897 55.8673C48.5829 47.5652 59.3301 45.0694 62.5808 44.4812Z" fill="#CC293D"/>
<path d="M43.1163 56.7364C44.1939 56.9141 45.6466 56.9086 47.5914 56.5207C47.5914 56.5207 61.4117 47.1411 69.568 45.5642L66.4903 45.0839C54.0303 47.1293 45.5106 54.4527 43.12 56.7355" fill="#CC293D"/>
<path d="M62.5808 44.4812C59.3301 45.0694 48.5829 47.5652 40.8888 55.8673C41.3356 56.2054 42.0415 56.5651 43.1154 56.741C45.5098 54.4581 54.0267 47.1347 66.4858 45.0893L62.5808 44.4812Z" fill="white"/>
<path d="M76.7953 38.5452L80.6858 36.2026L83.8912 36.4609L79.0881 39.0799L76.7953 38.5452Z" fill="#CC293D"/>
<path d="M61.3356 53.0298C61.3356 53.0298 60.0768 54.3847 60.0161 55.9733L64.7295 56.9602C64.7295 56.9602 65.2017 54.9891 66.4858 53.8174L61.3356 53.0298ZM84.0798 44.425C84.0798 44.425 82.995 45.5968 82.9415 46.967L87.0097 47.8207C87.0097 47.8207 87.4193 46.1179 88.5258 45.1065L84.0798 44.425ZM39.0917 48.5638C38.9703 48.5747 37.7042 50.1181 37.7042 50.7379L41.4072 51.5699C41.4072 51.5699 42.1503 49.5915 42.8925 49.0994L39.0917 48.5638Z" fill="#939598"/>
</g>
<defs>
<filter id="filter0_d_154_372" x="0.331299" y="0.682373" width="126.321" height="132.249" filterUnits="userSpaceOnUse" color-interpolation-filters="sRGB">
<feFlood flood-opacity="0" result="BackgroundImageFix"/>
<feColorMatrix in="SourceAlpha" type="matrix" values="0 0 0 0 0 0 0 0 0 0 0 0 0 0 0 0 0 0 127 0" result="hardAlpha"/>
<feOffset dy="16"/>
<feGaussianBlur stdDeviation="16"/>
<feComposite in2="hardAlpha" operator="out"/>
<feColorMatrix type="matrix" values="0 0 0 0 0.210031 0 0 0 0 0.0633751 0 0 0 0 0.65 0 0 0 0.4 0"/>
<feBlend mode="normal" in2="BackgroundImageFix" result="effect1_dropShadow_154_372"/>
<feBlend mode="normal" in="SourceGraphic" in2="effect1_dropShadow_154_372" result="shape"/>
</filter>
<clipPath id="clip0_154_372">
<rect width="58" height="58" fill="white" transform="translate(34.4916 21.8068)"/>
</clipPath>
</defs>
</svg>
