<svg width="41" height="25" viewBox="0 0 41 25" fill="none" xmlns="http://www.w3.org/2000/svg">
<line x1="0.5" y1="23.2098" x2="0.499999" y2="1.20978" stroke="#ABABAB"/>
<path d="M38 4.70978H20C19.6022 4.70978 19.2206 4.86781 18.9393 5.14912C18.658 5.43042 18.5 5.81195 18.5 6.20978V18.2098C18.5 18.6076 18.658 18.9891 18.9393 19.2704C19.2206 19.5517 19.6022 19.7098 20 19.7098H38C38.3978 19.7098 38.7794 19.5517 39.0607 19.2704C39.342 18.9891 39.5 18.6076 39.5 18.2098V6.20978C39.5 5.81195 39.342 5.43042 39.0607 5.14912C38.7794 4.86781 38.3978 4.70978 38 4.70978ZM36.35 6.20978L29 11.2948L21.65 6.20978H36.35ZM20 18.2098V6.89228L28.5725 12.8248C28.698 12.9119 28.8472 12.9585 29 12.9585C29.1528 12.9585 29.302 12.9119 29.4275 12.8248L38 6.89228V18.2098H20Z" fill="#280A82"/>
</svg>
