<svg width="127" height="133" viewBox="0 0 127 133" fill="none" xmlns="http://www.w3.org/2000/svg">
<g filter="url(#filter0_d_154_428)">
<path d="M57.4533 18.2901C61.1661 16.1465 65.7405 16.1465 69.4533 18.2901L88.6136 29.3523C92.3264 31.4959 94.6136 35.4574 94.6136 39.7446V61.8691C94.6136 66.1563 92.3264 70.1178 88.6136 72.2614L69.4533 83.3236C65.7405 85.4672 61.1661 85.4672 57.4533 83.3236L38.2929 72.2614C34.5801 70.1178 32.2929 66.1563 32.2929 61.8691V39.7446C32.2929 35.4574 34.5801 31.4959 38.2929 29.3523L57.4533 18.2901Z" fill="#10CCCC"/>
<path d="M57.7033 18.7231C61.2614 16.6688 65.6452 16.6688 69.2033 18.7231L88.3636 29.7853C91.9217 31.8396 94.1136 35.6361 94.1136 39.7446V61.8691C94.1136 65.9776 91.9217 69.7741 88.3636 71.8284L69.2033 82.8906C65.6452 84.9449 61.2614 84.9449 57.7033 82.8906L38.5429 71.8284C34.9848 69.7741 32.7929 65.9776 32.7929 61.8691V39.7446C32.7929 35.6361 34.9848 31.8396 38.5429 29.7853L57.7033 18.7231Z" stroke="white"/>
</g>
<path d="M53.5214 33.7444C53.5214 33.3963 53.6596 33.0624 53.9058 32.8163C54.1519 32.5702 54.4858 32.4319 54.8339 32.4319H70.5839C70.932 32.4319 71.2658 32.5702 71.5119 32.8163C71.7581 33.0624 71.8964 33.3963 71.8964 33.7444V39.3251C69.2207 37.3987 66.0059 36.3645 62.7089 36.3694C59.2806 36.3694 56.107 37.4653 53.5214 39.3251V33.7444ZM62.7089 65.2444C66.1371 65.2444 69.3107 64.1484 71.8964 62.2886V67.8694C71.8964 68.2175 71.7581 68.5513 71.5119 68.7975C71.2658 69.0436 70.932 69.1819 70.5839 69.1819H54.8339C54.4858 69.1819 54.1519 69.0436 53.9058 68.7975C53.6596 68.5513 53.5214 68.2175 53.5214 67.8694V62.2886C56.1971 64.2151 59.4118 65.2493 62.7089 65.2444ZM77.1464 48.1819C76.7983 48.1819 76.4644 48.3202 76.2183 48.5663C75.9721 48.8124 75.8339 49.1463 75.8339 49.4944V52.1194C75.8339 52.4675 75.9721 52.8013 76.2183 53.0475C76.4644 53.2936 76.7983 53.4319 77.1464 53.4319H79.1151C79.4632 53.4319 79.797 53.2936 80.0432 53.0475C80.2893 52.8013 80.4276 52.4675 80.4276 52.1194V49.4944C80.4276 49.1463 80.2893 48.8124 80.0432 48.5663C79.797 48.3202 79.4632 48.1819 79.1151 48.1819H77.1464Z" fill="#3F5FFF"/>
<path d="M78.4589 50.8069C78.4589 59.5048 71.4068 66.5569 62.7089 66.5569C54.0109 66.5569 46.9589 59.5048 46.9589 50.8069C46.9589 42.1089 54.0109 35.0569 62.7089 35.0569C71.4068 35.0569 78.4589 42.1089 78.4589 50.8069Z" fill="#A4AEEB"/>
<path d="M74.5214 50.8069C74.5214 53.9398 73.2768 56.9443 71.0616 59.1596C68.8463 61.3749 65.8417 62.6194 62.7089 62.6194C59.576 62.6194 56.5714 61.3749 54.3562 59.1596C52.1409 56.9443 50.8964 53.9398 50.8964 50.8069C50.8964 47.674 52.1409 44.6695 54.3562 42.4542C56.5714 40.2389 59.576 38.9944 62.7089 38.9944C65.8417 38.9944 68.8463 40.2389 71.0616 42.4542C73.2768 44.6695 74.5214 47.674 74.5214 50.8069Z" fill="#5235A6"/>
<path d="M62.7089 40.3069C62.3608 40.3069 62.0269 40.4452 61.7808 40.6913C61.5347 40.9374 61.3964 41.2713 61.3964 41.6194V49.4944C61.3964 49.77 61.4817 50.0273 61.6287 50.2399L57.3408 55.0187C57.2256 55.1471 57.1369 55.2969 57.0797 55.4596C57.0224 55.6223 56.9978 55.7947 57.0072 55.9669C57.0166 56.1391 57.0598 56.3078 57.1344 56.4633C57.2089 56.6188 57.3134 56.7581 57.4418 56.8733C57.5702 56.9884 57.7201 57.0771 57.8827 57.1343C58.0454 57.1916 58.2178 57.2162 58.39 57.2068C58.5622 57.1974 58.7309 57.1542 58.8864 57.0797C59.0419 57.0051 59.1812 56.9006 59.2964 56.7722L63.6775 51.8871C63.875 51.6666 63.9922 51.3859 64.0101 51.0905C64.028 50.795 63.9454 50.5022 63.7759 50.2596C63.9357 50.0364 64.0216 49.7688 64.0214 49.4944V41.6194C64.0214 41.2713 63.8831 40.9374 63.637 40.6913C63.3908 40.4452 63.057 40.3069 62.7089 40.3069Z" fill="white"/>
<path d="M65.3339 50.8069C65.3339 51.5031 65.0573 52.1708 64.565 52.663C64.0727 53.1553 63.4051 53.4319 62.7089 53.4319C62.0127 53.4319 61.345 53.1553 60.8527 52.663C60.3604 52.1708 60.0839 51.5031 60.0839 50.8069C60.0839 50.1107 60.3604 49.443 60.8527 48.9507C61.345 48.4584 62.0127 48.1819 62.7089 48.1819C63.4051 48.1819 64.0727 48.4584 64.565 48.9507C65.0573 49.443 65.3339 50.1107 65.3339 50.8069Z" fill="#FCD53F"/>
<defs>
<filter id="filter0_d_154_428" x="0.292969" y="0.682373" width="126.321" height="132.249" filterUnits="userSpaceOnUse" color-interpolation-filters="sRGB">
<feFlood flood-opacity="0" result="BackgroundImageFix"/>
<feColorMatrix in="SourceAlpha" type="matrix" values="0 0 0 0 0 0 0 0 0 0 0 0 0 0 0 0 0 0 127 0" result="hardAlpha"/>
<feOffset dy="16"/>
<feGaussianBlur stdDeviation="16"/>
<feComposite in2="hardAlpha" operator="out"/>
<feColorMatrix type="matrix" values="0 0 0 0 0.210031 0 0 0 0 0.0633751 0 0 0 0 0.65 0 0 0 0.4 0"/>
<feBlend mode="normal" in2="BackgroundImageFix" result="effect1_dropShadow_154_428"/>
<feBlend mode="normal" in="SourceGraphic" in2="effect1_dropShadow_154_428" result="shape"/>
</filter>
</defs>
</svg>
