<svg width="127" height="133" viewBox="0 0 127 133" fill="none" xmlns="http://www.w3.org/2000/svg">
<g filter="url(#filter0_d_154_342)">
<path d="M57.5299 18.2901C61.2427 16.1465 65.8171 16.1465 69.5299 18.2901L88.6903 29.3523C92.4031 31.4959 94.6903 35.4574 94.6903 39.7446V61.8691C94.6903 66.1563 92.4031 70.1178 88.6903 72.2614L69.5299 83.3236C65.8171 85.4672 61.2427 85.4672 57.5299 83.3236L38.3696 72.2614C34.6568 70.1178 32.3696 66.1563 32.3696 61.8691V39.7446C32.3696 35.4574 34.6568 31.4959 38.3696 29.3523L57.5299 18.2901Z" fill="#10CCCC"/>
<path d="M57.7799 18.7231C61.338 16.6688 65.7218 16.6688 69.2799 18.7231L88.4403 29.7853C91.9984 31.8396 94.1903 35.6361 94.1903 39.7446V61.8691C94.1903 65.9776 91.9984 69.7741 88.4403 71.8284L69.2799 82.8906C65.7218 84.9449 61.338 84.9449 57.7799 82.8906L38.6196 71.8284C35.0615 69.7741 32.8696 65.9776 32.8696 61.8691V39.7446C32.8696 35.6361 35.0615 31.8396 38.6196 29.7853L57.7799 18.7231Z" stroke="white"/>
</g>
<path d="M81.2585 63.3806L66.2501 70.1662C65.3247 70.6026 64.3601 70.56 63.4741 70.0481L44.5282 60.4275C43.9868 60.0796 43.826 59.571 43.8588 59.2167C43.8916 58.8623 43.9736 58.4784 44.9252 58.2028L46.3296 57.6843L65.3346 68.0432L78.8402 62.5242L81.2585 63.3806Z" fill="#01579B"/>
<path d="M66.0695 69.0801C65.6943 69.2562 65.2824 69.3403 64.8681 69.3255C64.4539 69.3106 64.0491 69.1973 63.6874 68.9948L45.191 59.6761C44.9285 59.5317 44.8497 59.2003 45.0072 58.9443C45.4141 58.2717 46.1622 56.1454 44.9285 54.3801L65.8169 64.4372L66.0695 69.0801Z" fill="#F5F5F5"/>
<path d="M80.4579 62.6127L66.0696 69.0801C65.5938 69.2868 64.6455 69.6543 63.5529 68.9193C64.4158 68.9816 65.0229 68.624 65.3346 68.0432C65.6397 67.4788 65.5479 66.5535 65.1771 66.0318C64.9507 65.7168 64.3436 65.2148 64.0779 64.9326L79.6408 58.8459C81.0189 58.2782 82.3118 59.128 82.5185 60.1616C82.7482 61.3298 81.2585 62.2846 80.4579 62.6127Z" fill="#94C6D6"/>
<path d="M81.1764 58.3406L66.3222 64.9687C65.3871 65.3395 64.3403 65.2903 63.4446 64.8375L44.4658 55.1971C44.2821 55.1053 44.0097 54.8526 43.9014 54.5081C43.7242 53.9339 43.9474 53.212 44.62 52.9823L65.1869 63.4659L79.27 57.4382L81.1764 58.3406Z" fill="#01579B"/>
<path d="M82.2954 59.302L80.6777 58.7146L77.344 58.9082L66.3255 63.8268C65.3904 64.1976 64.3437 64.1484 63.4479 63.6956L44.4659 54.0585C43.9769 53.8092 44.0819 53.084 44.6201 52.9823L58.2996 46.8627C58.6901 46.7906 59.0904 46.8332 59.4546 46.9874L78.9748 56.2931C78.9748 56.2931 82.0755 58.416 82.2954 59.302Z" fill="#0091EA"/>
<path d="M77.1569 59.0034C77.1569 59.0034 79.211 58.1995 80.8254 58.2717C82.4398 58.3439 83.0009 59.4759 83.0009 59.4759C82.6957 58.0879 81.2618 57.3792 81.2618 57.3792L59.9337 46.6397C59.786 46.5773 59.2413 46.4493 58.4046 46.7939C57.7287 47.0728 55.5204 48.1064 55.5204 48.1064L77.1569 59.0034Z" fill="#616161"/>
<path d="M83.0927 59.7384C82.9384 59.1248 82.5578 58.4685 81.8556 58.1502C80.9303 57.7335 79.6113 57.8418 78.768 58.2815L77.1569 58.9968V60.1321L79.1945 59.2265C81.1764 58.3438 82.0558 59.6662 82.1313 59.9779C82.4463 61.2477 81.8359 61.9827 80.0345 62.8096L77.1077 64.1287V65.2705L80.4742 63.771C81.9639 63.1738 83.6636 62.0516 83.0927 59.7384Z" fill="#424242"/>
<path d="M53.3613 59.4398L47.6946 51.6075L48.5838 51.2104L54.9593 59.9714L53.3613 59.4398ZM60.6293 63.0492L59.6186 62.2486L77.1569 58.6687V59.2429L74.6993 60.1748L60.6293 63.0492Z" fill="#01579B"/>
<path d="M47.3861 44.9596L69.5378 41.2584L79.2142 51.9126C79.7031 52.4277 79.4374 53.2809 78.7417 53.422L55.8714 58.1141L47.3861 44.9596Z" fill="#9CCC65"/>
<path d="M78.7418 52.5032L56.029 57.1035L55.9568 58.1863L78.7418 53.5138C79.3849 53.3793 79.654 52.6443 79.3029 52.1259C79.1782 52.3096 78.9879 52.454 78.7418 52.5032ZM79.9657 57.4677C80.2052 57.8484 79.9887 58.3504 79.549 58.439L58.6408 62.6784C57.3841 62.9376 56.1504 62.114 56.0388 60.8343C55.9437 59.7515 56.6754 58.7704 57.7418 58.5473L77.8493 54.0323L79.9657 57.4677Z" fill="#689F38"/>
<path d="M60.7704 56.0896L52.4426 44.1721L47.6913 45.4288C46.5921 46.5215 47.0023 48.3163 47.0023 48.3163C47.0023 48.3163 54.2768 59.991 55.4252 61.484C56.5737 62.977 58.2504 62.744 58.2504 62.744L61.0821 62.1731L60.7868 56.8902L60.7704 56.0896Z" fill="#616161"/>
<path d="M60.7704 56.1684L56.7705 56.9952C55.6779 57.2413 55.481 58.2684 55.481 58.2684L45.8243 44.4313C45.8243 44.4313 44.4494 46.0949 45.3616 47.5091L55.4252 61.484C56.5244 63.0491 58.2504 62.7571 58.2504 62.7571L61.0821 62.1862L60.7901 57.0084L60.7704 56.1684Z" fill="#424242"/>
<path d="M78.7057 57.0412C78.8074 57.2643 78.6762 57.5236 78.4366 57.5728L58.444 61.6743C57.1873 61.9336 56.298 61.1001 56.344 59.9648C56.403 58.5309 57.207 57.9239 58.2701 57.704L78.3612 53.5992C78.3612 53.5992 77.6787 54.367 78.2004 55.8042C78.3776 56.2997 78.5679 56.7393 78.7057 57.0412Z" fill="#B9E4EA"/>
<path d="M57.3645 57.2709L48.7971 45.15" stroke="#424242" stroke-width="0.258875" stroke-miterlimit="10"/>
<path d="M58.0371 52.1029L47.0186 46.551L46.5724 47.4304L59.3036 53.9174L58.0371 52.1029Z" fill="#424242"/>
<path d="M78.2266 50.8167L77.4195 49.9307L65.0065 55.627L58.0371 52.1784L59.2249 53.8781L63.8416 56.2373L67.2804 55.709L78.2266 50.8167Z" fill="#689F38"/>
<path d="M81.2552 48.6248L66.2501 55.4104C65.3247 55.8468 64.3601 55.8041 63.4741 55.2923L44.5282 45.6716C43.9868 45.3238 43.826 44.8152 43.8588 44.4609C43.8916 44.1065 43.9736 43.7226 44.9252 43.447L45.8144 43.1188L65.2788 52.6706L81.0846 46.131L81.2552 48.6248Z" fill="#C62828"/>
<path d="M66.0664 54.3243C65.6911 54.5004 65.2792 54.5845 64.865 54.5697C64.4507 54.5548 64.0459 54.4415 63.6842 54.239L45.1878 44.9203C44.9253 44.7759 44.8465 44.4445 45.004 44.1885C45.4109 43.5159 46.159 41.3896 44.9253 39.6243L65.3478 50.0128L66.0664 54.3243Z" fill="#F5F5F5"/>
<path d="M80.4546 47.857L66.0663 54.3243C65.5905 54.5311 64.6422 54.8986 63.5496 54.1636C64.4125 54.2259 65.0196 53.8682 65.3313 53.2875C65.6364 52.7231 65.5446 51.7978 65.1738 51.2761C64.9474 50.9611 64.3403 50.459 64.0746 50.1768L79.6375 44.0901C81.0157 43.5225 82.3085 44.3723 82.5152 45.4059C82.7449 46.574 81.2552 47.5289 80.4546 47.857Z" fill="#94C6D6"/>
<path d="M81.1765 43.5848L66.3223 50.2129C65.3871 50.5837 64.3404 50.5345 63.4446 50.0817L44.4626 40.4414C44.2657 40.3429 43.9704 40.0903 43.8752 39.7326C43.7341 39.2011 43.9179 38.5022 44.6168 38.2265L62.0107 34.5417L81.1765 43.5848Z" fill="#C62828"/>
<path d="M82.2921 44.5462L80.6744 43.9589L77.3407 44.1525L66.3222 49.0711C65.3871 49.4419 64.3404 49.3926 63.4446 48.9398L44.4625 39.2995C43.9736 39.0501 44.1475 38.3906 44.6168 38.2233L58.2996 32.107C58.69 32.0348 59.0904 32.0775 59.4546 32.2317L78.9747 41.5373C78.9747 41.5373 82.0722 43.657 82.2921 44.5462Z" fill="#F44336"/>
<path d="M77.157 44.2443C77.157 44.2443 78.8665 43.6438 80.4809 43.716C82.0952 43.7882 83.0042 44.7168 83.0042 44.7168C82.6727 43.2337 81.2651 42.6201 81.2651 42.6201L59.937 31.8806C59.7893 31.8182 59.2446 31.6902 58.4079 32.0348C57.732 32.3137 55.5237 33.3473 55.5237 33.3473L77.157 44.2443Z" fill="#616161"/>
<path d="M79.1092 43.5421L57.2856 32.5335L58.0075 32.2087L80.2019 43.3321L79.1092 43.5421Z" fill="#424242"/>
<path d="M83.0895 44.9826C82.9353 44.369 82.6761 43.7751 81.9443 43.4667C81.0092 43.0729 80.1561 42.9909 78.7648 43.5258L77.1537 44.2411V45.3764L79.1914 44.4708C80.225 43.9851 81.7475 44.0901 82.1281 45.2222C82.5448 46.4625 81.8328 47.227 80.0314 48.0539L77.1045 49.3729V50.5148L80.4711 49.0153C81.964 48.4181 83.6637 47.2959 83.0895 44.9826Z" fill="#424242"/>
<defs>
<filter id="filter0_d_154_342" x="0.369629" y="0.682373" width="126.321" height="132.249" filterUnits="userSpaceOnUse" color-interpolation-filters="sRGB">
<feFlood flood-opacity="0" result="BackgroundImageFix"/>
<feColorMatrix in="SourceAlpha" type="matrix" values="0 0 0 0 0 0 0 0 0 0 0 0 0 0 0 0 0 0 127 0" result="hardAlpha"/>
<feOffset dy="16"/>
<feGaussianBlur stdDeviation="16"/>
<feComposite in2="hardAlpha" operator="out"/>
<feColorMatrix type="matrix" values="0 0 0 0 0.210031 0 0 0 0 0.0633751 0 0 0 0 0.65 0 0 0 0.4 0"/>
<feBlend mode="normal" in2="BackgroundImageFix" result="effect1_dropShadow_154_342"/>
<feBlend mode="normal" in="SourceGraphic" in2="effect1_dropShadow_154_342" result="shape"/>
</filter>
</defs>
</svg>
