<svg width="127" height="133" viewBox="0 0 127 133" fill="none" xmlns="http://www.w3.org/2000/svg">
<g filter="url(#filter0_d_154_290)">
<path d="M57.5698 18.2901C61.2827 16.1465 65.857 16.1465 69.5699 18.2901L88.7302 29.3523C92.443 31.4959 94.7302 35.4574 94.7302 39.7446V61.8691C94.7302 66.1563 92.443 70.1178 88.7302 72.2614L69.5699 83.3236C65.857 85.4672 61.2827 85.4672 57.5699 83.3236L38.4095 72.2614C34.6967 70.1178 32.4095 66.1563 32.4095 61.8691V39.7446C32.4095 35.4574 34.6967 31.4959 38.4095 29.3523L57.5698 18.2901Z" fill="#10CCCC"/>
<path d="M57.8198 18.7231C61.378 16.6688 65.7617 16.6688 69.3199 18.7231L88.4802 29.7853C92.0383 31.8396 94.2302 35.6361 94.2302 39.7446V61.8691C94.2302 65.9776 92.0383 69.7741 88.4802 71.8284L69.3199 82.8906C65.7617 84.9449 61.378 84.9449 57.8199 82.8906L38.6595 71.8284C35.1014 69.7741 32.9095 65.9776 32.9095 61.8691V39.7446C32.9095 35.6361 35.1014 31.8396 38.6595 29.7853L57.8198 18.7231Z" stroke="white"/>
</g>
<path d="M75.0205 56.0076C74.6104 55.2628 75.1321 54.5048 76.0246 53.5664C77.4388 52.0767 78.9777 48.6215 77.5471 45.1139C77.5569 45.0942 77.2649 44.5036 77.2747 44.4839L76.6874 44.4544C76.5004 44.4281 70.0396 44.415 63.5722 44.415C57.1049 44.415 50.6441 44.4281 50.4571 44.4544C50.4571 44.4544 49.5876 45.0942 49.5941 45.1139C48.1668 48.6215 49.7024 52.0734 51.1166 53.5664C52.0058 54.5048 52.5276 55.2628 52.1207 56.0076C51.7236 56.7328 51.1986 56.8378 51.1986 56.8378C51.1986 56.8378 50.8147 57.5794 51.471 57.9797C52.078 58.3504 52.8261 58.4358 53.3413 58.4489C53.3413 58.4489 55.3593 61.2412 60.6355 61.2412H66.509C71.7852 61.2412 73.8032 58.4489 73.8032 58.4489C74.3183 58.4358 75.0665 58.3504 75.6735 57.9797C76.3297 57.5794 76.6021 56.8378 76.6021 56.8378C76.6021 56.8378 75.4176 56.7328 75.0205 56.0076Z" fill="#AB872F"/>
<path d="M63.5657 61.2379V58.1404L72.9402 57.3989L73.7933 58.4489C73.7933 58.4489 71.7754 61.2412 66.4991 61.2412L63.5657 61.2379Z" fill="url(#paint0_radial_154_290)"/>
<path d="M73.7736 57.0937C72.3693 54.9609 75.4832 54.1636 75.4832 54.1636L75.4864 54.1669C74.945 54.8395 74.6989 55.4269 75.0172 56.0076C75.4143 56.7328 76.5955 56.8378 76.5955 56.8378C76.5955 56.8378 74.9844 58.2684 73.7736 57.0937Z" fill="url(#paint1_radial_154_290)"/>
<path d="M77.5537 45.1139C78.9482 48.5099 77.4815 52.0078 76.1066 53.4843C75.9196 53.6878 75.119 54.472 74.9352 55.0987C74.9352 55.0987 71.8049 50.7314 70.8698 48.1654C70.6827 47.647 70.5088 47.1154 70.4859 46.5642C70.4695 46.1507 70.5318 45.6585 70.7713 45.3074C71.0634 44.8776 77.3863 44.7496 77.3863 44.7496C77.3863 44.7529 77.5537 45.1139 77.5537 45.1139Z" fill="url(#paint2_radial_154_290)"/>
<path d="M49.5909 45.1138C48.1996 48.5099 49.6664 52.0077 51.0379 53.481C51.2282 53.6845 52.0256 54.4687 52.2093 55.0954C52.2093 55.0954 55.3396 50.7281 56.2748 48.1621C56.4651 47.6437 56.6357 47.1121 56.6587 46.5609C56.6751 46.1474 56.6128 45.6552 56.3732 45.3042C56.0812 44.8743 55.7399 44.9892 55.2445 44.9892C54.2995 44.9892 50.1618 44.7463 49.8403 44.7463C49.8435 44.7529 49.5909 45.1138 49.5909 45.1138Z" fill="url(#paint3_radial_154_290)"/>
<path d="M63.5789 61.2379V58.1404L54.2043 57.3989L53.3512 58.4489C53.3512 58.4489 55.3692 61.2412 60.6454 61.2412L63.5789 61.2379Z" fill="url(#paint4_radial_154_290)"/>
<path d="M53.3708 57.0937C54.7752 54.9609 51.6613 54.1636 51.6613 54.1636L51.658 54.1669C52.1994 54.8395 52.4455 55.4269 52.1272 56.0076C51.7302 56.7328 51.2052 56.8378 51.2052 56.8378C51.2052 56.8378 52.16 58.2684 53.3708 57.0937Z" fill="url(#paint5_radial_154_290)"/>
<path d="M79.378 70.4746V69.0604C79.378 64.6504 71.5817 62.5307 63.8938 62.5406C56.255 62.5471 48.4095 64.3912 48.4095 69.0604V70.4746H79.378Z" fill="black"/>
<path d="M63.5689 59.3643H60.5895V62.639C60.5895 64.1189 61.8036 65.3198 63.2999 65.3198H63.8413C65.3375 65.3198 66.5516 64.1189 66.5516 62.639V59.3643H63.5689ZM72.5366 46.3542H54.6013C52.6686 46.3542 51.087 48.0407 51.087 50.0981C51.087 52.1554 52.6686 53.842 54.6013 53.842H72.5333C74.4659 53.842 76.0475 52.1554 76.0475 50.0981C76.0475 48.0407 74.4692 46.3542 72.5366 46.3542Z" fill="#C48E6A"/>
<path d="M63.5689 33.4391C57.8596 33.4391 52.5702 39.5456 52.5702 48.336C52.5702 57.0773 58.0203 61.3987 63.5689 61.3987C69.1175 61.3987 74.5677 57.074 74.5677 48.3327C74.5677 39.5456 69.2783 33.4391 63.5689 33.4391Z" fill="#E0BB95"/>
<path d="M56.6061 43.4437L66.7157 38.9583L61.6921 45.5536L65.0029 44.8579L55.0804 56.805L55.6972 51.8011L53.2002 52.8248L56.6061 43.4437Z" fill="url(#paint6_linear_154_290)"/>
<path d="M58.1745 50.7773C59.0679 50.7773 59.7922 50.0281 59.7922 49.1039C59.7922 48.1796 59.0679 47.4304 58.1745 47.4304C57.2811 47.4304 56.5569 48.1796 56.5569 49.1039C56.5569 50.0281 57.2811 50.7773 58.1745 50.7773Z" fill="#5D4037"/>
<path d="M68.9632 50.7773C69.8566 50.7773 70.5809 50.0281 70.5809 49.1039C70.5809 48.1796 69.8566 47.4304 68.9632 47.4304C68.0698 47.4304 67.3456 48.1796 67.3456 49.1039C67.3456 50.0281 68.0698 50.7773 68.9632 50.7773Z" fill="#5D4037"/>
<path d="M60.6126 46.3181C60.3074 45.9145 59.6052 45.3304 58.2402 45.3304C56.8752 45.3304 56.1698 45.9178 55.8679 46.3181C55.7334 46.4953 55.7662 46.702 55.8613 46.8267C55.9466 46.9415 56.2026 47.0498 56.4848 46.9547C56.767 46.8595 57.3182 46.574 58.2402 46.5675C59.1623 46.574 59.7135 46.8595 59.9957 46.9547C60.2779 47.0498 60.5338 46.9448 60.6191 46.8267C60.711 46.702 60.7438 46.4953 60.6126 46.3181ZM71.2734 46.3181C70.9682 45.9145 70.266 45.3304 68.901 45.3304C67.536 45.3304 66.8305 45.9178 66.5287 46.3181C66.3941 46.4953 66.427 46.702 66.5221 46.8267C66.6074 46.9415 66.8634 47.0498 67.1455 46.9547C67.4277 46.8595 67.979 46.574 68.901 46.5675C69.823 46.574 70.3743 46.8595 70.6565 46.9547C70.9387 47.0498 71.1946 46.9448 71.2799 46.8267C71.3751 46.702 71.4079 46.4953 71.2734 46.3181Z" fill="#AB872F"/>
<path d="M64.8355 52.139C64.7994 52.1259 64.7666 52.1161 64.7305 52.1128H62.4074C62.3713 52.1161 62.3352 52.1259 62.3024 52.139C62.0924 52.2244 61.9775 52.4409 62.076 52.6739C62.1744 52.9069 62.6371 53.5565 63.5689 53.5565C64.5008 53.5565 64.9635 52.9036 65.0619 52.6739C65.1603 52.4409 65.0455 52.2244 64.8355 52.139Z" fill="#C48E6A"/>
<path d="M66.3318 54.7903C65.2884 55.4104 61.8595 55.4104 60.816 54.7903C60.2156 54.4326 59.602 54.9806 59.8513 55.5253C60.0974 56.0601 61.9645 57.3037 63.5821 57.3037C65.1998 57.3037 67.0438 56.0601 67.2899 55.5253C67.536 54.9806 66.9323 54.4326 66.3318 54.7903Z" fill="#6D4C41"/>
<path d="M79.9227 58.2881L79.9523 58.2848C80.5167 58.3439 81.0252 57.9993 81.0909 57.5104L81.3632 55.5351C81.4288 55.0462 81.022 54.6 80.4609 54.5409C79.8965 54.4818 79.3879 54.8264 79.3223 55.3153L79.0499 57.2906C78.9843 57.7795 79.3584 58.229 79.9227 58.2881Z" fill="url(#paint7_linear_154_290)"/>
<path d="M79.3781 62.639C77.7473 62.6882 75.9557 62.3404 75.4143 60.6899C75.1256 59.8073 75.1977 58.9017 75.3815 58.0551C75.5849 57.1167 75.6013 56.6409 75.5357 55.8993C75.4898 55.3546 75.1452 51.1021 75.1452 51.1021C75.1452 51.1021 74.9352 50.3277 75.6309 50.1046C76.3954 49.8126 76.6776 50.6559 76.6776 50.6559L77.5045 56.5096L81.1073 56.9198C81.1073 56.9198 81.2484 56.6868 81.3271 56.1027C81.3632 55.8534 81.3173 55.3907 81.3566 55.0954C81.5437 53.7304 81.7734 52.0799 81.7963 51.9421C81.8357 51.7059 82.0916 51.3581 82.5806 51.427C83.0727 51.4926 83.2007 51.8568 83.1777 52.0931C83.1548 52.3326 82.9776 54.2456 82.9776 54.2456C82.9251 55.1643 82.8726 56.1782 82.9579 57.0937L83.0268 57.8287C83.1384 59.0132 82.9645 60.2568 82.4493 61.1821C81.921 62.1501 81.0088 62.5898 79.3781 62.639Z" fill="url(#paint8_linear_154_290)"/>
<path d="M78.2034 58.3603C78.7711 58.3734 79.2501 57.9862 79.2764 57.494L79.3879 55.2267C79.4109 54.7345 78.9745 54.3243 78.4068 54.3079C77.8392 54.2948 77.3601 54.682 77.3339 55.1742L77.2223 57.4415C77.1961 57.937 77.6357 58.3472 78.2034 58.3603Z" fill="url(#paint9_linear_154_290)"/>
<path d="M79.9227 56.9723C79.2894 56.8608 78.5052 56.7197 77.7538 56.6803C77.6488 56.6737 77.5438 56.6704 77.4388 56.6672C76.4512 56.6508 75.7326 57.202 75.3749 58.439C75.3618 58.4784 75.3519 58.5178 75.3388 58.5604C75.3191 58.6326 75.2994 58.7114 75.283 58.7967V58.8065C75.2601 58.9181 75.2371 59.0329 75.2207 59.1576C75.1583 59.5678 75.1977 59.9615 75.2929 60.2798C75.5521 61.4151 76.3494 61.9533 76.3494 61.9533C76.3494 61.9533 78.4133 62.9869 78.8858 61.9533C79.3583 60.9197 78.6726 59.4759 78.6726 59.4759L77.7144 58.9083C77.9146 58.6622 78.2066 58.5572 78.7808 58.59C78.9613 58.5998 79.1812 58.6228 79.4502 58.649C79.4765 58.6523 79.8046 58.6884 79.8276 58.6884C80.1918 58.7081 80.4773 58.5965 80.7004 58.3472C80.9891 58.0223 80.953 57.4711 80.976 57.2086C80.7135 57.1823 80.2705 57.0347 79.9227 56.9723Z" fill="url(#paint10_linear_154_290)"/>
<path d="M60.4124 70.4746L60.1269 63.3904C59.008 63.8531 57.8793 64.0795 56.6947 64.0795C54.7588 64.0795 53.0591 63.456 51.6974 62.954C50.7655 62.6127 49.9583 62.3141 49.3513 62.3141C48.6097 62.3141 48.3079 62.9606 48.3079 64.5487V70.4746H60.4124Z" fill="url(#paint11_linear_154_290)"/>
<path d="M79.2534 70.4746V64.5487C79.2534 62.9638 78.9515 62.3141 78.2099 62.3141C77.6095 62.3141 76.7695 62.6029 75.8015 62.9409C74.3545 63.4429 72.5531 64.0663 70.5384 64.0663C69.3177 64.0663 68.1693 63.8432 67.0471 63.3871L67.0865 70.4746H79.2534Z" fill="url(#paint12_linear_154_290)"/>
<path d="M61.5839 70.4746L61.0129 66.5568L50.1553 68.5978L51.5039 70.4746H61.5839Z" fill="url(#paint13_linear_154_290)"/>
<path d="M55.566 70.4746H61.5608L60.5896 61.6054L50.8771 63.9679L55.0836 69.7823L55.566 70.4746Z" fill="url(#paint14_linear_154_290)"/>
<path d="M75.6604 70.4746L76.9795 68.6371L65.9742 66.5568L65.436 70.4746H75.6604Z" fill="url(#paint15_linear_154_290)"/>
<path d="M71.1388 70.4746L71.9723 69.277L76.1788 63.4626L66.5484 61.6054L65.459 70.4746H71.1388Z" fill="url(#paint16_linear_154_290)"/>
<path d="M82.5117 70.4746L82.4625 61.9434L75.0107 61.9696L75.014 70.4746H82.5117Z" fill="url(#paint17_linear_154_290)"/>
<path d="M75.2797 66.5765C76.0246 66.5765 76.6283 65.9727 76.6283 65.2279C76.6283 64.4831 76.0246 63.8793 75.2797 63.8793C74.5349 63.8793 73.9312 64.4831 73.9312 65.2279C73.9312 65.9727 74.5349 66.5765 75.2797 66.5765Z" fill="#E6E7E8"/>
<path d="M78.7612 66.5667C79.506 66.5667 80.1098 65.9629 80.1098 65.2181C80.1098 64.4733 79.506 63.8695 78.7612 63.8695C78.0164 63.8695 77.4126 64.4733 77.4126 65.2181C77.4126 65.9629 78.0164 66.5667 78.7612 66.5667Z" fill="#FF3D00"/>
<path d="M82.2392 66.5535C82.984 66.5535 83.5878 65.9497 83.5878 65.2049C83.5878 64.4601 82.984 63.8563 82.2392 63.8563C81.4944 63.8563 80.8906 64.4601 80.8906 65.2049C80.8906 65.9497 81.4944 66.5535 82.2392 66.5535Z" fill="#808285"/>
<path d="M53.7942 58.649L46.3392 61.7301L46.2276 61.5136C46.2046 61.5333 46.1817 61.5529 46.1521 61.5694L45.742 61.8089V70.4747H44.7149V62.3995C44.5777 62.4614 44.422 62.4684 44.2798 62.419C44.1376 62.3696 44.0198 62.2676 43.9504 62.134C43.8811 62.0004 43.8656 61.8453 43.9071 61.7006C43.9486 61.5559 44.0439 61.4326 44.1735 61.3561L45.5582 60.5489C45.6074 60.5194 45.6599 60.5029 45.7124 60.4898L45.5057 60.0764L52.4587 55.8994C52.4456 56.0208 52.4423 56.1422 52.4456 56.2669C52.4608 56.7434 52.5915 57.2091 52.8264 57.6241C53.0613 58.039 53.3934 58.3907 53.7942 58.649Z" fill="#5D5F61"/>
<path d="M56.5733 58.3045C56.5011 58.3406 56.4289 58.3734 56.3535 58.3997C56.2124 58.4554 56.068 58.4981 55.9236 58.5243C55.4314 58.6162 54.9294 58.5572 54.4832 58.3636L54.1813 58.4883C53.7695 58.275 53.422 57.9559 53.1746 57.5637C52.9272 57.1715 52.7888 56.7205 52.7736 56.257C52.7671 56.0634 52.7835 55.8698 52.8196 55.6861L53.0624 55.5384C53.1739 55.0659 53.4233 54.6262 53.7875 54.2948C53.8958 54.1865 54.0107 54.0979 54.1386 54.0192C54.2075 53.9733 54.2797 53.9306 54.3552 53.8945C55.5758 53.2809 57.0589 53.7731 57.6693 54.9904C58.2829 56.2078 57.7939 57.6909 56.5733 58.3045Z" fill="#5D5F61"/>
<path opacity="0.3" d="M48.3112 66.7274H82.5116V70.4746H48.3112V66.7274Z" fill="url(#paint18_linear_154_290)"/>
<path d="M76.717 38.0461C75.9163 36.8353 74.1215 35.2111 72.5104 35.1028C72.2512 33.554 70.5942 32.2415 68.9896 31.7329C64.6485 30.3581 61.8234 31.9003 60.3074 32.7272C59.9924 32.8978 57.9548 34.0298 56.5307 33.2193C55.6382 32.7107 55.6546 31.3359 55.6546 31.3359C55.6546 31.3359 52.859 32.4023 53.8138 35.3718C52.8524 35.4112 51.5924 35.8181 50.9263 37.1667C50.1323 38.7745 50.4145 40.1165 50.6442 40.7597C49.8173 41.4618 48.7771 42.9548 49.4892 44.894C50.0273 46.3542 52.1699 47.0268 52.1699 47.0268C52.019 49.6551 52.5079 51.2728 52.7671 51.9257C52.8131 52.0406 52.9738 52.0307 53.0034 51.9126C53.3282 50.61 54.4373 46.072 54.3257 45.2812C54.3257 45.2812 58.0499 44.5429 61.6002 41.9278C62.3221 41.3962 63.1063 40.9434 63.9398 40.612C68.399 38.8368 69.3309 41.8654 69.3309 41.8654C69.3309 41.8654 72.4218 41.2715 73.3537 45.5634C73.7048 47.1712 73.941 49.747 74.1412 51.5484C74.1543 51.6764 74.3282 51.7026 74.3774 51.5845C74.6892 50.8692 75.3126 49.4517 75.4602 48.0047C75.5127 47.4961 76.8843 46.8234 77.4749 44.6381C78.2657 41.7243 77.2978 38.9222 76.717 38.0461Z" fill="#AB872F"/>
<path d="M75.4537 48.0178C75.5062 47.5092 76.8778 46.8365 77.4684 44.6512C77.5307 44.4183 77.5832 44.182 77.6324 43.9457C78.1115 41.2912 77.2518 38.8532 76.717 38.0461C75.9754 36.9272 74.3873 35.4572 72.8812 35.1553C72.7499 35.1389 72.622 35.1225 72.5006 35.1159C72.5006 35.1159 72.6088 35.8214 72.3234 36.3825C71.9559 37.1109 71.2045 37.2848 71.2045 37.2848C75.1321 41.2157 74.8532 44.5036 75.4537 48.0178Z" fill="url(#paint19_radial_154_290)"/>
<path d="M61.2557 32.2317C60.8947 32.4056 60.5797 32.5795 60.3041 32.7272C59.9891 32.8978 57.9515 34.0298 56.5274 33.2193C55.6513 32.7206 55.6513 31.3884 55.6513 31.3425C55.2477 31.8576 54.0271 35.5359 57.5971 35.782C59.136 35.887 60.0843 34.545 60.6486 33.4097C60.8521 32.9962 61.1704 32.3925 61.2557 32.2317Z" fill="url(#paint20_radial_154_290)"/>
<path d="M68.5433 31.6017C70.9452 32.2514 72.1166 33.4753 72.5071 35.1061C72.6219 35.5851 72.7597 40.0542 64.2285 34.9748C61.0555 33.0848 61.9218 31.9036 62.2926 31.769C63.7429 31.244 65.8527 30.8732 68.5433 31.6017Z" fill="url(#paint21_radial_154_290)"/>
<path d="M55.6414 31.3424C55.6381 31.3457 55.6316 31.3457 55.6217 31.3523H55.6185C55.3133 31.4803 52.9147 32.5926 53.8105 35.3718L56.3633 35.782C54.1025 33.4917 55.6513 31.3359 55.6513 31.3359C55.6513 31.3359 55.6447 31.3392 55.6414 31.3424Z" fill="url(#paint22_radial_154_290)"/>
<path d="M55.3888 35.6245L53.8105 35.3718C53.7482 35.3718 53.5382 35.3915 53.4233 35.4079C52.5341 35.5326 51.4874 35.992 50.9197 37.1667C50.3094 38.4332 50.3258 39.5193 50.4932 40.2445C50.5424 40.4873 50.6408 40.7629 50.6408 40.7629C50.6408 40.7629 51.4218 40.0214 53.2822 39.9721L55.3888 35.6245Z" fill="url(#paint23_radial_154_290)"/>
<path d="M50.5653 40.8252C49.7877 41.5143 48.741 43.0532 49.5121 44.9629C50.0928 46.4034 52.1666 47.0268 52.1666 47.0268C52.1666 47.0334 52.58 47.158 52.7933 47.158L53.2789 39.9721C52.2847 39.9721 51.3299 40.2707 50.713 40.7005C50.7228 40.7104 50.5621 40.8154 50.5653 40.8252Z" fill="url(#paint24_radial_154_290)"/>
<path d="M55.3888 58.7868C56.8331 58.7868 58.004 57.616 58.004 56.1717C58.004 54.7274 56.8331 53.5565 55.3888 53.5565C53.9445 53.5565 52.7737 54.7274 52.7737 56.1717C52.7737 57.616 53.9445 58.7868 55.3888 58.7868Z" fill="#434444"/>
<path d="M54.1813 58.4882L53.7941 58.649C53.0099 58.1437 52.4816 57.2742 52.4455 56.2668C52.4422 56.1421 52.4455 56.0207 52.4586 55.8993L52.8196 55.686C52.7827 55.874 52.7673 56.0655 52.7736 56.257C52.8065 57.2348 53.3708 58.0682 54.1813 58.4882Z" fill="#727475"/>
<path d="M56.5865 58.498C56.4487 58.5702 56.3043 58.626 56.1566 58.672L56.1533 58.6687C56.0254 58.5998 55.8941 58.5112 55.7629 58.4029C55.3035 58.0321 54.8605 57.4743 54.5029 56.8213C54.4733 56.7655 54.4405 56.7098 54.4143 56.654C53.9254 55.7024 53.7219 54.764 53.7974 54.088C53.9155 53.9962 54.0435 53.9174 54.178 53.8452C54.4766 53.6877 54.8146 53.5926 55.169 53.563L55.3035 53.5532C55.4577 53.5466 55.6119 53.5565 55.7629 53.5795C56.9966 53.7534 57.9646 54.7935 58.004 56.083C58.0214 56.5414 57.9148 56.996 57.6955 57.3988C57.6037 57.5793 57.4855 57.7466 57.351 57.8943C57.1377 58.1432 56.8781 58.3483 56.5865 58.498Z" fill="#434444"/>
<path d="M55.9729 58.1535C55.5102 57.7827 55.0607 57.1987 54.7129 56.5096C54.1419 55.3907 54.0074 54.3899 54.1846 53.8518C54.0501 53.9207 53.9221 54.0027 53.804 54.0946C53.7285 54.7673 53.9352 55.7057 54.4208 56.6606C54.4471 56.7163 54.4799 56.7754 54.5094 56.8279C54.8671 57.4809 55.3101 58.0387 55.7694 58.4095C55.904 58.5145 56.0352 58.6063 56.1599 58.6752L56.1632 58.6785C56.3108 58.6326 56.4552 58.5768 56.593 58.5046C56.3994 58.4456 56.1927 58.3274 55.9729 58.1535Z" fill="#5D5F61"/>
<path d="M81.3468 55.2627C81.2877 55.7057 80.9038 56.9723 80.9038 56.9723C80.4116 56.7721 79.9621 56.631 79.5519 56.5326C79.5126 56.2406 79.4174 55.5318 79.3813 55.1085C79.2993 55.4563 79.086 56.152 79.0007 56.4243C78.4166 56.3324 77.9244 56.339 77.5143 56.4046C77.488 56.1782 77.3896 55.3973 77.3371 55.1741C77.2977 55.371 77.2649 55.8009 77.2255 56.001C77.1894 56.1848 77.1435 56.3849 77.1205 56.4866C76.6907 56.6048 76.3757 56.7852 76.1493 56.9559C75.9754 57.074 75.8244 57.2151 75.7162 57.3956L75.6833 57.4448C75.9983 57.1593 76.4348 57.0018 76.8416 56.9034C77.9605 56.6343 79.4207 56.736 80.474 57.202C80.9071 57.3956 80.9924 57.727 80.7069 58.0977C80.2902 58.6457 79.5749 58.3963 79.0007 58.3471C78.5019 58.3045 77.6751 58.3668 77.5274 58.9804C78.643 59.1543 79.0401 60.3782 79.0105 61.3724C79.424 60.4537 79.1549 59.4595 78.1673 58.8131C78.8005 58.4652 80.894 59.4791 81.209 57.8648C81.3468 57.1396 81.3665 55.604 81.3468 55.2627Z" fill="#BA8F63"/>
<defs>
<filter id="filter0_d_154_290" x="0.409546" y="0.682373" width="126.321" height="132.249" filterUnits="userSpaceOnUse" color-interpolation-filters="sRGB">
<feFlood flood-opacity="0" result="BackgroundImageFix"/>
<feColorMatrix in="SourceAlpha" type="matrix" values="0 0 0 0 0 0 0 0 0 0 0 0 0 0 0 0 0 0 127 0" result="hardAlpha"/>
<feOffset dy="16"/>
<feGaussianBlur stdDeviation="16"/>
<feComposite in2="hardAlpha" operator="out"/>
<feColorMatrix type="matrix" values="0 0 0 0 0.210031 0 0 0 0 0.0633751 0 0 0 0 0.65 0 0 0 0.4 0"/>
<feBlend mode="normal" in2="BackgroundImageFix" result="effect1_dropShadow_154_290"/>
<feBlend mode="normal" in="SourceGraphic" in2="effect1_dropShadow_154_290" result="shape"/>
</filter>
<radialGradient id="paint0_radial_154_290" cx="0" cy="0" r="1" gradientUnits="userSpaceOnUse" gradientTransform="translate(68.354 56.7625) scale(7.68436 3.77456)">
<stop offset="0.728" stop-color="#BFA055" stop-opacity="0"/>
<stop offset="1" stop-color="#BFA055"/>
</radialGradient>
<radialGradient id="paint1_radial_154_290" cx="0" cy="0" r="1" gradientUnits="userSpaceOnUse" gradientTransform="translate(75.9231 55.619) rotate(154.924) scale(2.27084 1.68464)">
<stop offset="0.663" stop-color="#BFA055"/>
<stop offset="1" stop-color="#BFA055" stop-opacity="0"/>
</radialGradient>
<radialGradient id="paint2_radial_154_290" cx="0" cy="0" r="1" gradientUnits="userSpaceOnUse" gradientTransform="translate(70.0379 49.1962) rotate(-94.2783) scale(9.97454 8.31313)">
<stop offset="0.725" stop-color="#BFA055" stop-opacity="0"/>
<stop offset="1" stop-color="#BFA055"/>
</radialGradient>
<radialGradient id="paint3_radial_154_290" cx="0" cy="0" r="1" gradientUnits="userSpaceOnUse" gradientTransform="translate(57.1077 49.196) rotate(-85.7217) scale(9.97454 8.31313)">
<stop offset="0.725" stop-color="#BFA055" stop-opacity="0"/>
<stop offset="1" stop-color="#BFA055"/>
</radialGradient>
<radialGradient id="paint4_radial_154_290" cx="0" cy="0" r="1" gradientUnits="userSpaceOnUse" gradientTransform="translate(58.7912 56.7625) rotate(180) scale(7.68436 3.77456)">
<stop offset="0.728" stop-color="#BFA055" stop-opacity="0"/>
<stop offset="1" stop-color="#BFA055"/>
</radialGradient>
<radialGradient id="paint5_radial_154_290" cx="0" cy="0" r="1" gradientUnits="userSpaceOnUse" gradientTransform="translate(51.7401 55.619) rotate(25.0761) scale(1.99031 1.47652)">
<stop offset="0.663" stop-color="#BFA055"/>
<stop offset="1" stop-color="#BFA055" stop-opacity="0"/>
</radialGradient>
<linearGradient id="paint6_linear_154_290" x1="59.9579" y1="41.9206" x2="59.9579" y2="53.7557" gradientUnits="userSpaceOnUse">
<stop stop-color="#FF6D00"/>
<stop offset="0.263" stop-color="#FD6900"/>
<stop offset="0.502" stop-color="#F75E00"/>
<stop offset="0.733" stop-color="#EE4C00"/>
<stop offset="0.957" stop-color="#E03200"/>
<stop offset="1" stop-color="#DD2C00"/>
</linearGradient>
<linearGradient id="paint7_linear_154_290" x1="79.0427" y1="56.4135" x2="81.3721" y2="56.4135" gradientUnits="userSpaceOnUse">
<stop offset="0.5" stop-color="#E0BB95"/>
<stop offset="1" stop-color="#CCA47A"/>
</linearGradient>
<linearGradient id="paint8_linear_154_290" x1="75.117" y1="56.3439" x2="83.1856" y2="56.3439" gradientUnits="userSpaceOnUse">
<stop offset="0.5" stop-color="#E0BB95"/>
<stop offset="1" stop-color="#CCA47A"/>
</linearGradient>
<linearGradient id="paint9_linear_154_290" x1="77.1972" y1="56.3519" x2="79.4174" y2="56.302" gradientUnits="userSpaceOnUse">
<stop offset="0.5" stop-color="#E0BB95"/>
<stop offset="1" stop-color="#CCA47A"/>
</linearGradient>
<linearGradient id="paint10_linear_154_290" x1="78.2171" y1="57.3411" x2="77.5609" y2="62.3926" gradientUnits="userSpaceOnUse">
<stop offset="0.5" stop-color="#E0BB95"/>
<stop offset="1" stop-color="#CCA47A"/>
</linearGradient>
<linearGradient id="paint11_linear_154_290" x1="54.3618" y1="63.4764" x2="54.3618" y2="71.9092" gradientUnits="userSpaceOnUse">
<stop offset="0.004" stop-color="#666666"/>
<stop offset="0.012" stop-color="#656565"/>
<stop offset="0.274" stop-color="#484747"/>
<stop offset="0.53" stop-color="#343131"/>
<stop offset="0.776" stop-color="#272324"/>
<stop offset="1" stop-color="#231F20"/>
</linearGradient>
<linearGradient id="paint12_linear_154_290" x1="73.1512" y1="63.4764" x2="73.1512" y2="71.9092" gradientUnits="userSpaceOnUse">
<stop offset="0.004" stop-color="#666666"/>
<stop offset="0.012" stop-color="#656565"/>
<stop offset="0.274" stop-color="#484747"/>
<stop offset="0.53" stop-color="#343131"/>
<stop offset="0.776" stop-color="#272324"/>
<stop offset="1" stop-color="#231F20"/>
</linearGradient>
<linearGradient id="paint13_linear_154_290" x1="55.8686" y1="67.3223" x2="55.8686" y2="71.8098" gradientUnits="userSpaceOnUse">
<stop offset="0.004" stop-color="#666666"/>
<stop offset="0.266" stop-color="#717273"/>
<stop offset="0.649" stop-color="#7C7E81"/>
<stop offset="1" stop-color="#808285"/>
</linearGradient>
<linearGradient id="paint14_linear_154_290" x1="56.2186" y1="62.346" x2="56.2186" y2="71.3701" gradientUnits="userSpaceOnUse">
<stop stop-color="#FF6D00"/>
<stop offset="0.263" stop-color="#FD6900"/>
<stop offset="0.502" stop-color="#F75E00"/>
<stop offset="0.733" stop-color="#EE4C00"/>
<stop offset="0.957" stop-color="#E03200"/>
<stop offset="1" stop-color="#DD2C00"/>
</linearGradient>
<linearGradient id="paint15_linear_154_290" x1="71.2084" y1="67.3223" x2="71.2084" y2="71.8098" gradientUnits="userSpaceOnUse">
<stop offset="0.004" stop-color="#666666"/>
<stop offset="0.266" stop-color="#717273"/>
<stop offset="0.649" stop-color="#7C7E81"/>
<stop offset="1" stop-color="#808285"/>
</linearGradient>
<linearGradient id="paint16_linear_154_290" x1="70.8202" y1="62.346" x2="70.8202" y2="71.3701" gradientUnits="userSpaceOnUse">
<stop stop-color="#FF6D00"/>
<stop offset="0.263" stop-color="#FD6900"/>
<stop offset="0.502" stop-color="#F75E00"/>
<stop offset="0.733" stop-color="#EE4C00"/>
<stop offset="0.957" stop-color="#E03200"/>
<stop offset="1" stop-color="#DD2C00"/>
</linearGradient>
<linearGradient id="paint17_linear_154_290" x1="78.7602" y1="61.969" x2="78.7602" y2="74.5706" gradientUnits="userSpaceOnUse">
<stop offset="0.004" stop-color="#666666"/>
<stop offset="0.631" stop-color="#393637"/>
<stop offset="1" stop-color="#231F20"/>
</linearGradient>
<linearGradient id="paint18_linear_154_290" x1="65.4111" y1="65.1905" x2="65.4111" y2="70.5701" gradientUnits="userSpaceOnUse">
<stop offset="0.207" stop-color="#212121" stop-opacity="0"/>
<stop offset="1" stop-color="#BFBEBE"/>
</linearGradient>
<radialGradient id="paint19_radial_154_290" cx="0" cy="0" r="1" gradientUnits="userSpaceOnUse" gradientTransform="translate(69.4808 43.9331) rotate(72.0851) scale(11.6919 8.67511)">
<stop offset="0.699" stop-color="#BFA055" stop-opacity="0"/>
<stop offset="1" stop-color="#BFA055"/>
</radialGradient>
<radialGradient id="paint20_radial_154_290" cx="0" cy="0" r="1" gradientUnits="userSpaceOnUse" gradientTransform="translate(58.083 31.1855) rotate(28.2026) scale(3.06573 3.63507)">
<stop offset="0.58" stop-color="#BFA055"/>
<stop offset="1" stop-color="#BFA055" stop-opacity="0"/>
</radialGradient>
<radialGradient id="paint21_radial_154_290" cx="0" cy="0" r="1" gradientUnits="userSpaceOnUse" gradientTransform="translate(64.9345 36.753) rotate(-157.19) scale(9.58767 5.38831)">
<stop offset="0.699" stop-color="#BFA055" stop-opacity="0"/>
<stop offset="1" stop-color="#BFA055"/>
</radialGradient>
<radialGradient id="paint22_radial_154_290" cx="0" cy="0" r="1" gradientUnits="userSpaceOnUse" gradientTransform="translate(56.8519 33.9822) scale(2.81367 3.44196)">
<stop offset="0.702" stop-color="#BFA055" stop-opacity="0"/>
<stop offset="1" stop-color="#BFA055"/>
</radialGradient>
<radialGradient id="paint23_radial_154_290" cx="0" cy="0" r="1" gradientUnits="userSpaceOnUse" gradientTransform="translate(56.4643 38.9488) rotate(-164.942) scale(5.27743 4.93871)">
<stop offset="0.66" stop-color="#BFA055" stop-opacity="0"/>
<stop offset="1" stop-color="#BFA055"/>
</radialGradient>
<radialGradient id="paint24_radial_154_290" cx="0" cy="0" r="1" gradientUnits="userSpaceOnUse" gradientTransform="translate(55.2136 44.0444) rotate(7.83355) scale(5.5409 7.78587)">
<stop offset="0.598" stop-color="#BFA055" stop-opacity="0"/>
<stop offset="1" stop-color="#BFA055"/>
</radialGradient>
</defs>
</svg>
