<svg width="22" height="23" viewBox="0 0 22 23" fill="none" xmlns="http://www.w3.org/2000/svg">
<g clip-path="url(#clip0_154_655)">
<path d="M0.916626 18.7723C0.916626 17.4352 1.4478 16.1528 2.3933 15.2073C3.33879 14.2618 4.62116 13.7307 5.95829 13.7307H16.0416C17.3788 13.7307 18.6611 14.2618 19.6066 15.2073C20.5521 16.1528 21.0833 17.4352 21.0833 18.7723C21.0833 19.4409 20.8177 20.0821 20.345 20.5548C19.8722 21.0276 19.231 21.2932 18.5625 21.2932H3.43746C2.76889 21.2932 2.12771 21.0276 1.65496 20.5548C1.18221 20.0821 0.916626 19.4409 0.916626 18.7723Z" stroke="#280A82" stroke-width="1.5" stroke-linejoin="round"/>
<path d="M11 8.68896C13.0883 8.68896 14.7812 6.99604 14.7812 4.90771C14.7812 2.81939 13.0883 1.12646 11 1.12646C8.91167 1.12646 7.21875 2.81939 7.21875 4.90771C7.21875 6.99604 8.91167 8.68896 11 8.68896Z" stroke="#280A82" stroke-width="1.5"/>
</g>
<defs>
<clipPath id="clip0_154_655">
<rect width="22" height="22" fill="white" transform="translate(0 0.209778)"/>
</clipPath>
</defs>
</svg>
