<svg width="116" height="138" viewBox="0 0 116 138" fill="none" xmlns="http://www.w3.org/2000/svg">
<g filter="url(#filter0_d_154_439)">
<path d="M63.4133 59.7968H52.1525C52.1525 57.4706 52.3094 55.422 52.6233 53.651C52.9634 51.8535 53.5388 50.241 54.3497 48.8136C55.1606 47.3862 56.2592 46.0645 57.6456 44.8486C58.875 43.8176 59.9344 42.8264 60.8237 41.8748C61.7131 40.9232 62.3932 39.9583 62.864 38.9803C63.3349 38.0022 63.5703 36.9581 63.5703 35.8479C63.5703 34.4733 63.3741 33.3499 62.9817 32.4776C62.6155 31.6053 62.0532 30.9577 61.2946 30.5347C60.5622 30.0853 59.6336 29.8607 58.5088 29.8607C57.5933 29.8607 56.7301 30.0853 55.9192 30.5347C55.1344 30.9841 54.4936 31.6846 53.9966 32.6362C53.4996 33.5614 53.2249 34.7905 53.1726 36.3237H39.8715C39.9499 32.3851 40.8131 29.1866 42.4611 26.7283C44.1352 24.2435 46.3586 22.4328 49.1313 21.2961C51.9301 20.1331 55.056 19.5515 58.5088 19.5515C62.3278 19.5515 65.6106 20.1463 68.3571 21.3358C71.1037 22.5253 73.2094 24.2964 74.6742 26.649C76.139 28.9751 76.8715 31.8432 76.8715 35.2531C76.8715 37.5264 76.4399 39.5089 75.5767 41.2007C74.7396 42.866 73.6018 44.4256 72.1631 45.8795C70.7506 47.3069 69.168 48.84 67.4155 50.4789C65.8983 51.8271 64.8651 53.2016 64.3158 54.6026C63.7665 55.9771 63.4657 57.7085 63.4133 59.7968ZM50.5438 71.8506C50.5438 69.9473 51.2239 68.3613 52.5841 67.0925C53.9443 65.7973 55.7099 65.1496 57.881 65.1496C60.0521 65.1496 61.8177 65.7973 63.1779 67.0925C64.5381 68.3613 65.2182 69.9473 65.2182 71.8506C65.2182 73.7538 64.5381 75.353 63.1779 76.6483C61.8177 77.9171 60.0521 78.5515 57.881 78.5515C55.7099 78.5515 53.9443 77.9171 52.5841 76.6483C51.2239 75.353 50.5438 73.7538 50.5438 71.8506Z" fill="#35CDE2"/>
</g>
<path d="M60.0388 60.2848L60.9233 60.2952L60.9561 59.4113C61.0312 57.388 61.3445 55.7735 61.8615 54.5356L61.8637 54.5301C62.366 53.3048 63.322 52.0514 64.8014 50.7812L64.8101 50.7737L64.8187 50.766C66.6189 49.1391 68.2476 47.6143 69.7039 46.1919C71.238 44.6936 72.4677 43.0702 73.383 41.3205C74.3556 39.4865 74.8401 37.3594 74.8684 34.9668C74.9102 31.4207 74.1758 28.3609 72.6112 25.836C71.0519 23.2926 68.7934 21.3771 65.8752 20.0855C62.9705 18.7998 59.5273 18.1499 55.5719 18.1032C51.9761 18.0608 48.6865 18.6215 45.716 19.8019C42.7315 20.9722 40.3164 22.8715 38.4899 25.4873L38.4887 25.489C36.6639 28.1154 35.7222 31.4944 35.5925 35.5573L35.5629 36.4825L36.4885 36.4935L49.9512 36.6524L50.8276 36.6627L50.8682 35.7872C50.9355 34.3332 51.2103 33.2588 51.6316 32.504L51.6317 32.504L51.6368 32.4946C52.0822 31.6743 52.623 31.1205 53.2428 30.7774C53.934 30.4101 54.6582 30.2338 55.4286 30.2429C56.4517 30.255 57.2135 30.4665 57.771 30.814L57.7869 30.824L57.8033 30.8333C58.3745 31.1573 58.8063 31.648 59.0963 32.3547L59.1007 32.3653L59.1053 32.3759C59.4224 33.0959 59.5996 34.0829 59.5843 35.3822C59.5728 36.3596 59.3537 37.2669 58.9285 38.1153C58.4891 38.9921 57.8481 39.8765 56.9881 40.7658C56.1073 41.6766 55.0517 42.6321 53.8174 43.632L53.8095 43.6383L53.8019 43.6448C52.3166 44.9035 51.1195 46.2901 50.2242 47.8079C49.3301 49.3238 48.6953 51.0284 48.3121 52.9123L48.312 52.9123L48.31 52.9227C47.9589 54.7582 47.7727 56.8636 47.7447 59.2324L47.734 60.1395L48.6412 60.1502L60.0388 60.2848ZM60.2194 76.9266L60.2195 76.9267L60.2263 76.9204C61.8039 75.4686 62.6155 73.6366 62.641 71.4826C62.6664 69.3298 61.8986 67.4897 60.3515 66.0259C58.7974 64.5281 56.7843 63.7938 54.3974 63.7656C52.0104 63.7374 49.9806 64.424 48.3916 65.8847C46.8104 67.3116 45.9994 69.1331 45.974 71.2859C45.9485 73.4399 46.7167 75.2905 48.2596 76.7791L48.2595 76.7792L48.2663 76.7856C49.822 78.2559 51.834 78.9748 54.2175 79.0029C56.6011 79.031 58.6295 78.3599 60.2194 76.9266Z" stroke="white" stroke-width="1.81447"/>
<defs>
<filter id="filter0_d_154_439" x="0.81086" y="0.0212135" width="115.121" height="137.121" filterUnits="userSpaceOnUse" color-interpolation-filters="sRGB">
<feFlood flood-opacity="0" result="BackgroundImageFix"/>
<feColorMatrix in="SourceAlpha" type="matrix" values="0 0 0 0 0 0 0 0 0 0 0 0 0 0 0 0 0 0 127 0" result="hardAlpha"/>
<feOffset dy="19.5303"/>
<feGaussianBlur stdDeviation="19.5303"/>
<feComposite in2="hardAlpha" operator="out"/>
<feColorMatrix type="matrix" values="0 0 0 0 0.210031 0 0 0 0 0.0633751 0 0 0 0 0.65 0 0 0 0.4 0"/>
<feBlend mode="normal" in2="BackgroundImageFix" result="effect1_dropShadow_154_439"/>
<feBlend mode="normal" in="SourceGraphic" in2="effect1_dropShadow_154_439" result="shape"/>
</filter>
</defs>
</svg>
