<svg width="22" height="19" viewBox="0 0 22 19" fill="none" xmlns="http://www.w3.org/2000/svg">
<path d="M12.8698 2.16962C13.2448 1.83662 13.5658 1.66962 13.9358 1.66962C14.6338 1.66962 15.1578 2.26362 16.2048 3.45162L18.7788 6.37362C20.1718 7.95362 20.8678 8.74362 20.8678 9.66962C20.8678 10.5956 20.1718 11.3846 18.7788 12.9656L16.2038 15.8876C15.1578 17.0756 14.6348 17.6696 13.9368 17.6696C13.5668 17.6696 13.2468 17.5026 12.8708 17.1696" stroke="#939598" stroke-width="1.5" stroke-linecap="round" stroke-linejoin="round"/>
<path d="M5.8678 3.10962C6.7298 2.14962 7.2218 1.66962 7.8568 1.66962C8.5628 1.66962 9.0918 2.26362 10.1508 3.45162L12.7558 6.37362C14.1628 7.95362 14.8678 8.74362 14.8678 9.66962C14.8678 10.5956 14.1638 11.3846 12.7558 12.9656L10.1508 15.8876C9.0918 17.0756 8.5628 17.6696 7.8578 17.6696C7.2228 17.6696 6.7308 17.1896 5.8688 16.2296M4.3678 13.1696V6.16962M0.867798 9.66962H7.8678" stroke="#939598" stroke-width="1.5" stroke-linecap="round" stroke-linejoin="round"/>
</svg>
