<svg width="157" height="128" viewBox="0 0 157 128" fill="none" xmlns="http://www.w3.org/2000/svg">
<path d="M156.277 64.1677C116.65 71.8976 121.293 127.826 78.1385 127.826C34.9838 127.826 47.4412 64.1677 0 64.1677C0 29.0102 34.9838 0.50943 78.1385 0.50943C121.293 0.50943 156.277 29.0102 156.277 64.1677Z" fill="url(#paint0_linear_154_281)"/>
<circle cx="78.5997" cy="69.2904" r="30.5997" fill="white"/>
<path d="M91.2051 65.5119V65.6055C91.2051 66.7081 91.2051 67.2607 90.9397 67.7119C90.6743 68.1632 90.191 68.4312 89.2269 68.9684L88.2102 69.5325C88.9102 67.1632 89.1449 64.6171 89.2308 62.4401L89.2436 62.1568L89.2461 62.0901C90.0808 62.3799 90.55 62.5966 90.8423 63.0017C91.2051 63.5055 91.2051 64.1748 91.2051 65.5119ZM65.5641 65.5119V65.6055C65.5641 66.7081 65.5641 67.2607 65.8295 67.7119C66.0949 68.1632 66.5782 68.4312 67.5423 68.9684L68.5602 69.5325C67.859 67.1632 67.6243 64.6171 67.5384 62.4401L67.5256 62.1568L67.5243 62.0901C66.6884 62.3799 66.2192 62.5966 65.9269 63.0017C65.5641 63.5055 65.5641 64.176 65.5641 65.5119Z" fill="#35CDE2"/>
<path fill-rule="evenodd" clip-rule="evenodd" d="M78.3847 57.612C80.6718 57.612 82.5552 57.8133 83.9962 58.0569C85.4564 58.303 86.1859 58.4261 86.7962 59.1774C87.4064 59.9287 87.3731 60.7402 87.309 62.3633C87.0885 67.9389 85.8859 74.9017 79.3462 75.5171V80.0479H81.1795C81.4758 80.0481 81.7629 80.1509 81.9919 80.3388C82.221 80.5267 82.3779 80.7881 82.4359 81.0787L82.6795 82.2915H86.077C86.332 82.2915 86.5765 82.3928 86.7569 82.5731C86.9372 82.7534 87.0385 82.998 87.0385 83.253C87.0385 83.508 86.9372 83.7526 86.7569 83.9329C86.5765 84.1132 86.332 84.2146 86.077 84.2146H70.6923C70.4373 84.2146 70.1928 84.1132 70.0124 83.9329C69.8321 83.7526 69.7308 83.508 69.7308 83.253C69.7308 82.998 69.8321 82.7534 70.0124 82.5731C70.1928 82.3928 70.4373 82.2915 70.6923 82.2915H74.0898L74.3334 81.0787C74.3914 80.7881 74.5483 80.5267 74.7774 80.3388C75.0064 80.1509 75.2935 80.0481 75.5898 80.0479H77.4231V75.5171C70.8847 74.9017 69.6821 67.9376 69.4616 62.3633C69.3962 60.7402 69.3641 59.9274 69.9744 59.1774C70.5834 58.4261 71.3129 58.303 72.7731 58.0569C74.628 57.753 76.505 57.6042 78.3847 57.612ZM79.6052 62.9953L79.4795 62.7697C78.9923 61.894 78.7488 61.4581 78.3847 61.4581C78.0205 61.4581 77.777 61.894 77.2898 62.7697L77.1641 62.9953C77.0257 63.244 76.9564 63.3671 76.8488 63.4492C76.7398 63.5312 76.6052 63.562 76.3359 63.6222L76.0923 63.6787C75.1462 63.8928 74.6731 63.9992 74.5603 64.3607C74.4475 64.7222 74.7705 65.1004 75.4154 65.8543L75.5821 66.0492C75.7654 66.2633 75.8577 66.3697 75.8988 66.503C75.9398 66.6363 75.9257 66.7787 75.8988 67.0646L75.8731 67.3248C75.7757 68.3312 75.727 68.8351 76.0205 69.0581C76.3154 69.2812 76.759 69.0774 77.6449 68.6697L77.8731 68.5645C78.1257 68.4492 78.2513 68.3915 78.3847 68.3915C78.518 68.3915 78.6436 68.4492 78.8962 68.5645L79.1244 68.6697C80.0103 69.0787 80.4539 69.2812 80.7488 69.0581C81.0436 68.8351 80.9936 68.3312 80.8962 67.3248L80.8706 67.0646C80.8436 66.7787 80.8295 66.6363 80.8706 66.503C80.9116 66.3697 81.0039 66.2633 81.1872 66.0492L81.3539 65.8543C81.9988 65.1004 82.3218 64.7235 82.209 64.3607C82.0962 63.9992 81.6231 63.8928 80.677 63.6787L80.4334 63.6222C80.1641 63.562 80.0295 63.5325 79.9205 63.4492C79.8129 63.3671 79.7436 63.244 79.6052 62.9953Z" fill="#35CDE2"/>
<defs>
<linearGradient id="paint0_linear_154_281" x1="156" y1="64.5094" x2="-6.50001" y2="58.5094" gradientUnits="userSpaceOnUse">
<stop stop-color="#855CFF"/>
<stop offset="1" stop-color="#8860FF"/>
</linearGradient>
</defs>
</svg>
