<svg width="40" height="31" viewBox="0 0 40 31" fill="none" xmlns="http://www.w3.org/2000/svg">
<rect y="0.209778" width="40" height="30" rx="8" fill="#DADADA"/>
<path d="M35.5 14.2098L33.485 17.2098L31.5 14.2098H35.5Z" fill="#1C7C8B"/>
<g clip-path="url(#clip0_154_664)">
<path d="M16 3.95978C14.0125 3.95978 12.175 4.48478 10.5625 5.34728V25.0348C12.175 25.9348 14.0125 26.4598 16 26.4598C22.225 26.4598 27.25 21.4348 27.25 15.2098C27.25 8.98478 22.225 3.95978 16 3.95978Z" fill="#C94747"/>
<path d="M16 3.95978C14.0125 3.95978 12.175 4.48478 10.5625 5.34728V25.0348C12.175 25.9348 14.0125 26.4598 16 26.4598C22.225 26.4598 27.25 21.4348 27.25 15.2098C27.25 8.98478 22.225 3.95978 16 3.95978Z" fill="#C94747"/>
<path opacity="0.33" d="M16 3.95978C14.0125 3.95978 12.175 4.48478 10.5625 5.34728V25.0348C12.175 25.9348 14.0125 26.4598 16 26.4598C22.225 26.4598 27.25 21.4348 27.25 15.2098C27.25 8.98478 22.225 3.95978 16 3.95978Z" fill="#9450E0"/>
<path opacity="0.33" d="M16 3.95978C14.0125 3.95978 12.175 4.48478 10.5625 5.34728V25.0348C12.175 25.9348 14.0125 26.4598 16 26.4598C22.225 26.4598 27.25 21.4348 27.25 15.2098C27.25 8.98478 22.225 3.95978 16 3.95978Z" fill="#B84A79"/>
<path d="M4.75 15.2098C4.75 19.4473 7.1125 23.1223 10.5625 25.0723L14.5 24.2098L10.75 23.0848L14.5 21.9598L10.75 20.8348L14.5 19.7098L10.75 18.5848L14.5 17.4598L10.75 16.3348L14.5 15.2098L10.75 14.0848L14.5 12.9598L10.75 11.8348L14.5 10.7098L10.75 9.58479L14.5 8.45979L10.75 7.33479L14.5 6.20979L10.5625 5.34729C7.1125 7.29729 4.75 10.9723 4.75 15.2098Z" fill="#F9F9F9"/>
<path d="M4.75 15.2098C4.75 19.4473 7.1125 23.1223 10.5625 25.0723L14.5 24.2098L10.75 23.0848L14.5 21.9598L10.75 20.8348L14.5 19.7098L10.75 18.5848L14.5 17.4598L10.75 16.3348L14.5 15.2098L10.75 14.0848L14.5 12.9598L10.75 11.8348L14.5 10.7098L10.75 9.58479L14.5 8.45979L10.75 7.33479L14.5 6.20979L10.5625 5.34729C7.1125 7.29729 4.75 10.9723 4.75 15.2098Z" fill="#F9F9F9"/>
</g>
<defs>
<clipPath id="clip0_154_664">
<rect width="24" height="24" fill="white" transform="translate(4 3.20978)"/>
</clipPath>
</defs>
</svg>
