<svg width="157" height="128" viewBox="0 0 157 128" fill="none" xmlns="http://www.w3.org/2000/svg">
<path d="M156.815 63.8511C117.188 71.5811 121.832 127.509 78.6769 127.509C35.5222 127.509 47.9797 63.8511 0.538452 63.8511C0.538452 28.6937 35.5222 0.192871 78.6769 0.192871C121.832 0.192871 156.815 28.6937 156.815 63.8511Z" fill="url(#paint0_linear_154_266)"/>
<circle cx="79.0867" cy="68.9739" r="30.5997" fill="white"/>
<path d="M80.7677 55.8873C79.9778 55.122 78.7421 55.122 77.9522 55.8873L68.0274 65.5025C67.4134 66.0974 67.0654 66.9252 67.0654 67.7911V79.4849C67.0654 81.2243 68.4415 82.6344 70.1391 82.6344H73.2127C74.9102 82.6344 76.2863 81.2243 76.2863 79.4849V74.2356C76.2863 73.6559 76.745 73.1858 77.3109 73.1858H81.409C81.9749 73.1858 82.4336 73.6559 82.4336 74.2356V79.4849C82.4336 81.2243 83.8097 82.6344 85.5072 82.6344H88.5808C90.2783 82.6344 91.6545 81.2243 91.6545 79.4849V67.7911C91.6545 66.9252 91.3065 66.0974 90.6924 65.5025L80.7677 55.8873Z" fill="#35CDE2"/>
<defs>
<linearGradient id="paint0_linear_154_266" x1="156.538" y1="58.1929" x2="-5.96155" y2="58.1929" gradientUnits="userSpaceOnUse">
<stop stop-color="#8359FE"/>
<stop offset="1" stop-color="#855CFE"/>
</linearGradient>
</defs>
</svg>
