<svg width="157" height="128" viewBox="0 0 157 128" fill="none" xmlns="http://www.w3.org/2000/svg">
<path d="M156.277 64.2098C116.65 71.9397 121.293 127.868 78.1385 127.868C34.9838 127.868 47.4412 64.2098 0 64.2098C0 29.0523 34.9838 0.551514 78.1385 0.551514C121.293 0.551514 156.277 29.0523 156.277 64.2098Z" fill="url(#paint0_linear_154_738)"/>
<circle cx="78.5997" cy="69.1512" r="30.5997" fill="white"/>
<g filter="url(#filter0_d_154_738)">
<path d="M78.2693 73.4566C84.5061 73.4566 89.7693 74.4436 89.7693 78.2516C89.7693 82.0611 84.4715 83.0131 78.2693 83.0131C72.0339 83.0131 66.7693 82.0261 66.7693 78.218C66.7693 74.4086 72.067 73.4566 78.2693 73.4566ZM78.2693 55.0131C82.4942 55.0131 85.8794 58.3087 85.8794 62.4205C85.8794 66.5324 82.4942 69.8294 78.2693 69.8294C74.0458 69.8294 70.6592 66.5324 70.6592 62.4205C70.6592 58.3087 74.0458 55.0131 78.2693 55.0131Z" fill="#35CDE2"/>
</g>
<defs>
<filter id="filter0_d_154_738" x="46.7693" y="39.0131" width="63" height="68" filterUnits="userSpaceOnUse" color-interpolation-filters="sRGB">
<feFlood flood-opacity="0" result="BackgroundImageFix"/>
<feColorMatrix in="SourceAlpha" type="matrix" values="0 0 0 0 0 0 0 0 0 0 0 0 0 0 0 0 0 0 127 0" result="hardAlpha"/>
<feOffset dy="4"/>
<feGaussianBlur stdDeviation="10"/>
<feComposite in2="hardAlpha" operator="out"/>
<feColorMatrix type="matrix" values="0 0 0 0 1 0 0 0 0 1 0 0 0 0 1 0 0 0 0.48 0"/>
<feBlend mode="normal" in2="BackgroundImageFix" result="effect1_dropShadow_154_738"/>
<feBlend mode="normal" in="SourceGraphic" in2="effect1_dropShadow_154_738" result="shape"/>
</filter>
<linearGradient id="paint0_linear_154_738" x1="156" y1="58.5515" x2="-6.5" y2="58.5515" gradientUnits="userSpaceOnUse">
<stop stop-color="#8359FE"/>
<stop offset="1" stop-color="#855CFE"/>
</linearGradient>
</defs>
</svg>
