<svg width="116" height="138" viewBox="0 0 116 138" fill="none" xmlns="http://www.w3.org/2000/svg">
<g filter="url(#filter0_d_10_296)">
<path d="M63.4133 60.0091H52.1525C52.1525 57.6829 52.3094 55.6343 52.6233 53.8633C52.9634 52.0658 53.5388 50.4533 54.3497 49.0259C55.1606 47.5985 56.2592 46.2768 57.6456 45.0608C58.875 44.0299 59.9344 43.0387 60.8237 42.087C61.7131 41.1354 62.3932 40.1706 62.864 39.1926C63.3349 38.2145 63.5703 37.1704 63.5703 36.0602C63.5703 34.6856 63.3741 33.5622 62.9817 32.6899C62.6155 31.8176 62.0532 31.1699 61.2946 30.747C60.5622 30.2976 59.6336 30.0729 58.5088 30.0729C57.5933 30.0729 56.7301 30.2976 55.9192 30.747C55.1344 31.1964 54.4936 31.8969 53.9966 32.8485C53.4996 33.7737 53.2249 35.0028 53.1726 36.536H39.8715C39.9499 32.5974 40.8131 29.3989 42.4611 26.9405C44.1352 24.4558 46.3586 22.6451 49.1313 21.5084C51.9301 20.3453 55.056 19.7638 58.5088 19.7638C62.3278 19.7638 65.6106 20.3586 68.3571 21.5481C71.1037 22.7376 73.2094 24.5086 74.6742 26.8612C76.139 29.1874 76.8715 32.0555 76.8715 35.4654C76.8715 37.7387 76.4399 39.7212 75.5767 41.413C74.7396 43.0783 73.6018 44.6379 72.1631 46.0917C70.7506 47.5192 69.168 49.0523 67.4155 50.6912C65.8983 52.0393 64.8651 53.4139 64.3158 54.8149C63.7665 56.1894 63.4657 57.9208 63.4133 60.0091ZM50.5438 72.0629C50.5438 70.1596 51.2239 68.5736 52.5841 67.3048C53.9443 66.0095 55.7099 65.3619 57.881 65.3619C60.0521 65.3619 61.8177 66.0095 63.1779 67.3048C64.5381 68.5736 65.2182 70.1596 65.2182 72.0629C65.2182 73.9661 64.5381 75.5653 63.1779 76.8606C61.8177 78.1294 60.0521 78.7638 57.881 78.7638C55.7099 78.7638 53.9443 78.1294 52.5841 76.8606C51.2239 75.5653 50.5438 73.9661 50.5438 72.0629Z" fill="#35CDE2"/>
</g>
<path d="M60.0388 60.4971L60.9233 60.5075L60.9561 59.6236C61.0312 57.6003 61.3445 55.9858 61.8615 54.7479L61.8637 54.7424C62.366 53.5171 63.322 52.2637 64.8014 50.9935L64.8101 50.986L64.8187 50.9783C66.6189 49.3513 68.2476 47.8266 69.7039 46.4042C71.238 44.9059 72.4677 43.2825 73.383 41.5327C74.3556 39.6988 74.8401 37.5716 74.8684 35.1791C74.9102 31.633 74.1758 28.5731 72.6112 26.0483C71.0519 23.5048 68.7934 21.5894 65.8752 20.2978C62.9705 19.0121 59.5273 18.3622 55.5719 18.3155C51.9761 18.273 48.6865 18.8337 45.716 20.0141C42.7315 21.1844 40.3164 23.0838 38.4899 25.6996L38.4887 25.7013C36.6639 28.3277 35.7222 31.7066 35.5925 35.7696L35.5629 36.6948L36.4885 36.7057L49.9512 36.8647L50.8276 36.875L50.8682 35.9994C50.9355 34.5455 51.2103 33.471 51.6316 32.7162L51.6317 32.7163L51.6368 32.7069C52.0822 31.8866 52.623 31.3328 53.2428 30.9897C53.934 30.6224 54.6582 30.4461 55.4286 30.4552C56.4517 30.4673 57.2135 30.6787 57.771 31.0263L57.7869 31.0363L57.8033 31.0456C58.3745 31.3696 58.8063 31.8603 59.0963 32.567L59.1007 32.5776L59.1053 32.5882C59.4224 33.3081 59.5996 34.2951 59.5843 35.5944C59.5728 36.5718 59.3537 37.4791 58.9285 38.3275C58.4891 39.2044 57.8481 40.0888 56.9881 40.978C56.1073 41.8889 55.0517 42.8444 53.8174 43.8442L53.8095 43.8506L53.8019 43.8571C52.3166 45.1157 51.1195 46.5024 50.2242 48.0202C49.3301 49.536 48.6953 51.2406 48.3121 53.1246L48.312 53.1246L48.31 53.135C47.9589 54.9704 47.7727 57.0759 47.7447 59.4447L47.734 60.3518L48.6412 60.3625L60.0388 60.4971ZM60.2194 77.1389L60.2195 77.139L60.2263 77.1326C61.8039 75.6809 62.6155 73.8489 62.641 71.6949C62.6664 69.5421 61.8986 67.702 60.3515 66.2381C58.7974 64.7404 56.7843 64.006 54.3974 63.9779C52.0104 63.9497 49.9806 64.6363 48.3916 66.097C46.8104 67.5239 45.9994 69.3453 45.974 71.4982C45.9485 73.6521 46.7167 75.5028 48.2596 76.9914L48.2595 76.9914L48.2663 76.9978C49.822 78.4682 51.834 79.1871 54.2175 79.2152C56.6011 79.2433 58.6295 78.5722 60.2194 77.1389Z" stroke="white" stroke-width="1.81447"/>
<defs>
<filter id="filter0_d_10_296" x="0.81086" y="0.233494" width="115.121" height="137.121" filterUnits="userSpaceOnUse" color-interpolation-filters="sRGB">
<feFlood flood-opacity="0" result="BackgroundImageFix"/>
<feColorMatrix in="SourceAlpha" type="matrix" values="0 0 0 0 0 0 0 0 0 0 0 0 0 0 0 0 0 0 127 0" result="hardAlpha"/>
<feOffset dy="19.5303"/>
<feGaussianBlur stdDeviation="19.5303"/>
<feComposite in2="hardAlpha" operator="out"/>
<feColorMatrix type="matrix" values="0 0 0 0 0.210031 0 0 0 0 0.0633751 0 0 0 0 0.65 0 0 0 0.4 0"/>
<feBlend mode="normal" in2="BackgroundImageFix" result="effect1_dropShadow_10_296"/>
<feBlend mode="normal" in="SourceGraphic" in2="effect1_dropShadow_10_296" result="shape"/>
</filter>
</defs>
</svg>
