<svg width="23" height="23" viewBox="0 0 23 23" fill="none" xmlns="http://www.w3.org/2000/svg">
<rect x="0.867798" y="0.669617" width="22" height="22" rx="6" fill="#35CDE2"/>
<path d="M17.8678 12.6696H12.8678V17.6696C12.8678 17.9348 12.7624 18.1892 12.5749 18.3767C12.3874 18.5643 12.133 18.6696 11.8678 18.6696C11.6026 18.6696 11.3482 18.5643 11.1607 18.3767C10.9732 18.1892 10.8678 17.9348 10.8678 17.6696V12.6696H5.8678C5.60258 12.6696 5.34823 12.5643 5.16069 12.3767C4.97315 12.1892 4.8678 11.9348 4.8678 11.6696C4.8678 11.4044 4.97315 11.15 5.16069 10.9625C5.34823 10.775 5.60258 10.6696 5.8678 10.6696H10.8678V5.66962C10.8678 5.4044 10.9732 5.15005 11.1607 4.96251C11.3482 4.77497 11.6026 4.66962 11.8678 4.66962C12.133 4.66962 12.3874 4.77497 12.5749 4.96251C12.7624 5.15005 12.8678 5.4044 12.8678 5.66962V10.6696H17.8678C18.133 10.6696 18.3874 10.775 18.5749 10.9625C18.7624 11.15 18.8678 11.4044 18.8678 11.6696C18.8678 11.9348 18.7624 12.1892 18.5749 12.3767C18.3874 12.5643 18.133 12.6696 17.8678 12.6696Z" fill="white"/>
</svg>
