<svg width="415" height="269" viewBox="0 0 415 269" fill="none" xmlns="http://www.w3.org/2000/svg">
<g filter="url(#filter0_d_154_245)">
<path d="M238.661 149.372H202.046C202.046 141.887 202.556 135.295 203.577 129.597C204.682 123.813 206.554 118.625 209.19 114.032C211.827 109.439 215.399 105.187 219.907 101.274C223.905 97.957 227.349 94.7675 230.241 91.7056C233.133 88.6437 235.344 85.5393 236.875 82.3923C238.406 79.2453 239.172 75.8857 239.172 72.3135C239.172 67.8907 238.534 64.2759 237.258 61.4692C236.067 58.6624 234.238 56.5786 231.772 55.2178C229.39 53.7719 226.371 53.0489 222.714 53.0489C219.737 53.0489 216.93 53.7719 214.293 55.2178C211.742 56.6637 209.658 58.9176 208.042 61.9795C206.426 64.9564 205.533 68.9113 205.363 73.8444H162.113C162.368 61.1715 165.175 50.88 170.534 42.9701C175.977 34.9751 183.207 29.1489 192.222 25.4916C201.323 21.7493 211.487 19.8781 222.714 19.8781C235.132 19.8781 245.806 21.7918 254.736 25.6192C263.667 29.4466 270.514 35.1452 275.277 42.7149C280.04 50.1996 282.421 59.4279 282.421 70.3998C282.421 77.7144 281.018 84.0934 278.211 89.5368C275.489 94.8951 271.79 99.9133 267.112 104.591C262.519 109.184 257.373 114.117 251.674 119.39C246.741 123.728 243.382 128.151 241.596 132.659C239.809 137.082 238.831 142.653 238.661 149.372ZM196.815 188.156C196.815 182.032 199.026 176.929 203.449 172.846C207.872 168.679 213.613 166.595 220.672 166.595C227.732 166.595 233.473 168.679 237.896 172.846C242.319 176.929 244.53 182.032 244.53 188.156C244.53 194.28 242.319 199.426 237.896 203.593C233.473 207.676 227.732 209.717 220.672 209.717C213.613 209.717 207.872 207.676 203.449 203.593C199.026 199.426 196.815 194.28 196.815 188.156Z" fill="#35CDE2"/>
</g>
<g filter="url(#filter1_d_154_245)">
<path d="M316.838 187.153L296.272 176.206C298.51 172.002 300.767 168.452 303.044 165.557C305.394 162.639 307.996 160.284 310.85 158.493C313.705 156.702 316.982 155.381 320.684 154.531C323.921 153.863 326.809 153.102 329.349 152.246C331.889 151.391 334.059 150.309 335.86 148.999C337.661 147.689 339.095 146.031 340.163 144.025C341.485 141.54 342.208 139.319 342.33 137.361C342.501 135.429 342.097 133.712 341.118 132.21C340.213 130.686 338.733 129.377 336.679 128.284C335.007 127.394 333.214 126.961 331.301 126.984C329.435 127.034 327.591 127.677 325.768 128.913C323.97 130.102 322.286 132.056 320.716 134.776L296.424 121.846C300.356 114.804 305.009 109.863 310.384 107.022C315.832 104.159 321.634 103.048 327.792 103.689C334.022 104.308 340.29 106.296 346.596 109.653C353.571 113.365 358.994 117.631 362.866 122.451C366.738 127.271 368.879 132.519 369.291 138.195C369.729 143.822 368.308 149.718 365.027 155.88C362.84 159.989 360.145 163.152 356.941 165.37C353.81 167.566 350.232 169.279 346.206 170.507C342.253 171.714 337.888 172.946 333.11 174.204C329.043 175.166 325.834 176.646 323.483 178.643C321.157 180.594 318.942 183.43 316.838 187.153ZM281.738 196.426C283.569 192.987 286.337 190.782 290.042 189.811C293.772 188.792 297.619 189.338 301.584 191.449C305.55 193.56 308.151 196.446 309.389 200.11C310.653 203.725 310.369 207.252 308.538 210.692C306.707 214.132 303.927 216.361 300.197 217.379C296.492 218.35 292.657 217.78 288.692 215.669C284.727 213.559 282.113 210.696 280.849 207.08C279.611 203.417 279.907 199.866 281.738 196.426Z" fill="#FFB184"/>
</g>
<g filter="url(#filter2_d_154_245)">
<path d="M116.772 187.153L137.338 176.206C135.1 172.002 132.842 168.452 130.565 165.557C128.215 162.639 125.613 160.284 122.759 158.493C119.905 156.702 116.627 155.381 112.925 154.531C109.688 153.863 106.8 153.102 104.26 152.246C101.721 151.391 99.5504 150.309 97.7496 148.999C95.9488 147.689 94.5144 146.031 93.4464 144.025C92.1241 141.54 91.4016 139.319 91.2791 137.361C91.1087 135.429 91.5128 133.712 92.4913 132.21C93.3966 130.686 94.8764 129.377 96.9306 128.284C98.6026 127.394 100.395 126.961 102.308 126.984C104.174 127.034 106.018 127.677 107.841 128.913C109.639 130.102 111.323 132.056 112.893 134.776L137.186 121.846C133.253 114.804 128.6 109.863 123.225 107.022C117.778 104.159 111.975 103.048 105.818 103.689C99.5873 104.308 93.3192 106.296 87.0133 109.653C80.0385 113.365 74.6153 117.631 70.7436 122.451C66.8718 127.271 64.7299 132.519 64.3179 138.195C63.8804 143.822 65.3018 149.718 68.5822 155.88C70.7691 159.989 73.4645 163.152 76.6684 165.37C79.7992 167.566 83.3776 169.279 87.4036 170.507C91.3565 171.714 95.7216 172.946 100.499 174.204C104.567 175.166 107.776 176.646 110.127 178.643C112.452 180.594 114.667 183.43 116.772 187.153ZM151.871 196.426C150.04 192.987 147.273 190.782 143.568 189.811C139.838 188.792 135.99 189.338 132.025 191.449C128.06 193.56 125.458 196.446 124.22 200.11C122.957 203.725 123.24 207.252 125.071 210.692C126.902 214.132 129.683 216.361 133.413 217.379C137.117 218.35 140.952 217.78 144.917 215.669C148.883 213.559 151.497 210.696 152.76 207.08C153.998 203.417 153.702 199.866 151.871 196.426Z" fill="#FFA9D2"/>
</g>
<path d="M228.373 149.953L229.257 149.963L229.29 149.079C229.537 142.43 230.569 136.987 232.352 132.718L232.354 132.712C234.123 128.397 237.429 124.126 242.341 119.908L242.349 119.901L242.358 119.893C248.125 114.681 253.338 109.801 257.994 105.253C262.788 100.571 266.606 95.5221 269.439 90.1044C272.389 84.5447 273.892 78.036 273.98 70.6062C274.111 59.5046 271.811 50.0705 267.028 42.3526C262.25 34.5573 255.322 28.6618 246.285 24.6617C237.261 20.6677 226.483 18.6131 213.976 18.4655C202.649 18.3318 192.345 20.0984 183.077 23.782C173.854 27.3976 166.413 33.2504 160.772 41.3278L160.771 41.3295C155.192 49.3595 152.234 59.8029 151.825 72.591L151.796 73.5162L152.721 73.5271L195.968 74.0376L196.845 74.0479L196.885 73.1724C197.11 68.3227 198.032 64.5319 199.59 61.7402L199.59 61.7402L199.595 61.7308C201.178 58.815 203.172 56.7261 205.561 55.4081C208.08 54.0664 210.743 53.415 213.563 53.4483C217.105 53.4901 219.94 54.224 222.126 55.5866L222.142 55.5966L222.158 55.6059C224.417 56.8871 226.091 58.8277 227.178 61.4769L227.183 61.4876L227.187 61.4981C228.36 64.1614 228.947 67.6429 228.896 71.9879C228.855 75.4253 228.082 78.64 226.577 81.6431C225.058 84.6747 222.868 87.679 219.992 90.6533C217.095 93.6493 213.641 96.7732 209.627 100.025L209.619 100.031L209.612 100.038C204.99 103.954 201.299 108.24 198.55 112.9C195.803 117.557 193.837 122.819 192.646 128.677L192.646 128.677L192.644 128.687C191.543 134.439 190.952 141.08 190.863 148.603L190.853 149.51L191.76 149.521L228.373 149.953ZM192.286 171.432C187.626 175.635 185.25 180.953 185.175 187.323C185.1 193.694 187.349 199.106 191.904 203.501L191.911 203.507C196.479 207.825 202.428 209.996 209.673 210.081C216.918 210.167 222.917 208.137 227.585 203.928L227.592 203.922C232.25 199.636 234.626 194.278 234.701 187.907C234.776 181.537 232.527 176.165 227.968 171.854C223.402 167.45 217.452 165.234 210.203 165.148C202.955 165.063 196.954 167.138 192.286 171.432Z" stroke="white" stroke-width="1.81447"/>
<path d="M310.885 184.404L311.378 184.674L311.661 184.187C313.788 180.527 315.995 177.778 318.272 175.913L318.275 175.911C320.559 174.016 323.693 172.605 327.713 171.705L327.72 171.703L327.727 171.701C332.525 170.498 336.911 169.316 340.886 168.153C344.979 166.957 348.633 165.263 351.844 163.067C355.163 160.826 357.953 157.619 360.224 153.473C363.616 147.276 365.146 141.289 364.766 135.524C364.413 129.717 362.285 124.335 358.405 119.387C354.531 114.446 349.091 110.069 342.11 106.247C335.788 102.785 329.472 100.697 323.165 99.9948C316.904 99.2681 310.975 100.331 305.392 103.181L305.391 103.182C299.856 106.024 295.073 111.005 291.02 118.066L290.726 118.577L291.243 118.86L315.381 132.076L315.87 132.344L316.155 131.864C317.731 129.208 319.382 127.354 321.092 126.252L321.092 126.252L321.097 126.248C322.859 125.084 324.603 124.507 326.339 124.481C328.155 124.48 329.845 124.91 331.419 125.772C333.396 126.855 334.769 128.115 335.589 129.533L335.595 129.544L335.602 129.554C336.487 130.949 336.847 132.539 336.666 134.352L336.665 134.36L336.665 134.367C336.527 136.213 335.816 138.344 334.488 140.77C333.438 142.688 332.042 144.263 330.299 145.499C328.539 146.748 326.412 147.781 323.907 148.591C321.384 149.408 318.51 150.13 315.283 150.756L315.283 150.756L315.271 150.759C311.504 151.577 308.149 152.881 305.212 154.676C302.277 156.47 299.6 158.838 297.179 161.772L297.175 161.777C294.837 164.679 292.519 168.232 290.22 172.431L289.943 172.937L290.449 173.215L310.885 184.404ZM284.193 185.679C280.32 186.646 277.396 188.923 275.449 192.478C273.502 196.034 273.147 199.747 274.392 203.577L274.393 203.582C275.668 207.373 278.361 210.371 282.404 212.585C286.448 214.8 290.424 215.453 294.305 214.485L294.311 214.483C298.208 213.468 301.145 211.17 303.092 207.614C305.038 204.058 305.381 200.369 304.109 196.584C302.862 192.745 300.182 189.722 296.136 187.506C292.091 185.291 288.1 184.663 284.193 185.679Z" stroke="white" stroke-width="1.15453"/>
<path d="M122.725 184.404L122.231 184.674L121.948 184.187C119.822 180.527 117.615 177.778 115.337 175.913L115.334 175.911C113.05 174.016 109.917 172.605 105.897 171.705L105.89 171.703L105.883 171.701C101.085 170.498 96.6981 169.316 92.723 168.153C88.6308 166.957 84.9766 165.263 81.7655 163.067C78.4465 160.826 75.6564 157.619 73.3859 153.473C69.9929 147.276 68.4638 141.289 68.8434 135.524C69.1965 129.717 71.3247 124.335 75.2046 119.387C79.0788 114.446 84.5184 110.069 91.4991 106.247C97.8213 102.785 104.137 100.697 110.444 99.9948C116.705 99.2681 122.635 100.331 128.217 103.181L128.219 103.182C133.753 106.024 138.537 111.005 142.59 118.066L142.883 118.577L142.366 118.86L118.229 132.076L117.739 132.344L117.455 131.864C115.879 129.208 114.228 127.354 112.518 126.252L112.518 126.252L112.512 126.248C110.751 125.084 109.006 124.507 107.271 124.481C105.455 124.48 103.764 124.91 102.19 125.772C100.213 126.855 98.8403 128.115 98.02 129.533L98.014 129.544L98.0076 129.554C97.122 130.949 96.7619 132.539 96.9433 134.352L96.944 134.36L96.9446 134.367C97.0821 136.213 97.7932 138.344 99.121 140.77C100.172 142.688 101.567 144.263 103.31 145.499C105.07 146.748 107.198 147.781 109.703 148.591C112.226 149.408 115.099 150.13 118.326 150.756L118.326 150.756L118.339 150.759C122.105 151.577 125.46 152.881 128.397 154.676C131.333 156.47 134.01 158.838 136.431 161.772L136.435 161.777C138.772 164.679 141.09 168.232 143.389 172.431L143.666 172.937L143.16 173.215L122.725 184.404ZM149.416 185.679C153.29 186.646 156.214 188.923 158.16 192.478C160.107 196.034 160.462 199.747 159.218 203.577L159.216 203.582C157.941 207.373 155.249 210.371 151.205 212.585C147.161 214.8 143.185 215.453 139.304 214.485L139.299 214.483C135.401 213.468 132.465 211.17 130.518 207.614C128.571 204.058 128.228 200.369 129.5 196.584C130.748 192.745 133.427 189.722 137.473 187.506C141.519 185.291 145.51 184.663 149.416 185.679Z" stroke="white" stroke-width="1.15453"/>
<path d="M414 72.132C404.167 78.132 379.7 84.732 360.5 63.132C336.5 36.132 326.5 16.132 292 11.132" stroke="white" stroke-linecap="round"/>
<path d="M1 210.632C14.3333 204.632 46.4 197.932 68 219.132C95 245.632 111 261.132 144 251.132" stroke="white" stroke-linecap="round"/>
<circle cx="78.5" cy="28.632" r="12" stroke="white"/>
<circle cx="317.5" cy="233.632" r="3" stroke="white"/>
<defs>
<filter id="filter0_d_154_245" x="123.053" y="0.347813" width="198.429" height="267.96" filterUnits="userSpaceOnUse" color-interpolation-filters="sRGB">
<feFlood flood-opacity="0" result="BackgroundImageFix"/>
<feColorMatrix in="SourceAlpha" type="matrix" values="0 0 0 0 0 0 0 0 0 0 0 0 0 0 0 0 0 0 127 0" result="hardAlpha"/>
<feOffset dy="19.5303"/>
<feGaussianBlur stdDeviation="19.5303"/>
<feComposite in2="hardAlpha" operator="out"/>
<feColorMatrix type="matrix" values="0 0 0 0 0.210031 0 0 0 0 0.0633751 0 0 0 0 0.65 0 0 0 0.4 0"/>
<feBlend mode="normal" in2="BackgroundImageFix" result="effect1_dropShadow_154_245"/>
<feBlend mode="normal" in="SourceGraphic" in2="effect1_dropShadow_154_245" result="shape"/>
</filter>
<filter id="filter1_d_154_245" x="255.246" y="91.0863" width="138.976" height="164.032" filterUnits="userSpaceOnUse" color-interpolation-filters="sRGB">
<feFlood flood-opacity="0" result="BackgroundImageFix"/>
<feColorMatrix in="SourceAlpha" type="matrix" values="0 0 0 0 0 0 0 0 0 0 0 0 0 0 0 0 0 0 127 0" result="hardAlpha"/>
<feOffset dy="12.4269"/>
<feGaussianBlur stdDeviation="12.4269"/>
<feComposite in2="hardAlpha" operator="out"/>
<feColorMatrix type="matrix" values="0 0 0 0 0.210031 0 0 0 0 0.0633751 0 0 0 0 0.65 0 0 0 0.4 0"/>
<feBlend mode="normal" in2="BackgroundImageFix" result="effect1_dropShadow_154_245"/>
<feBlend mode="normal" in="SourceGraphic" in2="effect1_dropShadow_154_245" result="shape"/>
</filter>
<filter id="filter2_d_154_245" x="39.3869" y="91.0863" width="138.976" height="164.032" filterUnits="userSpaceOnUse" color-interpolation-filters="sRGB">
<feFlood flood-opacity="0" result="BackgroundImageFix"/>
<feColorMatrix in="SourceAlpha" type="matrix" values="0 0 0 0 0 0 0 0 0 0 0 0 0 0 0 0 0 0 127 0" result="hardAlpha"/>
<feOffset dy="12.4269"/>
<feGaussianBlur stdDeviation="12.4269"/>
<feComposite in2="hardAlpha" operator="out"/>
<feColorMatrix type="matrix" values="0 0 0 0 0.210031 0 0 0 0 0.0633751 0 0 0 0 0.65 0 0 0 0.4 0"/>
<feBlend mode="normal" in2="BackgroundImageFix" result="effect1_dropShadow_154_245"/>
<feBlend mode="normal" in="SourceGraphic" in2="effect1_dropShadow_154_245" result="shape"/>
</filter>
</defs>
</svg>
