<svg width="20" height="21" viewBox="0 0 20 21" fill="none" xmlns="http://www.w3.org/2000/svg">
<g clip-path="url(#clip0_154_630)">
<path d="M10.94 0.990051C10.7005 0.990317 10.4701 1.08204 10.2959 1.24648C10.1217 1.41092 10.0169 1.63567 10.0029 1.8748C9.98884 2.11393 10.0666 2.34939 10.2204 2.53308C10.3741 2.71677 10.5922 2.83483 10.8301 2.86312L10.94 2.8697H15.6392C15.8693 2.86973 16.0915 2.95424 16.2635 3.1072C16.4356 3.26017 16.5455 3.47095 16.5724 3.69956L16.579 3.80952V15.0874C16.5789 15.3176 16.4944 15.5398 16.3415 15.7118C16.1885 15.8838 15.9777 15.9937 15.7491 16.0206L15.6392 16.0272H11.41C11.1704 16.0275 10.94 16.1192 10.7658 16.2836C10.5916 16.4481 10.4868 16.6728 10.4728 16.912C10.4587 17.1511 10.5365 17.3865 10.6903 17.5702C10.844 17.7539 11.0621 17.872 11.3 17.9003L11.41 17.9069H15.6392C16.3583 17.9069 17.0503 17.6321 17.5736 17.1388C18.0968 16.6454 18.4117 15.9707 18.4539 15.2528L18.4586 15.0874V3.80952C18.4587 3.09036 18.1839 2.39836 17.6905 1.87512C17.1971 1.35188 16.5225 1.03694 15.8046 0.99475L15.6392 0.990051H10.94ZM5.57647 6.12524L2.91866 8.784C2.74247 8.96024 2.64349 9.19924 2.64349 9.44845C2.64349 9.69766 2.74247 9.93666 2.91866 10.1129L5.57647 12.7717C5.75282 12.9479 5.99195 13.0468 6.24126 13.0468C6.49057 13.0467 6.72963 12.9475 6.90585 12.7712C7.08208 12.5948 7.18103 12.3557 7.18094 12.1064C7.18085 11.8571 7.08173 11.618 6.90538 11.4418L5.85184 10.3883H10.94C11.1893 10.3883 11.4283 10.2893 11.6046 10.113C11.7808 9.93676 11.8799 9.69771 11.8799 9.44845C11.8799 9.1992 11.7808 8.96015 11.6046 8.7839C11.4283 8.60765 11.1893 8.50863 10.94 8.50863H5.85184L6.90538 7.45509C7.08173 7.27886 7.18085 7.0398 7.18094 6.7905C7.18103 6.54119 7.08208 6.30206 6.90585 6.12571C6.72963 5.94936 6.49057 5.85024 6.24126 5.85015C5.99195 5.85006 5.75282 5.94902 5.57647 6.12524Z" fill="#280A82"/>
</g>
<defs>
<clipPath id="clip0_154_630">
<rect width="20" height="20" fill="white" transform="matrix(-1 0 0 1 20 0.551514)"/>
</clipPath>
</defs>
</svg>
