<svg width="24" height="24" viewBox="0 0 24 24" fill="none" xmlns="http://www.w3.org/2000/svg">
<path d="M17.6563 7.75703C18.0468 7.36651 18.0468 6.73334 17.6563 6.34282C17.2658 5.9523 16.6326 5.9523 16.2421 6.34282L12 10.5849L7.75785 6.34282C7.36732 5.9523 6.73416 5.9523 6.34363 6.34282C5.95311 6.73334 5.95311 7.36651 6.34363 7.75703L10.5857 11.9991L6.34258 16.2423C5.95205 16.6328 5.95205 17.266 6.34258 17.6565C6.7331 18.0471 7.36626 18.0471 7.75679 17.6565L12 13.4134L16.2431 17.6565C16.6337 18.0471 17.2668 18.0471 17.6573 17.6565C18.0479 17.266 18.0479 16.6328 17.6573 16.2423L13.4142 11.9991L17.6563 7.75703Z" fill="#280A82"/>
</svg>
