<svg width="42" height="43" viewBox="0 0 42 43" fill="none" xmlns="http://www.w3.org/2000/svg">
<path d="M38.7286 34.1253L23.7201 40.9109C22.7948 41.3473 21.8301 41.3046 20.9442 40.7928L1.99827 31.1721C1.45686 30.8243 1.29608 30.3157 1.32889 29.9614C1.36171 29.607 1.44374 29.2231 2.3953 28.9475L3.79967 28.429L22.8047 38.7879L36.3103 33.2689L38.7286 34.1253Z" fill="#01579B"/>
<path d="M23.5396 39.8248C23.1644 40.0009 22.7525 40.085 22.3382 40.0702C21.924 40.0553 21.5192 39.942 21.1575 39.7395L2.66105 30.4208C2.39855 30.2764 2.3198 29.945 2.4773 29.689C2.88417 29.0164 3.6323 26.8901 2.39855 25.1248L23.287 35.1818L23.5396 39.8248Z" fill="#F5F5F5"/>
<path d="M37.9279 33.3574L23.5397 39.8248C23.0639 40.0315 22.1156 40.399 21.0229 39.664C21.8859 39.7263 22.4929 39.3687 22.8047 38.7879C23.1098 38.2235 23.0179 37.2982 22.6472 36.7765C22.4208 36.4615 21.8137 35.9595 21.5479 35.6773L37.1109 29.5905C38.489 29.0229 39.7819 29.8727 39.9886 30.9063C40.2183 32.0745 38.7286 33.0293 37.9279 33.3574Z" fill="#94C6D6"/>
<path d="M38.6465 29.0853L23.7923 35.7134C22.8572 36.0842 21.8104 36.035 20.9147 35.5821L1.93591 25.9418C1.75216 25.85 1.47981 25.5973 1.37153 25.2528C1.19434 24.6786 1.41747 23.9567 2.09012 23.727L22.657 34.2106L36.7401 28.1829L38.6465 29.0853Z" fill="#01579B"/>
<path d="M39.7655 30.0467L38.1478 29.4593L34.8141 29.6529L23.7956 34.5715C22.8605 34.9423 21.8138 34.8931 20.918 34.4402L1.93595 24.8032C1.44704 24.5538 1.55204 23.8287 2.09017 23.727L15.7697 17.6074C16.1602 17.5352 16.5605 17.5779 16.9247 17.7321L36.4449 27.0377C36.4449 27.0377 39.5456 29.1607 39.7655 30.0467Z" fill="#0091EA"/>
<path d="M34.627 29.7481C34.627 29.7481 36.6811 28.9442 38.2955 29.0164C39.9099 29.0886 40.4709 30.2206 40.4709 30.2206C40.1658 28.8326 38.7319 28.1239 38.7319 28.1239L17.4038 17.3843C17.2561 17.322 16.7114 17.194 15.8747 17.5386C15.1988 17.8175 12.9905 18.8511 12.9905 18.8511L34.627 29.7481Z" fill="#616161"/>
<path d="M40.5628 30.483C40.4085 29.8695 40.0279 29.2132 39.3257 28.8949C38.4004 28.4782 37.0814 28.5865 36.2381 29.0262L34.627 29.7415V30.8768L36.6646 29.9712C38.6465 29.0885 39.5259 30.4109 39.6014 30.7226C39.9164 31.9924 39.306 32.7274 37.5046 33.5543L34.5778 34.8734V36.0152L37.9443 34.5157C39.434 33.9185 41.1337 32.7963 40.5628 30.483Z" fill="#424242"/>
<path d="M10.8314 30.1845L5.16467 22.3521L6.05389 21.9551L12.4294 30.716L10.8314 30.1845ZM18.0994 33.7938L17.0887 32.9932L34.627 29.4134V29.9876L32.1694 30.9195L18.0994 33.7938Z" fill="#01579B"/>
<path d="M4.8562 15.7043L27.0079 12.0031L36.6843 22.6573C37.1732 23.1724 36.9075 24.0256 36.2118 24.1666L13.3415 28.8588L4.8562 15.7043Z" fill="#9CCC65"/>
<path d="M36.2119 23.2479L13.4991 27.8483L13.4269 28.9311L36.2119 24.2586C36.855 24.124 37.1241 23.389 36.773 22.8706C36.6483 23.0544 36.458 23.1987 36.2119 23.2479ZM37.4358 28.2125C37.6753 28.5931 37.4588 29.0951 37.0191 29.1837L16.1109 33.4231C14.8542 33.6823 13.6205 32.8587 13.5089 31.579C13.4138 30.4962 14.1455 29.5151 15.2119 29.292L35.3194 24.777L37.4358 28.2125Z" fill="#689F38"/>
<path d="M18.2405 26.8343L9.91268 14.9168L5.16143 16.1735C4.06221 17.2662 4.47237 19.061 4.47237 19.061C4.47237 19.061 11.7469 30.7357 12.8953 32.2287C14.0438 33.7217 15.7205 33.4887 15.7205 33.4887L18.5522 32.9177L18.2569 27.6349L18.2405 26.8343Z" fill="#616161"/>
<path d="M18.2405 26.9131L14.2406 27.7399C13.148 27.986 12.9511 29.0131 12.9511 29.0131L3.29436 15.176C3.29436 15.176 1.91952 16.8396 2.83171 18.2538L12.8953 32.2287C13.9945 33.7938 15.7205 33.5018 15.7205 33.5018L18.5522 32.9309L18.2601 27.7531L18.2405 26.9131Z" fill="#424242"/>
<path d="M36.1758 27.7859C36.2775 28.009 36.1463 28.2682 35.9067 28.3175L15.9141 32.419C14.6574 32.6782 13.7681 31.8448 13.8141 30.7095C13.8731 29.2756 14.677 28.6686 15.7402 28.4487L35.8313 24.3439C35.8313 24.3439 35.1488 25.1117 35.6705 26.5489C35.8477 27.0443 36.038 27.484 36.1758 27.7859Z" fill="#B9E4EA"/>
<path d="M14.8346 28.0156L6.26721 15.8947" stroke="#424242" stroke-width="0.258875" stroke-miterlimit="10"/>
<path d="M15.5072 22.8476L4.48873 17.2957L4.04248 18.1751L16.7737 24.6621L15.5072 22.8476Z" fill="#424242"/>
<path d="M35.6967 21.5614L34.8895 20.6754L22.4766 26.3717L15.5072 22.9231L16.695 24.6228L21.3117 26.982L24.7505 26.4537L35.6967 21.5614Z" fill="#689F38"/>
<path d="M38.7253 19.3695L23.7201 26.1551C22.7948 26.5915 21.8301 26.5488 20.9442 26.037L1.99827 16.4163C1.45686 16.0685 1.29608 15.5599 1.32889 15.2056C1.36171 14.8512 1.44374 14.4673 2.3953 14.1917L3.28452 13.8635L22.7489 23.4152L38.5547 16.8757L38.7253 19.3695Z" fill="#C62828"/>
<path d="M23.5365 25.069C23.1612 25.2451 22.7493 25.3292 22.3351 25.3144C21.9208 25.2995 21.516 25.1862 21.1543 24.9837L2.65787 15.665C2.39537 15.5206 2.31662 15.1892 2.47412 14.9332C2.881 14.2606 3.62912 12.1343 2.39537 10.369L22.8179 20.7575L23.5365 25.069Z" fill="#F5F5F5"/>
<path d="M37.9247 18.6017L23.5364 25.069C23.0606 25.2757 22.1123 25.6432 21.0197 24.9082C21.8826 24.9706 22.4897 24.6129 22.8014 24.0322C23.1065 23.4678 23.0147 22.5425 22.6439 22.0207C22.4175 21.7057 21.8104 21.2037 21.5447 20.9215L37.1076 14.8348C38.4857 14.2672 39.7786 15.117 39.9853 16.1506C40.215 17.3187 38.7253 18.2736 37.9247 18.6017Z" fill="#94C6D6"/>
<path d="M38.6466 14.3295L23.7924 20.9576C22.8572 21.3284 21.8105 21.2792 20.9147 20.8264L1.93267 11.1861C1.73579 11.0876 1.44048 10.835 1.34533 10.4773C1.20423 9.94575 1.38798 9.24685 2.08689 8.97122L19.4808 5.28638L38.6466 14.3295Z" fill="#C62828"/>
<path d="M39.7622 15.2909L38.1445 14.7036L34.8108 14.8972L23.7923 19.8158C22.8572 20.1865 21.8105 20.1373 20.9147 19.6845L1.93264 10.0442C1.44373 9.79482 1.61764 9.13529 2.08686 8.96795L15.7697 2.8517C16.1601 2.77951 16.5605 2.82217 16.9247 2.97639L36.4448 12.282C36.4448 12.282 39.5423 14.4017 39.7622 15.2909Z" fill="#F44336"/>
<path d="M34.6271 14.989C34.6271 14.989 36.3366 14.3885 37.951 14.4607C39.5653 14.5329 40.4742 15.4615 40.4742 15.4615C40.1428 13.9784 38.7352 13.3648 38.7352 13.3648L17.4071 2.62525C17.2594 2.56291 16.7147 2.43494 15.878 2.77947C15.2021 3.05838 12.9938 4.09197 12.9938 4.09197L34.6271 14.989Z" fill="#616161"/>
<path d="M36.5793 14.2868L14.7557 3.27821L15.4776 2.95337L37.672 14.0768L36.5793 14.2868Z" fill="#424242"/>
<path d="M40.5596 15.7273C40.4054 15.1137 40.1461 14.5198 39.4144 14.2114C38.4793 13.8176 37.6261 13.7356 36.2349 14.2704L34.6238 14.9858V16.1211L36.6615 15.2154C37.6951 14.7298 39.2176 14.8348 39.5982 15.9669C40.0149 17.2072 39.3029 17.9717 37.5015 18.7986L34.5746 20.1176V21.2595L37.9411 19.76C39.4341 19.1628 41.1338 18.0406 40.5596 15.7273Z" fill="#424242"/>
</svg>
