<svg width="22" height="23" viewBox="0 0 22 23" fill="none" xmlns="http://www.w3.org/2000/svg">
<path d="M11 16.1349C10.5137 16.1349 10.0474 15.9417 9.7036 15.5979C9.35978 15.2541 9.16663 14.7878 9.16663 14.3015C9.16663 13.284 9.98246 12.4682 11 12.4682C11.4862 12.4682 11.9525 12.6614 12.2963 13.0052C12.6401 13.349 12.8333 13.8153 12.8333 14.3015C12.8333 14.7878 12.6401 15.2541 12.2963 15.5979C11.9525 15.9417 11.4862 16.1349 11 16.1349ZM16.5 18.8849V9.7182H5.49996V18.8849H16.5ZM16.5 7.88487C16.9862 7.88487 17.4525 8.07802 17.7963 8.42184C18.1401 8.76566 18.3333 9.23197 18.3333 9.7182V18.8849C18.3333 19.3711 18.1401 19.8374 17.7963 20.1812C17.4525 20.525 16.9862 20.7182 16.5 20.7182H5.49996C5.01373 20.7182 4.54741 20.525 4.2036 20.1812C3.85978 19.8374 3.66663 19.3711 3.66663 18.8849V9.7182C3.66663 8.7007 4.48246 7.88487 5.49996 7.88487H6.41663V6.05153C6.41663 4.83596 6.89951 3.67017 7.75905 2.81063C8.6186 1.95109 9.78438 1.4682 11 1.4682C11.6019 1.4682 12.1978 1.58675 12.7539 1.81709C13.31 2.04742 13.8153 2.38503 14.2409 2.81063C14.6665 3.23623 15.0041 3.74149 15.2344 4.29757C15.4647 4.85364 15.5833 5.44964 15.5833 6.05153V7.88487H16.5ZM11 3.30153C10.2706 3.30153 9.57114 3.59127 9.05542 4.10699C8.53969 4.62272 8.24996 5.32219 8.24996 6.05153V7.88487H13.75V6.05153C13.75 5.32219 13.4602 4.62272 12.9445 4.10699C12.4288 3.59127 11.7293 3.30153 11 3.30153Z" fill="#280A82"/>
</svg>
