<svg width="20" height="21" viewBox="0 0 20 21" fill="none" xmlns="http://www.w3.org/2000/svg">
<rect y="0.551514" width="20" height="20" rx="6" fill="#35CDE2"/>
<path d="M12.6667 15.5515C12.3 15.5515 11.9862 15.4117 11.7253 15.1322C11.4644 14.8527 11.3338 14.5163 11.3333 14.1229V6.98009C11.3333 6.58723 11.464 6.25104 11.7253 5.97151C11.9867 5.69199 12.3004 5.55199 12.6667 5.55151C13.0329 5.55104 13.3469 5.69104 13.6087 5.97151C13.8704 6.25199 14.0009 6.58818 14 6.98009V14.1229C14 14.5158 13.8696 14.8522 13.6087 15.1322C13.3478 15.4122 13.0338 15.552 12.6667 15.5515ZM7.33333 15.5515C6.96667 15.5515 6.65289 15.4117 6.392 15.1322C6.13111 14.8527 6.00044 14.5163 6 14.1229V6.98009C6 6.58723 6.13067 6.25104 6.392 5.97151C6.65333 5.69199 6.96711 5.55199 7.33333 5.55151C7.69955 5.55104 8.01355 5.69104 8.27533 5.97151C8.53711 6.25199 8.66755 6.58818 8.66667 6.98009V14.1229C8.66667 14.5158 8.53622 14.8522 8.27533 15.1322C8.01444 15.4122 7.70044 15.552 7.33333 15.5515Z" fill="white"/>
</svg>
