<svg width="375" height="218" viewBox="0 0 375 218" fill="none" xmlns="http://www.w3.org/2000/svg">
<g filter="url(#filter0_d_72_271)">
<path d="M321.943 139.942L312.045 134.276C313.122 132.099 314.208 130.262 315.304 128.763C316.435 127.253 317.688 126.034 319.061 125.107C320.435 124.179 322.013 123.496 323.794 123.056C325.352 122.71 326.742 122.316 327.965 121.873C329.187 121.431 330.232 120.87 331.098 120.192C331.965 119.514 332.656 118.656 333.17 117.617C333.806 116.331 334.154 115.182 334.213 114.168C334.295 113.168 334.1 112.279 333.629 111.502C333.194 110.713 332.481 110.035 331.493 109.469C330.688 109.009 329.825 108.784 328.904 108.797C328.006 108.822 327.119 109.155 326.241 109.795C325.376 110.411 324.566 111.422 323.81 112.83L312.118 106.137C314.01 102.492 316.25 99.9341 318.837 98.4636C321.459 96.9816 324.252 96.4066 327.215 96.7385C330.214 97.0589 333.231 98.0878 336.266 99.8253C339.623 101.747 342.233 103.955 344.096 106.45C345.96 108.945 346.991 111.662 347.189 114.6C347.4 117.513 346.716 120.564 345.137 123.754C344.084 125.881 342.787 127.518 341.245 128.667C339.738 129.803 338.016 130.69 336.078 131.326C334.175 131.95 332.075 132.588 329.775 133.239C327.817 133.737 326.273 134.503 325.141 135.537C324.022 136.547 322.956 138.015 321.943 139.942ZM305.05 144.742C305.931 142.962 307.263 141.82 309.046 141.318C310.841 140.791 312.693 141.073 314.602 142.166C316.51 143.258 317.762 144.753 318.358 146.649C318.966 148.52 318.83 150.346 317.949 152.127C317.067 153.907 315.729 155.061 313.934 155.588C312.151 156.09 310.305 155.795 308.396 154.703C306.488 153.61 305.23 152.128 304.622 150.257C304.026 148.361 304.168 146.523 305.05 144.742Z" fill="#35CDE2"/>
</g>
<path d="M318.949 138.771L319.435 139.057L319.702 138.562C320.717 136.684 321.761 135.29 322.826 134.352L322.829 134.349C323.888 133.405 325.354 132.69 327.259 132.231L327.266 132.229L327.273 132.227C329.585 131.604 331.699 130.991 333.617 130.388C335.611 129.761 337.396 128.871 338.966 127.717C340.603 126.528 341.971 124.833 343.078 122.657C344.728 119.417 345.481 116.267 345.295 113.218C345.121 110.151 344.074 107.306 342.172 104.698C340.276 102.097 337.622 99.8046 334.235 97.8099C331.162 96 328.084 94.9037 325.004 94.5349C321.931 94.1515 319.022 94.7135 316.288 96.2147L316.287 96.2153C313.566 97.7182 311.232 100.342 309.265 104.026L308.989 104.545L309.496 104.843L321.113 111.685L321.595 111.968L321.864 111.48C322.611 110.125 323.382 109.203 324.16 108.664L324.16 108.664L324.165 108.66C324.979 108.082 325.767 107.807 326.537 107.794C327.36 107.794 328.122 108.003 328.833 108.422C329.749 108.961 330.361 109.575 330.722 110.245L330.728 110.256L330.734 110.267C331.122 110.924 331.286 111.68 331.203 112.563L331.203 112.571L331.202 112.578C331.14 113.482 330.814 114.547 330.185 115.783C329.696 116.742 329.05 117.525 328.243 118.141C327.421 118.768 326.423 119.291 325.239 119.703C324.037 120.121 322.665 120.492 321.121 120.814L321.121 120.814L321.109 120.817C319.269 121.247 317.625 121.933 316.184 122.88C314.744 123.827 313.434 125.074 312.254 126.613L312.254 126.613L312.25 126.618C311.113 128.135 309.99 129.988 308.878 132.172L308.616 132.686L309.114 132.979L318.949 138.771ZM311.186 154.374L311.186 154.374L311.192 154.372C313.142 153.826 314.612 152.585 315.581 150.682C316.549 148.78 316.724 146.791 316.087 144.752C315.461 142.68 314.114 141.054 312.108 139.872C310.102 138.691 308.103 138.347 306.142 138.895C304.201 139.417 302.737 140.647 301.769 142.549C300.8 144.452 300.62 146.452 301.243 148.513L301.244 148.519C301.885 150.567 303.238 152.179 305.242 153.359C307.245 154.539 309.237 154.897 311.186 154.374Z" stroke="white" stroke-width="1.15453"/>
<g filter="url(#filter1_d_72_271)">
<path d="M44.9545 167.115L53.3703 162.297C52.4545 160.447 51.5308 158.885 50.599 157.611C49.6373 156.326 48.5724 155.29 47.4045 154.502C46.2366 153.713 44.8952 153.132 43.3805 152.758C42.0559 152.464 40.8739 152.129 39.8346 151.753C38.7954 151.376 37.9073 150.9 37.1704 150.323C36.4335 149.747 35.8465 149.017 35.4095 148.134C34.8684 147.041 34.5727 146.063 34.5226 145.202C34.4529 144.351 34.6182 143.596 35.0186 142.935C35.3891 142.264 35.9946 141.688 36.8352 141.207C37.5195 140.815 38.253 140.624 39.0359 140.635C39.7993 140.656 40.554 140.939 41.3 141.484C42.0357 142.007 42.7248 142.867 43.3674 144.064L53.308 138.373C51.6989 135.274 49.7947 133.1 47.5954 131.849C45.3661 130.589 42.9916 130.1 40.472 130.383C37.9224 130.655 35.3574 131.53 32.777 133.007C29.9228 134.641 27.7036 136.519 26.1192 138.64C24.5349 140.761 23.6584 143.07 23.4898 145.568C23.3107 148.045 23.8924 150.64 25.2348 153.352C26.1297 155.16 27.2327 156.552 28.5437 157.528C29.8249 158.495 31.2892 159.248 32.9367 159.789C34.5543 160.32 36.3405 160.863 38.2954 161.416C39.96 161.839 41.2733 162.491 42.2353 163.37C43.1869 164.228 44.0933 165.477 44.9545 167.115ZM59.3176 171.196C58.5684 169.682 57.4357 168.712 55.9197 168.285C54.3933 167.836 52.8188 168.077 51.1962 169.006C49.5737 169.935 48.5091 171.205 48.0024 172.817C47.4854 174.408 47.6015 175.961 48.3507 177.475C49.0999 178.988 50.2377 179.969 51.7642 180.418C53.2802 180.845 54.8495 180.594 56.472 179.665C58.0946 178.736 59.1644 177.476 59.6814 175.885C60.1881 174.273 60.0668 172.71 59.3176 171.196Z" fill="#FFA9D2"/>
</g>
<path d="M47.5389 166.197L47.0535 166.483L46.7861 165.988C45.9266 164.396 45.0442 163.22 44.148 162.431L44.1453 162.429C43.2577 161.637 42.0247 161.034 40.4135 160.646L40.4066 160.644L40.3997 160.642C38.4331 160.112 36.634 159.59 35.0027 159.077C33.2993 158.542 31.7741 157.782 30.4316 156.795C29.0273 155.775 27.8568 154.323 26.9102 152.463C25.5022 149.698 24.8566 147.004 25.0162 144.393C25.1649 141.765 26.0619 139.329 27.6889 137.097C29.3099 134.874 31.5765 132.917 34.4641 131.217C37.086 129.673 39.7139 128.736 42.3451 128.421C44.9741 128.093 47.4648 128.574 49.8034 129.859L49.8045 129.859C52.1358 131.147 54.1299 133.392 55.8068 136.534L56.0836 137.052L55.5765 137.351L45.699 143.167L45.2178 143.451L44.9487 142.963C44.3166 141.817 43.669 141.045 43.0218 140.597L43.0218 140.597L43.0165 140.593C42.3353 140.109 41.6802 139.882 41.0453 139.871C40.3595 139.871 39.7264 140.045 39.1359 140.393C38.3671 140.846 37.8599 141.357 37.5635 141.908L37.5576 141.919L37.5512 141.93C37.2325 142.47 37.0966 143.092 37.1649 143.826L37.1655 143.833L37.166 143.84C37.2181 144.593 37.4901 145.486 38.0218 146.531C38.4313 147.335 38.9731 147.992 39.6488 148.507C40.3395 149.034 41.1809 149.475 42.1811 149.823C43.1989 150.177 44.3619 150.492 45.6723 150.765L45.6723 150.765L45.6844 150.768C47.2569 151.135 48.6632 151.722 49.8974 152.534C51.1302 153.344 52.25 154.411 53.2587 155.726L53.2588 155.726L53.2626 155.731C54.2325 157.025 55.19 158.605 56.1368 160.465L56.3987 160.979L55.9012 161.272L47.5389 166.197ZM54.0767 179.471L54.0767 179.471L54.0711 179.47C52.3906 178.999 51.1232 177.929 50.2893 176.291C49.4557 174.654 49.3041 172.938 49.853 171.18C50.3938 169.393 51.5555 167.993 53.2772 166.979C54.9989 165.965 56.7213 165.667 58.4126 166.139C60.0852 166.589 61.3478 167.651 62.1813 169.288C63.0153 170.926 63.171 172.651 62.6344 174.427L62.6344 174.427L62.6326 174.433C62.0803 176.199 60.9131 177.587 59.1934 178.6C57.4737 179.612 55.7579 179.922 54.0767 179.471Z" stroke="white" stroke-width="1.15453"/>
<path d="M405.395 68.7475C395.241 75.4112 369.975 82.7413 350.148 58.752C325.364 28.7654 315.037 6.55308 279.41 1" stroke="white" stroke-linecap="round"/>
<path d="M-56 167.549C-42.2311 160.885 -9.11701 153.444 13.1885 176.989C41.0705 206.421 57.5931 223.635 91.6711 212.529" stroke="white" stroke-linecap="round"/>
<path d="M71.3445 20.4359C71.3445 27.8619 65.7554 33.8186 58.9361 33.8186C52.1169 33.8186 46.5278 27.8619 46.5278 20.4359C46.5278 13.01 52.1169 7.05322 58.9361 7.05322C65.7554 7.05322 71.3445 13.01 71.3445 20.4359Z" stroke="white"/>
<path d="M319.845 207.901C319.845 209.807 318.417 211.288 316.731 211.288C315.044 211.288 313.616 209.807 313.616 207.901C313.616 205.996 315.044 204.514 316.731 204.514C318.417 204.514 319.845 205.996 319.845 207.901Z" stroke="white"/>
<defs>
<filter id="filter0_d_72_271" x="279.407" y="84.2206" width="92.6728" height="108.886" filterUnits="userSpaceOnUse" color-interpolation-filters="sRGB">
<feFlood flood-opacity="0" result="BackgroundImageFix"/>
<feColorMatrix in="SourceAlpha" type="matrix" values="0 0 0 0 0 0 0 0 0 0 0 0 0 0 0 0 0 0 127 0" result="hardAlpha"/>
<feOffset dy="12.4269"/>
<feGaussianBlur stdDeviation="12.4269"/>
<feComposite in2="hardAlpha" operator="out"/>
<feColorMatrix type="matrix" values="0 0 0 0 0.210031 0 0 0 0 0.0633751 0 0 0 0 0.65 0 0 0 0.4 0"/>
<feBlend mode="normal" in2="BackgroundImageFix" result="effect1_dropShadow_72_271"/>
<feBlend mode="normal" in="SourceGraphic" in2="effect1_dropShadow_72_271" result="shape"/>
</filter>
<filter id="filter1_d_72_271" x="-1.39562" y="117.878" width="86.2374" height="100.022" filterUnits="userSpaceOnUse" color-interpolation-filters="sRGB">
<feFlood flood-opacity="0" result="BackgroundImageFix"/>
<feColorMatrix in="SourceAlpha" type="matrix" values="0 0 0 0 0 0 0 0 0 0 0 0 0 0 0 0 0 0 127 0" result="hardAlpha"/>
<feOffset dy="12.4269"/>
<feGaussianBlur stdDeviation="12.4269"/>
<feComposite in2="hardAlpha" operator="out"/>
<feColorMatrix type="matrix" values="0 0 0 0 0.210031 0 0 0 0 0.0633751 0 0 0 0 0.65 0 0 0 0.4 0"/>
<feBlend mode="normal" in2="BackgroundImageFix" result="effect1_dropShadow_72_271"/>
<feBlend mode="normal" in="SourceGraphic" in2="effect1_dropShadow_72_271" result="shape"/>
</filter>
</defs>
</svg>
