<svg width="32" height="32" viewBox="0 0 32 32" fill="none" xmlns="http://www.w3.org/2000/svg">
<path d="M28.9744 10.9306V11.0242C28.9744 12.1268 28.9744 12.6793 28.709 13.1306C28.4436 13.5819 27.9603 13.8498 26.9962 14.387L25.9795 14.9511C26.6795 12.5819 26.9141 10.0357 27 7.85882L27.0129 7.57549L27.0154 7.50882C27.85 7.79856 28.3193 8.01523 28.6116 8.42036C28.9744 8.9242 28.9744 9.59343 28.9744 10.9306ZM3.33337 10.9306V11.0242C3.33337 12.1268 3.33337 12.6793 3.59876 13.1306C3.86414 13.5819 4.34748 13.8498 5.31158 14.387L6.32953 14.9511C5.62825 12.5819 5.39363 10.0357 5.30773 7.85882L5.29491 7.57549L5.29363 7.50882C4.45773 7.79856 3.9885 8.01523 3.69619 8.42036C3.33337 8.9242 3.33337 9.59472 3.33337 10.9306Z" fill="#280A82"/>
<path fill-rule="evenodd" clip-rule="evenodd" d="M16.1539 3.03062C18.4411 3.03062 20.3245 3.23191 21.7655 3.4755C23.2257 3.72165 23.9552 3.84473 24.5655 4.59601C25.1757 5.34729 25.1424 6.15883 25.0783 7.78191C24.8578 13.3575 23.6552 20.3204 17.1155 20.9358V25.4665H18.9488C19.2451 25.4667 19.5321 25.5695 19.7612 25.7574C19.9903 25.9453 20.1472 26.2068 20.2052 26.4973L20.4488 27.7101H23.8462C24.1013 27.7101 24.3458 27.8114 24.5262 27.9917C24.7065 28.1721 24.8078 28.4166 24.8078 28.6717C24.8078 28.9267 24.7065 29.1712 24.5262 29.3516C24.3458 29.5319 24.1013 29.6332 23.8462 29.6332H8.46163C8.20662 29.6332 7.96204 29.5319 7.78172 29.3516C7.6014 29.1712 7.50009 28.9267 7.50009 28.6717C7.50009 28.4166 7.6014 28.1721 7.78172 27.9917C7.96204 27.8114 8.20662 27.7101 8.46163 27.7101H11.8591L12.1027 26.4973C12.1607 26.2068 12.3176 25.9453 12.5467 25.7574C12.7757 25.5695 13.0628 25.4667 13.3591 25.4665H15.1924V20.9358C8.65394 20.3204 7.45138 13.3563 7.23086 7.78191C7.16548 6.15883 7.13343 5.34601 7.74368 4.59601C8.35266 3.84473 9.08214 3.72165 10.5424 3.4755C12.3973 3.17165 14.2743 3.02284 16.1539 3.03062ZM17.3745 8.41396L17.2488 8.18832C16.7616 7.31268 16.518 6.87678 16.1539 6.87678C15.7898 6.87678 15.5462 7.31268 15.0591 8.18832L14.9334 8.41396C14.795 8.66268 14.7257 8.78575 14.618 8.86781C14.5091 8.94986 14.3745 8.98063 14.1052 9.04088L13.8616 9.09729C12.9155 9.31139 12.4424 9.41781 12.3296 9.77934C12.2168 10.1409 12.5398 10.5191 13.1847 11.2729L13.3514 11.4678C13.5347 11.6819 13.627 11.7883 13.668 11.9217C13.7091 12.055 13.695 12.1973 13.668 12.4832L13.6424 12.7434C13.545 13.7499 13.4962 14.2537 13.7898 14.4768C14.0847 14.6999 14.5283 14.496 15.4142 14.0883L15.6424 13.9832C15.895 13.8678 16.0206 13.8101 16.1539 13.8101C16.2873 13.8101 16.4129 13.8678 16.6655 13.9832L16.8937 14.0883C17.7796 14.4973 18.2232 14.6999 18.518 14.4768C18.8129 14.2537 18.7629 13.7499 18.6655 12.7434L18.6398 12.4832C18.6129 12.1973 18.5988 12.055 18.6398 11.9217C18.6809 11.7883 18.7732 11.6819 18.9565 11.4678L19.1232 11.2729C19.768 10.5191 20.0911 10.1422 19.9783 9.77934C19.8655 9.41781 19.3924 9.31139 18.4462 9.09729L18.2027 9.04088C17.9334 8.98063 17.7988 8.95114 17.6898 8.86781C17.5821 8.78575 17.5129 8.66268 17.3745 8.41396Z" fill="#280A82"/>
</svg>
