<svg width="20" height="21" viewBox="0 0 20 21" fill="none" xmlns="http://www.w3.org/2000/svg">
<g clip-path="url(#clip0_11_328)">
<path d="M11.325 11.8818C11.6637 11.543 11.8737 11.0743 11.8737 10.5568C11.8737 10.0393 11.6637 9.5705 11.325 9.23175C10.5875 8.49425 2.92499 3.48175 2.92499 3.48175C2.92499 3.48175 7.92499 11.1443 8.66249 11.8818C8.83654 12.0579 9.04383 12.1978 9.27235 12.2933C9.50087 12.3888 9.74607 12.438 9.99374 12.438C10.2414 12.438 10.4866 12.3888 10.7151 12.2933C10.9436 12.1978 11.1509 12.0579 11.325 11.8818Z" fill="#35CDE2"/>
<path d="M10 0.556763V4.30676H11.25V2.54426C15.1913 3.16301 18.17 6.53426 18.17 10.6005C18.1698 11.8605 17.8774 13.1033 17.3158 14.2312C16.7543 15.3591 15.9389 16.3415 14.9336 17.1011C13.9284 17.8607 12.7607 18.3769 11.5223 18.6092C10.284 18.8415 9.00858 18.7834 7.79641 18.4397C6.58423 18.0959 5.46827 17.4758 4.53618 16.628C3.60409 15.7802 2.88126 14.7278 2.42447 13.5535C1.96769 12.3793 1.78938 11.1151 1.90355 9.86032C2.01773 8.60552 2.42129 7.39429 3.08252 6.32176L1.93752 4.66926C0.687321 6.37722 0.0158891 8.44014 0.0212724 10.5568C0.0212724 12.5346 0.607762 14.468 1.70658 16.1125C2.80539 17.757 4.36718 19.0387 6.19444 19.7956C8.0217 20.5524 10.0324 20.7505 11.9722 20.3646C13.912 19.9788 15.6938 19.0264 17.0923 17.6278C18.4909 16.2293 19.4433 14.4475 19.8291 12.5077C20.215 10.5679 20.0169 8.55719 19.2601 6.72993C18.5032 4.90267 17.2215 3.34088 15.577 2.24207C13.9325 1.14325 11.9991 0.556763 10.0213 0.556763L10 0.556763Z" fill="#35CDE2"/>
</g>
<defs>
<clipPath id="clip0_11_328">
<rect width="20" height="20" fill="white" transform="translate(0 0.556763)"/>
</clipPath>
</defs>
</svg>
