<svg width="21" height="15" viewBox="0 0 21 15" fill="none" xmlns="http://www.w3.org/2000/svg">
<path d="M20.5796 4.95876L16.5796 0.958765C16.4864 0.865526 16.3757 0.791565 16.2539 0.741105C16.1321 0.690645 16.0015 0.664673 15.8696 0.664673C15.6033 0.664673 15.348 0.770461 15.1596 0.958765C14.9713 1.14707 14.8656 1.40246 14.8656 1.66876C14.8656 1.93507 14.9713 2.19046 15.1596 2.37876L17.4596 4.66876H5.86965C5.60443 4.66876 5.35008 4.77412 5.16254 4.96166C4.975 5.14919 4.86965 5.40355 4.86965 5.66876C4.86965 5.93398 4.975 6.18833 5.16254 6.37587C5.35008 6.56341 5.60443 6.66876 5.86965 6.66876H19.8696C20.0671 6.66778 20.2598 6.60838 20.4235 6.49804C20.5872 6.38771 20.7146 6.23138 20.7896 6.04876C20.8662 5.86665 20.8871 5.66594 20.8498 5.47195C20.8124 5.27796 20.7184 5.09939 20.5796 4.95876ZM15.8696 8.66876H1.86965C1.67222 8.66975 1.4795 8.72915 1.31578 8.83949C1.15206 8.94982 1.02467 9.10615 0.949646 9.28876C0.873067 9.47088 0.852144 9.67159 0.889518 9.86558C0.926892 10.0596 1.02089 10.2381 1.15965 10.3788L5.15965 14.3788C5.25261 14.4725 5.36321 14.5469 5.48507 14.5977C5.60693 14.6484 5.73763 14.6746 5.86965 14.6746C6.00166 14.6746 6.13236 14.6484 6.25422 14.5977C6.37608 14.5469 6.48668 14.4725 6.57965 14.3788C6.67338 14.2858 6.74777 14.1752 6.79854 14.0533C6.84931 13.9315 6.87544 13.8008 6.87544 13.6688C6.87544 13.5368 6.84931 13.406 6.79854 13.2842C6.74777 13.1623 6.67338 13.0517 6.57965 12.9588L4.27965 10.6688H15.8696C16.1349 10.6688 16.3892 10.5634 16.5768 10.3759C16.7643 10.1883 16.8696 9.93398 16.8696 9.66876C16.8696 9.40355 16.7643 9.14919 16.5768 8.96166C16.3892 8.77412 16.1349 8.66876 15.8696 8.66876Z" fill="#939598"/>
</svg>
