<svg width="25" height="28" viewBox="0 0 25 28" fill="none" xmlns="http://www.w3.org/2000/svg">
<path d="M13.7023 0.720261C12.9123 -0.0450185 11.6767 -0.0450185 10.8868 0.720261L0.962005 10.3355C0.347935 10.9304 0 11.7582 0 12.6241V24.3179C0 26.0573 1.3761 27.4674 3.07363 27.4674H6.14726C7.84478 27.4674 9.22089 26.0573 9.22089 24.3179V19.0686C9.22089 18.4889 9.67959 18.0188 10.2454 18.0188H14.3436C14.9094 18.0188 15.3681 18.4889 15.3681 19.0686V24.3179C15.3681 26.0573 16.7443 27.4674 18.4418 27.4674H21.5154C23.2129 27.4674 24.589 26.0573 24.589 24.3179V12.6241C24.589 11.7582 24.2411 10.9304 23.627 10.3355L13.7023 0.720261Z" fill="#280A82"/>
</svg>
